<?xml version="1.0" encoding="utf-8"?>
<!-- Generator: Adobe Illustrator 28.0.0, SVG Export Plug-In . SVG Version: 6.00 Build 0)  -->
<svg version="1.1" id="Layer_1" xmlns="http://www.w3.org/2000/svg" xmlns:xlink="http://www.w3.org/1999/xlink" x="0px" y="0px"
	 viewBox="0 0 300 300" style="enable-background:new 0 0 300 300;" xml:space="preserve">
<style type="text/css">
	.st0{enable-background:new    ;}
	.st1{fill:#F5F5F5;}
</style>
<g class="st0">
	<path class="st1" d="M124.8,214.4c0,36-26.1,61.2-59.4,61.2C30.2,275.6,5,249.5,5,214.4c0-17.1,3.6-30.6,16.2-63.9L63.5,24.4h56.7
		L87,158.6C110.4,166.7,124.8,186.5,124.8,214.4z M295,214.4c0,36-26.1,61.2-59.4,61.2c-35.1,0-60.3-26.1-60.3-61.2
		c0-17.1,3.6-30.6,16.2-63.9l42.3-126.1h56.7l-33.3,134.2C280.6,166.7,295,186.5,295,214.4z"/>
</g>
</svg>
