<?xml version="1.0" encoding="utf-8"?>
<!-- Generator: Adobe Illustrator 28.0.0, SVG Export Plug-In . SVG Version: 6.00 Build 0)  -->
<svg version="1.1" id="Layer_1" xmlns="http://www.w3.org/2000/svg" xmlns:xlink="http://www.w3.org/1999/xlink" x="0px" y="0px"
	 viewBox="0 0 500 500" style="enable-background:new 0 0 500 500;" xml:space="preserve">
<style type="text/css">
	.st0{fill:none;}
	.st1{opacity:1.000000e-02;}
	.st2{clip-path:url(#SVGID_00000060010970842825873060000009438242453850453695_);}
	.st3{fill-rule:evenodd;clip-rule:evenodd;fill:#383838;}
	.st4{clip-path:url(#SVGID_00000121241352269680654800000014224576204194920578_);}
	.st5{clip-path:url(#SVGID_00000178168628378487802380000008148094054264579470_);}
	.st6{clip-path:url(#SVGID_00000127035362279701862680000009376636677408821650_);}
	.st7{clip-path:url(#SVGID_00000083805745091974436020000006894652860890745019_);}
	.st8{clip-path:url(#SVGID_00000180358266831448903840000014502349678652068247_);}
	.st9{clip-path:url(#SVGID_00000180335689055996899390000018240451560323052930_);}
	.st10{clip-path:url(#SVGID_00000090273317857277035000000011224458658495323785_);}
	.st11{clip-path:url(#SVGID_00000102505392580607000520000004316522384643861639_);}
	.st12{clip-path:url(#SVGID_00000170963810151211538820000009859114187080878760_);}
	.st13{clip-path:url(#SVGID_00000143605489365672780600000005725093158888038793_);}
	.st14{clip-path:url(#SVGID_00000155148962360280222990000016559789379624694455_);}
	.st15{clip-path:url(#SVGID_00000127029353674269604670000004431903676348365968_);}
	.st16{clip-path:url(#SVGID_00000175288963026902648840000000092009850109164441_);}
	.st17{fill-rule:evenodd;clip-rule:evenodd;fill:#F9FAFE;}
	.st18{fill-rule:evenodd;clip-rule:evenodd;fill:#1A87C7;}
	.st19{fill-rule:evenodd;clip-rule:evenodd;fill:#8ACFF0;}
	.st20{opacity:0;}
	.st21{clip-path:url(#SVGID_00000137821460823096870270000012972104096365160633_);}
	.st22{opacity:8.000000e-03;}
	.st23{clip-path:url(#SVGID_00000049220045889570558920000004267129393246694577_);}
	.st24{opacity:1.500000e-02;}
	.st25{clip-path:url(#SVGID_00000033338781584426170350000014436439424238748566_);}
	.st26{opacity:2.300000e-02;}
	.st27{clip-path:url(#SVGID_00000076581075132132512200000010813979583697087881_);}
	.st28{opacity:3.100000e-02;}
	.st29{clip-path:url(#SVGID_00000166673213679324304810000013770266502270675852_);}
	.st30{opacity:3.800000e-02;}
	.st31{clip-path:url(#SVGID_00000018199250374674624880000003935618939823264401_);}
	.st32{opacity:4.600000e-02;}
	.st33{clip-path:url(#SVGID_00000030466750393114143630000000528828852570253732_);}
	.st34{opacity:5.400000e-02;}
	.st35{clip-path:url(#SVGID_00000152959064874860635130000001878049184668759483_);}
	.st36{opacity:6.100000e-02;}
	.st37{clip-path:url(#SVGID_00000125593694169505317750000000130349027927761811_);}
	.st38{opacity:6.900000e-02;}
	.st39{clip-path:url(#SVGID_00000044867551157886498040000017736021034894817208_);}
	.st40{opacity:7.700000e-02;}
	.st41{clip-path:url(#SVGID_00000116940594056531724970000013499721266773888405_);}
	.st42{opacity:8.500000e-02;}
	.st43{clip-path:url(#SVGID_00000041293477309649634340000011342600462897427847_);}
	.st44{opacity:9.200000e-02;}
	.st45{clip-path:url(#SVGID_00000165926794567456536550000007074851970530975631_);}
	.st46{opacity:0.1;}
	.st47{clip-path:url(#SVGID_00000090286380017875405090000002242185166899814302_);}
	.st48{opacity:2.000000e-02;}
	.st49{clip-path:url(#SVGID_00000144326964286936805600000000461776356164812193_);}
	.st50{clip-path:url(#SVGID_00000075133429549514008470000012052297008904725646_);}
	.st51{opacity:3.400000e-02;}
	.st52{clip-path:url(#SVGID_00000035489598264780031630000009170541294706410663_);}
	.st53{opacity:4.800000e-02;}
	.st54{clip-path:url(#SVGID_00000084490370835283716410000005436593037004376987_);}
	.st55{clip-path:url(#SVGID_00000031203284338746477040000002457358686723085221_);}
	.st56{opacity:7.500000e-02;}
	.st57{clip-path:url(#SVGID_00000145025989869763594140000008045609242349869956_);}
	.st58{opacity:8.900000e-02;}
	.st59{clip-path:url(#SVGID_00000066473711844614891220000004692812062519482783_);}
	.st60{opacity:0.103;}
	.st61{clip-path:url(#SVGID_00000054227801306024029540000018115151770853798312_);}
	.st62{opacity:0.117;}
	.st63{clip-path:url(#SVGID_00000134251214763546882890000006105781294571324072_);}
	.st64{opacity:0.131;}
	.st65{clip-path:url(#SVGID_00000106132847720761269900000002059226246343096456_);}
	.st66{opacity:0.145;}
	.st67{clip-path:url(#SVGID_00000037665640379787714470000001697498153643321506_);}
	.st68{opacity:0.158;}
	.st69{clip-path:url(#SVGID_00000088836411746178664340000011332774198704221610_);}
	.st70{opacity:0.172;}
	.st71{clip-path:url(#SVGID_00000049216523560874104790000014305851113677838997_);}
	.st72{opacity:0.186;}
	.st73{clip-path:url(#SVGID_00000089555827187419143640000017488772804277217929_);}
	.st74{opacity:0.2;}
	.st75{clip-path:url(#SVGID_00000168094325331169203970000014904682992803204263_);}
	.st76{clip-path:url(#SVGID_00000034077097378516094320000013371913515700442781_);}
	.st77{fill-rule:evenodd;clip-rule:evenodd;fill:#489BD5;}
	.st78{fill-rule:evenodd;clip-rule:evenodd;fill:#116094;}
	.st79{fill-rule:evenodd;clip-rule:evenodd;fill:#FFFFFF;}
</style>
<rect x="157.2" y="179.8" class="st0" width="186.4" height="139.8"/>
<rect x="157.2" y="179.8" class="st0" width="186.4" height="139.8"/>
<rect x="157.2" y="179.3" class="st0" width="186.4" height="141"/>
<rect x="157.2" y="179.3" class="st0" width="186.4" height="141"/>
<rect x="157.2" y="196.2" class="st0" width="186.4" height="107.6"/>
<rect x="5.5" y="108.7" class="st0" width="490" height="282.8"/>
<rect x="157.2" y="175.9" class="st0" width="186.4" height="147.8"/>
<rect x="157.2" y="175.9" class="st0" width="186.4" height="147.8"/>
<rect x="157.2" y="194.5" class="st0" width="186.4" height="110.7"/>
<rect x="157.2" y="194.5" class="st0" width="186.4" height="110.7"/>
<g id="Group_1178">
	<g id="Group_1048" class="st1">
		<g id="Group_1047">
			<g>
				<defs>
					<rect id="SVGID_1_" x="5" y="112.7" width="490" height="282.8"/>
				</defs>
				<clipPath id="SVGID_00000070808859622113281510000009208153845528688525_">
					<use xlink:href="#SVGID_1_"  style="overflow:visible;"/>
				</clipPath>
				<g id="Group_1046" style="clip-path:url(#SVGID_00000070808859622113281510000009208153845528688525_);">
					<path id="Path_934" class="st3" d="M9.4,249.5l228.7-132c10.6-6.3,23.8-6.3,34.4,0l218.1,125.9c4.2,2.4,5.7,7.9,3.3,12.1
						c-0.8,1.4-1.9,2.5-3.3,3.3l-228.7,132c-10.6,6.3-23.8,6.3-34.4,0L9.4,264.9c-4.2-2.4-5.7-7.9-3.3-12.1
						C7,251.4,8.1,250.3,9.4,249.5"/>
				</g>
			</g>
		</g>
	</g>
	<g id="Group_1051" class="st1">
		<g id="Group_1050">
			<g>
				<defs>
					<rect id="SVGID_00000142886560376272787300000016070964419554998670_" x="13.5" y="117" width="476.3" height="274.2"/>
				</defs>
				<clipPath id="SVGID_00000076584187928341406610000004421066065555413390_">
					<use xlink:href="#SVGID_00000142886560376272787300000016070964419554998670_"  style="overflow:visible;"/>
				</clipPath>
				<g id="Group_1049" style="clip-path:url(#SVGID_00000076584187928341406610000004421066065555413390_);">
					<path id="Path_935" class="st3" d="M18,248l220.9-126.3c10.5-6.2,23.6-6.2,34.2,0c70.8,40.9,141.6,81.7,212.4,122.6
						c4.2,2.4,5.7,7.8,3.2,12.1c-0.8,1.3-1.9,2.5-3.2,3.2c-73.3,42.3-146.6,84.6-219.9,126.9c-10.5,6.3-23.6,6.3-34.2,0
						C160.2,345.5,89.1,304.4,18,263.4c-4.2-2.4-5.7-7.9-3.2-12.1C15.5,249.9,16.6,248.8,18,248"/>
				</g>
			</g>
		</g>
	</g>
	<g id="Group_1054" class="st1">
		<g id="Group_1053">
			<g>
				<defs>
					<rect id="SVGID_00000124131153621196886390000003696722786424228225_" x="22.1" y="121.3" width="462.5" height="265.7"/>
				</defs>
				<clipPath id="SVGID_00000098928384634135081500000002283380880614684054_">
					<use xlink:href="#SVGID_00000124131153621196886390000003696722786424228225_"  style="overflow:visible;"/>
				</clipPath>
				<g id="Group_1052" style="clip-path:url(#SVGID_00000098928384634135081500000002283380880614684054_);">
					<path id="Path_936" class="st3" d="M26.5,246.6c71-40.2,142-80.4,213-120.6c10.5-6.2,23.5-6.2,34,0
						c68.9,39.8,137.8,79.5,206.7,119.3c4.2,2.4,5.6,7.8,3.2,12c-0.8,1.3-1.9,2.4-3.2,3.2c-70.3,40.6-140.7,81.2-211,121.8
						c-10.5,6.2-23.5,6.2-34,0C165.6,342.2,96.1,302,26.5,261.8c-4.2-2.4-5.6-7.8-3.2-12C24,248.5,25.2,247.4,26.5,246.6"/>
				</g>
			</g>
		</g>
	</g>
	<g id="Group_1057" class="st1">
		<g id="Group_1056">
			<g>
				<defs>
					<rect id="SVGID_00000098910107144058738060000002745720114911556795_" x="30.6" y="125.7" width="448.8" height="257.1"/>
				</defs>
				<clipPath id="SVGID_00000124125839724405563980000000486247040266140814_">
					<use xlink:href="#SVGID_00000098910107144058738060000002745720114911556795_"  style="overflow:visible;"/>
				</clipPath>
				<g id="Group_1055" style="clip-path:url(#SVGID_00000124125839724405563980000000486247040266140814_);">
					<path id="Path_937" class="st3" d="M35,245.2l205.2-114.9c10.5-6.1,23.4-6.1,33.8,0l201,116c4.2,2.4,5.6,7.8,3.2,12
						c-0.8,1.3-1.9,2.4-3.2,3.2c-67.4,38.9-134.8,77.8-202.1,116.7c-10.4,6.2-23.4,6.2-33.8,0L35,260.3c-2.7-1.5-4.4-4.4-4.4-7.6
						C30.6,249.6,32.2,246.7,35,245.2"/>
				</g>
			</g>
		</g>
	</g>
	<g id="Group_1060" class="st1">
		<g id="Group_1059">
			<g>
				<defs>
					<rect id="SVGID_00000175303874387811871100000013418743507878204827_" x="39.2" y="130" width="435" height="248.6"/>
				</defs>
				<clipPath id="SVGID_00000071553551848129629750000009388269460146486689_">
					<use xlink:href="#SVGID_00000175303874387811871100000013418743507878204827_"  style="overflow:visible;"/>
				</clipPath>
				<g id="Group_1058" style="clip-path:url(#SVGID_00000071553551848129629750000009388269460146486689_);">
					<path id="Path_938" class="st3" d="M43.5,243.7l197.3-109.2c10.4-6,23.3-6,33.7,0l195.3,112.8c4.2,2.4,5.6,7.7,3.2,11.9
						c-0.8,1.3-1.9,2.4-3.2,3.2L276.5,373.9c-10.4,6.2-23.3,6.2-33.7,0L43.5,258.8c-2.7-1.5-4.4-4.4-4.4-7.5
						C39.1,248.1,40.8,245.2,43.5,243.7"/>
				</g>
			</g>
		</g>
	</g>
	<g id="Group_1063" class="st1">
		<g id="Group_1062">
			<g>
				<defs>
					<rect id="SVGID_00000054976298819111088550000009103697360236912556_" x="47.7" y="134.3" width="421.3" height="240"/>
				</defs>
				<clipPath id="SVGID_00000093899927145397878870000008161157374153120161_">
					<use xlink:href="#SVGID_00000054976298819111088550000009103697360236912556_"  style="overflow:visible;"/>
				</clipPath>
				<g id="Group_1061" style="clip-path:url(#SVGID_00000093899927145397878870000008161157374153120161_);">
					<path id="Path_939" class="st3" d="M52,242.3l189.5-103.5c10.4-6,23.1-6,33.5,0c63.2,36.5,126.4,73,189.6,109.4
						c4.1,2.4,5.6,7.7,3.2,11.8c-0.8,1.3-1.9,2.4-3.2,3.2c-61.5,35.5-122.9,71-184.4,106.5c-10.3,6.2-23.2,6.2-33.5,0
						C181.8,332.2,116.9,294.8,52,257.3c-2.7-1.5-4.4-4.4-4.3-7.5C47.6,246.7,49.3,243.8,52,242.3"/>
				</g>
			</g>
		</g>
	</g>
	<g id="Group_1066" class="st1">
		<g id="Group_1065">
			<g>
				<defs>
					<rect id="SVGID_00000018213600317620032910000000692260714338786197_" x="56.2" y="138.6" width="407.5" height="231.5"/>
				</defs>
				<clipPath id="SVGID_00000008117927895019243330000013988142599422615981_">
					<use xlink:href="#SVGID_00000018213600317620032910000000692260714338786197_"  style="overflow:visible;"/>
				</clipPath>
				<g id="Group_1064" style="clip-path:url(#SVGID_00000008117927895019243330000013988142599422615981_);">
					<path id="Path_940" class="st3" d="M60.6,240.9L242.2,143c10.3-5.9,23-5.9,33.3,0c61.3,35.4,122.6,70.8,183.9,106.2
						c4.1,2.4,5.5,7.7,3.2,11.8c-0.8,1.3-1.8,2.4-3.2,3.2c-58.5,33.8-117,67.6-175.6,101.4c-10.3,6.1-23.1,6.1-33.3,0
						c-63.3-36.6-126.7-73.1-190-109.7c-2.7-1.5-4.3-4.4-4.3-7.5C56.2,245.2,57.8,242.3,60.6,240.9"/>
				</g>
			</g>
		</g>
	</g>
	<g id="Group_1069" class="st1">
		<g id="Group_1068">
			<g>
				<defs>
					<rect id="SVGID_00000178911418852458581530000011762787523369818752_" x="64.8" y="142.9" width="393.8" height="222.9"/>
				</defs>
				<clipPath id="SVGID_00000137824175824503018880000003899891376617386385_">
					<use xlink:href="#SVGID_00000178911418852458581530000011762787523369818752_"  style="overflow:visible;"/>
				</clipPath>
				<g id="Group_1067" style="clip-path:url(#SVGID_00000137824175824503018880000003899891376617386385_);">
					<path id="Path_941" class="st3" d="M69.1,239.4l173.8-92.1c10.3-5.8,22.9-5.8,33.2,0c59.4,34.3,118.8,68.6,178.2,102.9
						c4.1,2.4,5.5,7.6,3.1,11.7c-0.8,1.3-1.8,2.4-3.1,3.1c-55.6,32.1-111.1,64.2-166.7,96.2c-10.2,6.1-23,6.1-33.2,0
						c-61.8-35.7-123.5-71.3-185.3-107c-2.7-1.5-4.3-4.4-4.3-7.4C64.7,243.8,66.3,240.9,69.1,239.4"/>
				</g>
			</g>
		</g>
	</g>
	<g id="Group_1072" class="st1">
		<g id="Group_1071">
			<g>
				<defs>
					<rect id="SVGID_00000117655852684356933720000007307323846907691966_" x="73.3" y="147.3" width="380" height="214.4"/>
				</defs>
				<clipPath id="SVGID_00000002342816960267009980000012722536722398272141_">
					<use xlink:href="#SVGID_00000117655852684356933720000007307323846907691966_"  style="overflow:visible;"/>
				</clipPath>
				<g id="Group_1070" style="clip-path:url(#SVGID_00000002342816960267009980000012722536722398272141_);">
					<path id="Path_942" class="st3" d="M77.6,238l166-86.4c10.8-5.4,22.5-6.1,33,0c57.5,33.2,115,66.4,172.5,99.6
						c4.1,2.3,5.5,7.6,3.1,11.6c-0.7,1.3-1.8,2.4-3.1,3.1l-157.8,91.1c-10.2,6.1-22.8,6.1-33,0L77.6,252.8c-2.7-1.5-4.3-4.3-4.3-7.4
						C73.2,242.3,74.9,239.4,77.6,238"/>
				</g>
			</g>
		</g>
	</g>
	<g id="Group_1075" class="st1">
		<g id="Group_1074">
			<g>
				<defs>
					<rect id="SVGID_00000057149748905438950750000013374585581346164151_" x="81.9" y="151.6" width="366.3" height="205.8"/>
				</defs>
				<clipPath id="SVGID_00000016786140986311482000000003584917671432930238_">
					<use xlink:href="#SVGID_00000057149748905438950750000013374585581346164151_"  style="overflow:visible;"/>
				</clipPath>
				<g id="Group_1073" style="clip-path:url(#SVGID_00000016786140986311482000000003584917671432930238_);">
					<path id="Path_943" class="st3" d="M86.1,236.6c52.7-26.9,105.4-53.8,158.1-80.7c10.8-5.3,22.4-6,32.8,0l166.8,96.3
						c4.1,2.3,5.4,7.5,3.1,11.6c-0.7,1.3-1.8,2.4-3.1,3.1l-149,86c-10.1,6-22.7,6-32.8,0c-58.7-33.9-117.3-67.7-176-101.6
						c-2.7-1.5-4.3-4.3-4.2-7.3C81.7,240.8,83.4,238,86.1,236.6"/>
				</g>
			</g>
		</g>
	</g>
	<g id="Group_1078" class="st1">
		<g id="Group_1077">
			<g>
				<defs>
					<rect id="SVGID_00000146487764713204140250000017689222835876516777_" x="90.4" y="155.9" width="352.5" height="197.2"/>
				</defs>
				<clipPath id="SVGID_00000127722534259558336450000009687193942494144911_">
					<use xlink:href="#SVGID_00000146487764713204140250000017689222835876516777_"  style="overflow:visible;"/>
				</clipPath>
				<g id="Group_1076" style="clip-path:url(#SVGID_00000127722534259558336450000009687193942494144911_);">
					<path id="Path_944" class="st3" d="M94.6,235.1l150.3-75c10.8-5.2,22.3-6,32.7,0l161.1,93c4,2.3,5.4,7.5,3.1,11.5
						c-0.7,1.3-1.8,2.4-3.1,3.1l-140.1,80.9c-10.1,6-22.6,6-32.7,0c-57.1-33-114.2-65.9-171.3-98.9c-2.6-1.5-4.3-4.3-4.2-7.3
						C90.3,239.4,91.9,236.5,94.6,235.1"/>
				</g>
			</g>
		</g>
	</g>
	<g id="Group_1081" class="st1">
		<g id="Group_1080">
			<g>
				<defs>
					<rect id="SVGID_00000163054865126966533590000010221976882711433351_" x="99" y="160.2" width="338.8" height="188.7"/>
				</defs>
				<clipPath id="SVGID_00000060720312148125197240000007614822461163022015_">
					<use xlink:href="#SVGID_00000163054865126966533590000010221976882711433351_"  style="overflow:visible;"/>
				</clipPath>
				<g id="Group_1079" style="clip-path:url(#SVGID_00000060720312148125197240000007614822461163022015_);">
					<path id="Path_945" class="st3" d="M103.2,233.7l142.5-69.3c10.8-5.1,22.2-6,32.5,0c51.8,29.9,103.6,59.8,155.4,89.7
						c4,2.3,5.4,7.5,3.1,11.5c-0.7,1.3-1.8,2.3-3.1,3.1c-43.7,25.3-87.5,50.5-131.3,75.8c-10,6-22.5,6-32.5,0l-166.6-96.2
						c-2.6-1.5-4.2-4.3-4.2-7.3C98.8,237.9,100.4,235.1,103.2,233.7"/>
				</g>
			</g>
		</g>
	</g>
	<g id="Group_1084" class="st1">
		<g id="Group_1083">
			<g>
				<defs>
					<rect id="SVGID_00000029728173174862777280000012942734597234017433_" x="107.5" y="164.5" width="325" height="180.1"/>
				</defs>
				<clipPath id="SVGID_00000181799555799832881080000013156770189635461509_">
					<use xlink:href="#SVGID_00000029728173174862777280000012942734597234017433_"  style="overflow:visible;"/>
				</clipPath>
				<g id="Group_1082" style="clip-path:url(#SVGID_00000181799555799832881080000013156770189635461509_);">
					<path id="Path_946" class="st3" d="M111.7,232.2c44.9-21.2,89.7-42.4,134.6-63.6c10.8-5,22.1-5.9,32.3,0
						c49.9,28.8,99.8,57.6,149.7,86.4c4,2.3,5.4,7.4,3.1,11.4c-0.7,1.3-1.8,2.3-3.1,3.1L306,340.2c-10,5.9-22.4,5.9-32.3,0
						c-54-31.2-108-62.3-161.9-93.5c-2.6-1.5-4.2-4.2-4.2-7.2C107.4,236.5,109,233.6,111.7,232.2"/>
				</g>
			</g>
		</g>
	</g>
	<g id="Group_1087" class="st1">
		<g id="Group_1086">
			<g>
				<defs>
					<rect id="SVGID_00000173858911213248595940000015828702170837570232_" x="116" y="168.9" width="311.3" height="171.6"/>
				</defs>
				<clipPath id="SVGID_00000042734166969009653780000009188581414349340312_">
					<use xlink:href="#SVGID_00000173858911213248595940000015828702170837570232_"  style="overflow:visible;"/>
				</clipPath>
				<g id="Group_1085" style="clip-path:url(#SVGID_00000042734166969009653780000009188581414349340312_);">
					<path id="Path_947" class="st3" d="M120.2,230.8L247,172.9c10.7-4.9,21.9-5.9,32.2,0l144,83.1c4,2.3,5.3,7.4,3,11.4
						c-0.7,1.3-1.8,2.3-3,3L309.6,336c-9.9,5.9-22.3,5.9-32.2,0l-157.3-90.8c-2.6-1.5-4.2-4.2-4.2-7.2
						C115.9,235,117.5,232.2,120.2,230.8"/>
				</g>
			</g>
		</g>
	</g>
	<path id="Path_948" class="st17" d="M69.6,235.3l206.2-119.1c1.6-0.9,3.5-0.9,5,0l206.3,119.1L280.8,354.4c-1.6,0.9-3.5,0.9-5,0
		L69.6,235.3z"/>
	<path id="Path_949" class="st18" d="M69,234.4l206.2-119.1c1.9-1.1,4.2-1.1,6.1,0l206.2,119.1c0.5,0.3,0.7,1,0.4,1.5
		c-0.1,0.2-0.2,0.3-0.4,0.4L281.4,355.4c-1.9,1.1-4.2,1.1-6.1,0L69,236.3c-0.5-0.3-0.7-1-0.4-1.5c0,0,0,0,0,0
		C68.7,234.6,68.9,234.5,69,234.4 M276.4,117.2L71.8,235.3l204.6,118.1c1.2,0.7,2.7,0.7,3.9,0l204.6-118.1L280.3,117.2
		C279.1,116.5,277.6,116.5,276.4,117.2"/>
	<path id="Path_950" class="st18" d="M69.6,242.8v-7.5l208.8,120.5v7.2c-0.2,0-0.4-0.1-0.5-0.2C244.7,343.8,102.7,261.8,69.6,242.8"
		/>
	<path id="Path_951" class="st18" d="M68.5,242.8v-7.5c0-0.6,0.5-1.1,1.1-1.1c0,0,0,0,0,0c0.2,0,0.5,0.1,0.6,0.2l208.7,120.5
		c0.3,0.2,0.5,0.6,0.6,1v7.2c0,0.6-0.5,1.1-1.1,1.1c-0.3,0-0.7-0.1-0.9-0.2l-0.1,0c0,0-0.1,0-0.1-0.1
		c-21.6-12.5-84.2-48.6-133.9-77.2c-32.7-18.8-61.6-35.5-74.4-42.9C68.7,243.6,68.5,243.2,68.5,242.8L68.5,242.8z M70.7,237.3v4.9
		c13,7.5,41.6,24,73.8,42.5c53.5,30.8,112.5,64.9,132.7,76.6v-4.8L70.7,237.3z"/>
	<path id="Path_952" class="st19" d="M487.1,242.8v-7.5L278.3,355.9v7.2c0.2,0,0.4-0.1,0.5-0.2C311.9,343.8,454,261.8,487.1,242.8"
		/>
	<path id="Path_953" class="st18" d="M486,242.2v-4.9L279.4,356.5v4.8c20.2-11.7,79.2-45.7,132.7-76.6
		C444.4,266.1,473,249.7,486,242.2 M488.2,235.3v7.5l0,0c0,0.4-0.2,0.8-0.6,0.9c-12.8,7.3-41.7,24-74.4,42.9
		c-49.6,28.6-112.3,64.8-133.9,77.2l-0.1,0.1l-0.1,0c-0.3,0.2-0.6,0.2-0.9,0.2c-0.6,0-1.1-0.5-1.1-1.1v-7.2l0,0c0-0.4,0.2-0.8,0.6-1
		l208.7-120.5c0.2-0.1,0.4-0.2,0.6-0.2C487.7,234.2,488.2,234.7,488.2,235.3"/>
	<g id="Group_1090" class="st20">
		<g id="Group_1089">
			<g>
				<defs>
					<rect id="SVGID_00000139272743968611865300000015379124303572933762_" x="195.6" y="185.7" width="82.8" height="19.5"/>
				</defs>
				<clipPath id="SVGID_00000178197112125178593710000000884417345179201155_">
					<use xlink:href="#SVGID_00000139272743968611865300000015379124303572933762_"  style="overflow:visible;"/>
				</clipPath>
				<g id="Group_1088" style="clip-path:url(#SVGID_00000178197112125178593710000000884417345179201155_);">
					<path id="Path_954" class="st18" d="M276.3,198.6c1.2-0.6,2-1.8,2.2-3.1c0-4-10.1-7.5-25.6-9c-5-0.5-10.3-0.7-15.8-0.7
						c-5.4,0-10.8,0.2-15.8,0.7c-10.1,1-18.2,2.9-22.4,5.2c-2.1,1.2-3.2,2.5-3.2,3.8c0,1.3,1.1,2.6,3.2,3.8
						c4.2,2.4,12.4,4.3,22.4,5.2c5,0.5,10.3,0.7,15.8,0.7s10.8-0.2,15.8-0.7c10.1-1,18.2-2.9,22.4-5.2
						C275.6,199,276,198.8,276.3,198.6"/>
				</g>
			</g>
		</g>
	</g>
	<g id="Group_1093" class="st22">
		<g id="Group_1092">
			<g>
				<defs>
					<rect id="SVGID_00000143591021305002364850000016370372164642904449_" x="196.9" y="186.5" width="77.7" height="18.3"/>
				</defs>
				<clipPath id="SVGID_00000062914547377876510900000012661303416735806104_">
					<use xlink:href="#SVGID_00000143591021305002364850000016370372164642904449_"  style="overflow:visible;"/>
				</clipPath>
				<g id="Group_1091" style="clip-path:url(#SVGID_00000062914547377876510900000012661303416735806104_);">
					<path id="Path_955" class="st18" d="M272.5,198.5c1.1-0.6,1.9-1.7,2-2.9c0-3.7-9.4-7-24.1-8.5c-4.7-0.5-9.7-0.7-14.8-0.7
						c-5.1,0-10.1,0.2-14.8,0.7c-9.5,0.9-17.1,2.7-21,4.9c-2,1.1-3,2.3-3,3.5s1,2.4,3,3.5c3.9,2.2,11.6,4,21,4.9
						c4.7,0.5,9.7,0.7,14.8,0.7s10.1-0.2,14.8-0.7c9.4-0.9,17.1-2.7,21-4.9C271.9,198.9,272.2,198.7,272.5,198.5"/>
				</g>
			</g>
		</g>
	</g>
	<g id="Group_1096" class="st24">
		<g id="Group_1095">
			<g>
				<defs>
					<rect id="SVGID_00000116918682166410004370000016292506639489062530_" x="198.1" y="187.2" width="72.6" height="17.1"/>
				</defs>
				<clipPath id="SVGID_00000000220589920368324180000012290954114805866141_">
					<use xlink:href="#SVGID_00000116918682166410004370000016292506639489062530_"  style="overflow:visible;"/>
				</clipPath>
				<g id="Group_1094" style="clip-path:url(#SVGID_00000000220589920368324180000012290954114805866141_);">
					<path id="Path_956" class="st18" d="M268.8,198.5c1-0.5,1.8-1.6,1.9-2.7c0-3.5-8.8-6.6-22.5-7.9c-4.4-0.4-9-0.6-13.8-0.6
						c-4.8,0-9.4,0.2-13.8,0.6c-6.8,0.3-13.4,1.9-19.6,4.6c-1.9,1.1-2.8,2.2-2.8,3.3s1,2.3,2.8,3.3c6.2,2.7,12.9,4.3,19.6,4.6
						c4.4,0.4,9.1,0.6,13.8,0.6c4.8,0,9.4-0.2,13.8-0.6c6.8-0.3,13.4-1.9,19.6-4.6C268.2,198.9,268.5,198.7,268.8,198.5"/>
				</g>
			</g>
		</g>
	</g>
	<g id="Group_1099" class="st26">
		<g id="Group_1098">
			<g>
				<defs>
					<rect id="SVGID_00000112615380689105774380000004753713025906026382_" x="199.3" y="188" width="67.5" height="15.9"/>
				</defs>
				<clipPath id="SVGID_00000114775632515415799340000013261057850310406560_">
					<use xlink:href="#SVGID_00000112615380689105774380000004753713025906026382_"  style="overflow:visible;"/>
				</clipPath>
				<g id="Group_1097" style="clip-path:url(#SVGID_00000114775632515415799340000013261057850310406560_);">
					<path id="Path_957" class="st18" d="M265,198.5c1-0.5,1.6-1.5,1.8-2.5c0-3.2-8.2-6.1-20.9-7.3c-4.1-0.4-8.4-0.6-12.8-0.6
						c-4.4,0-8.8,0.2-12.9,0.6c-6.3,0.3-12.5,1.8-18.3,4.3c-1.7,1-2.6,2-2.6,3.1c0,1.1,0.9,2.1,2.6,3.1c5.8,2.5,12,4,18.3,4.3
						c4.1,0.4,8.4,0.6,12.9,0.6s8.8-0.2,12.9-0.6c6.3-0.3,12.5-1.8,18.3-4.3C264.5,198.8,264.8,198.6,265,198.5"/>
				</g>
			</g>
		</g>
	</g>
	<g id="Group_1102" class="st28">
		<g id="Group_1101">
			<g>
				<defs>
					<rect id="SVGID_00000165928866106594376630000013011660907291774900_" x="200.5" y="188.7" width="62.4" height="14.7"/>
				</defs>
				<clipPath id="SVGID_00000133518737570761162630000000185570762783478658_">
					<use xlink:href="#SVGID_00000165928866106594376630000013011660907291774900_"  style="overflow:visible;"/>
				</clipPath>
				<g id="Group_1100" style="clip-path:url(#SVGID_00000133518737570761162630000000185570762783478658_);">
					<path id="Path_958" class="st18" d="M261.3,198.4c0.9-0.5,1.5-1.3,1.6-2.3c0-3-7.6-5.7-19.3-6.8c-3.8-0.4-7.8-0.5-11.9-0.5
						s-8.1,0.2-11.9,0.5c-5.8,0.3-11.5,1.6-16.9,3.9c-1.6,0.9-2.4,1.9-2.4,2.8c0,1,0.8,1.9,2.4,2.8c5.3,2.3,11.1,3.7,16.9,3.9
						c3.8,0.4,7.8,0.5,11.9,0.5s8.1-0.2,11.9-0.5c5.8-0.3,11.5-1.6,16.9-3.9C260.7,198.8,261,198.6,261.3,198.4"/>
				</g>
			</g>
		</g>
	</g>
	<g id="Group_1105" class="st30">
		<g id="Group_1104">
			<g>
				<defs>
					<rect id="SVGID_00000039815716586965232170000000540531567290187945_" x="201.8" y="189.5" width="57.2" height="13.5"/>
				</defs>
				<clipPath id="SVGID_00000127742764206366158480000004171676586353547689_">
					<use xlink:href="#SVGID_00000039815716586965232170000000540531567290187945_"  style="overflow:visible;"/>
				</clipPath>
				<g id="Group_1103" style="clip-path:url(#SVGID_00000127742764206366158480000004171676586353547689_);">
					<path id="Path_959" class="st18" d="M257.5,198.4c0.8-0.4,1.4-1.2,1.5-2.2c0-2.7-7-5.2-17.7-6.2c-3.5-0.3-7.1-0.5-10.9-0.5
						s-7.4,0.2-10.9,0.5c-5.3,0.3-10.6,1.5-15.5,3.6c-1.5,0.8-2.2,1.7-2.2,2.6s0.7,1.8,2.2,2.6c4.9,2.1,10.2,3.4,15.5,3.6
						c3.5,0.3,7.1,0.5,10.9,0.5s7.4-0.2,10.9-0.5c5.3-0.3,10.6-1.5,15.5-3.6C257,198.7,257.3,198.6,257.5,198.4"/>
				</g>
			</g>
		</g>
	</g>
	<g id="Group_1108" class="st32">
		<g id="Group_1107">
			<g>
				<defs>
					<rect id="SVGID_00000091735184725603273410000010740066326858330260_" x="203" y="190.3" width="52.1" height="12.3"/>
				</defs>
				<clipPath id="SVGID_00000143591452921151272780000013771523690962978176_">
					<use xlink:href="#SVGID_00000091735184725603273410000010740066326858330260_"  style="overflow:visible;"/>
				</clipPath>
				<g id="Group_1106" style="clip-path:url(#SVGID_00000143591452921151272780000013771523690962978176_);">
					<path id="Path_960" class="st18" d="M253.7,198.4c0.8-0.4,1.3-1.1,1.4-2c0-2.5-6.3-4.7-16.1-5.7c-3.2-0.3-6.5-0.5-9.9-0.5
						s-6.8,0.2-9.9,0.5c-4.9,0.2-9.6,1.3-14.1,3.3c-1.3,0.8-2,1.6-2,2.4c0,0.8,0.7,1.6,2,2.4c4.5,1.9,9.2,3.1,14.1,3.3
						c3.2,0.3,6.5,0.5,9.9,0.5s6.8-0.2,9.9-0.5c4.9-0.2,9.6-1.4,14.1-3.3C253.3,198.6,253.5,198.5,253.7,198.4"/>
				</g>
			</g>
		</g>
	</g>
	<g id="Group_1111" class="st34">
		<g id="Group_1110">
			<g>
				<defs>
					<rect id="SVGID_00000141420368103388985300000014565156718629442743_" x="204.2" y="191" width="47" height="11.1"/>
				</defs>
				<clipPath id="SVGID_00000162336684538728261500000007169508405653928354_">
					<use xlink:href="#SVGID_00000141420368103388985300000014565156718629442743_"  style="overflow:visible;"/>
				</clipPath>
				<g id="Group_1109" style="clip-path:url(#SVGID_00000162336684538728261500000007169508405653928354_);">
					<path id="Path_961" class="st18" d="M250,198.3c0.7-0.4,1.1-1,1.2-1.8c0-2.2-5.7-4.3-14.6-5.1c-2.8-0.3-5.9-0.4-8.9-0.4
						s-6.1,0.1-9,0.4c-4.4,0.2-8.7,1.2-12.7,3c-1.2,0.7-1.8,1.4-1.8,2.1c0,0.7,0.6,1.5,1.8,2.1c4,1.8,8.3,2.8,12.7,3
						c2.8,0.3,5.9,0.4,9,0.4s6.1-0.1,9-0.4c4.4-0.2,8.7-1.2,12.7-3C249.6,198.6,249.8,198.5,250,198.3"/>
				</g>
			</g>
		</g>
	</g>
	<g id="Group_1114" class="st36">
		<g id="Group_1113">
			<g>
				<defs>
					<rect id="SVGID_00000179615831251279639920000007157565216534959507_" x="205.4" y="191.8" width="41.9" height="9.9"/>
				</defs>
				<clipPath id="SVGID_00000183959158280698283900000006815312815992334729_">
					<use xlink:href="#SVGID_00000179615831251279639920000007157565216534959507_"  style="overflow:visible;"/>
				</clipPath>
				<g id="Group_1112" style="clip-path:url(#SVGID_00000183959158280698283900000006815312815992334729_);">
					<path id="Path_962" class="st18" d="M246.2,198.3c0.6-0.3,1-0.9,1.1-1.6c0-2-5.1-3.8-13-4.6c-2.5-0.2-5.2-0.4-8-0.4
						c-2.8,0-5.4,0.1-8,0.4c-3.9,0.2-7.7,1.1-11.3,2.6c-1.1,0.6-1.6,1.2-1.6,1.9c0,0.7,0.5,1.3,1.6,1.9c3.6,1.6,7.4,2.5,11.3,2.6
						c2.5,0.2,5.2,0.4,8,0.4c2.8,0,5.4-0.1,8-0.4c3.9-0.2,7.7-1.1,11.3-2.6C245.9,198.5,246,198.4,246.2,198.3"/>
				</g>
			</g>
		</g>
	</g>
	<g id="Group_1117" class="st38">
		<g id="Group_1116">
			<g>
				<defs>
					<rect id="SVGID_00000046314688462747099960000011872598035729888131_" x="206.6" y="192.6" width="36.8" height="8.6"/>
				</defs>
				<clipPath id="SVGID_00000007408220759915693380000012603451538821927576_">
					<use xlink:href="#SVGID_00000046314688462747099960000011872598035729888131_"  style="overflow:visible;"/>
				</clipPath>
				<g id="Group_1115" style="clip-path:url(#SVGID_00000007408220759915693380000012603451538821927576_);">
					<path id="Path_963" class="st18" d="M242.4,198.3c0.5-0.3,0.9-0.8,1-1.4c0-1.8-4.5-3.3-11.4-4c-2.2-0.2-4.6-0.3-7-0.3
						c-2.4,0-4.8,0.1-7,0.3c-3.4,0.2-6.8,1-9.9,2.3c-0.9,0.5-1.4,1.1-1.4,1.7s0.5,1.1,1.4,1.7c3.1,1.4,6.5,2.2,9.9,2.3
						c2.2,0.2,4.6,0.3,7,0.3c2.4,0,4.8-0.1,7-0.3c3.4-0.2,6.8-1,9.9-2.3C242.1,198.5,242.3,198.4,242.4,198.3"/>
				</g>
			</g>
		</g>
	</g>
	<g id="Group_1120" class="st40">
		<g id="Group_1119">
			<g>
				<defs>
					<rect id="SVGID_00000138546364961625066880000015703484358170471087_" x="207.9" y="193.3" width="31.6" height="7.4"/>
				</defs>
				<clipPath id="SVGID_00000147190586228143937050000000516443260424147866_">
					<use xlink:href="#SVGID_00000138546364961625066880000015703484358170471087_"  style="overflow:visible;"/>
				</clipPath>
				<g id="Group_1118" style="clip-path:url(#SVGID_00000147190586228143937050000000516443260424147866_);">
					<path id="Path_964" class="st18" d="M238.7,198.2c0.5-0.2,0.8-0.7,0.8-1.2c0-1.5-3.8-2.9-9.8-3.4c-1.9-0.2-3.9-0.3-6-0.3
						c-2.1,0-4.1,0.1-6,0.3c-3,0.1-5.9,0.8-8.6,2c-0.8,0.5-1.2,0.9-1.2,1.4c0,0.5,0.4,1,1.2,1.4c2.7,1.2,5.6,1.9,8.6,2
						c1.9,0.2,3.9,0.3,6,0.3c2.1,0,4.1-0.1,6-0.3c3-0.1,5.9-0.8,8.6-2C238.4,198.4,238.6,198.3,238.7,198.2"/>
				</g>
			</g>
		</g>
	</g>
	<g id="Group_1123" class="st42">
		<g id="Group_1122">
			<g>
				<defs>
					<rect id="SVGID_00000154395560133040744460000016939274874093487246_" x="209.1" y="194.1" width="26.5" height="6.2"/>
				</defs>
				<clipPath id="SVGID_00000057844776338586001730000007723489510622125702_">
					<use xlink:href="#SVGID_00000154395560133040744460000016939274874093487246_"  style="overflow:visible;"/>
				</clipPath>
				<g id="Group_1121" style="clip-path:url(#SVGID_00000057844776338586001730000007723489510622125702_);">
					<path id="Path_965" class="st18" d="M234.9,198.2c0.4-0.2,0.6-0.6,0.7-1c0-1.3-3.2-2.4-8.2-2.9c-1.6-0.2-3.3-0.2-5-0.2
						s-3.4,0.1-5.1,0.2c-2.5,0.1-4.9,0.7-7.2,1.7c-0.7,0.4-1,0.8-1,1.2s0.4,0.8,1,1.2c2.3,1,4.7,1.6,7.2,1.7
						c1.6,0.2,3.3,0.2,5.1,0.2s3.4-0.1,5.1-0.2c2.5-0.1,4.9-0.7,7.2-1.7C234.7,198.4,234.8,198.3,234.9,198.2"/>
				</g>
			</g>
		</g>
	</g>
	<g id="Group_1126" class="st44">
		<g id="Group_1125">
			<g>
				<defs>
					<rect id="SVGID_00000013174992519141085360000001014481939616449920_" x="210.3" y="194.9" width="21.4" height="5"/>
				</defs>
				<clipPath id="SVGID_00000172442201764380382500000008622475712631241617_">
					<use xlink:href="#SVGID_00000013174992519141085360000001014481939616449920_"  style="overflow:visible;"/>
				</clipPath>
				<g id="Group_1124" style="clip-path:url(#SVGID_00000172442201764380382500000008622475712631241617_);">
					<path id="Path_966" class="st18" d="M231.2,198.2c0.3-0.2,0.5-0.5,0.6-0.8c0-1-2.6-1.9-6.6-2.3c-1.3-0.1-2.7-0.2-4.1-0.2
						c-1.4,0-2.8,0.1-4.1,0.2c-2,0.1-4,0.6-5.8,1.4c-0.6,0.3-0.8,0.6-0.8,1c0,0.3,0.3,0.7,0.8,1c1.8,0.8,3.8,1.3,5.8,1.3
						c1.3,0.1,2.7,0.2,4.1,0.2s2.8-0.1,4.1-0.2c2-0.1,4-0.6,5.8-1.3L231.2,198.2"/>
				</g>
			</g>
		</g>
	</g>
	<g id="Group_1129" class="st46">
		<g id="Group_1128">
			<g>
				<defs>
					<rect id="SVGID_00000028288267015138540690000006098721574834213269_" x="211.5" y="195.6" width="16.3" height="3.8"/>
				</defs>
				<clipPath id="SVGID_00000104691636527629455860000016524054936303849131_">
					<use xlink:href="#SVGID_00000028288267015138540690000006098721574834213269_"  style="overflow:visible;"/>
				</clipPath>
				<g id="Group_1127" style="clip-path:url(#SVGID_00000104691636527629455860000016524054936303849131_);">
					<path id="Path_967" class="st18" d="M227.4,198.2c0.2-0.1,0.4-0.4,0.4-0.6c0-0.8-2-1.5-5-1.8c-1-0.1-2-0.1-3.1-0.1
						s-2.1,0.1-3.1,0.1c-1.5,0.1-3,0.4-4.4,1c-0.4,0.2-0.6,0.5-0.6,0.7c0,0.3,0.2,0.5,0.6,0.7c1.4,0.6,2.9,1,4.4,1
						c1,0.1,2.1,0.1,3.1,0.1c1.1,0,2.1,0,3.1-0.1c1.5-0.1,3-0.4,4.4-1C227.3,198.2,227.3,198.2,227.4,198.2"/>
				</g>
			</g>
		</g>
	</g>
	<g id="Group_1132" class="st48">
		<g id="Group_1131">
			<g>
				<defs>
					<rect id="SVGID_00000019664521598395392240000010792049106629126828_" x="243.8" y="154" width="207.2" height="117.7"/>
				</defs>
				<clipPath id="SVGID_00000152244892655871230680000013940590683114085810_">
					<use xlink:href="#SVGID_00000019664521598395392240000010792049106629126828_"  style="overflow:visible;"/>
				</clipPath>
				<g id="Group_1130" style="clip-path:url(#SVGID_00000152244892655871230680000013940590683114085810_);">
					<path id="Path_968" class="st18" d="M369.4,271.5l-124.7-70.4c-0.8-0.3-1.2-1.1-0.9-1.8c0.1-0.4,0.5-0.8,0.9-0.9l75.8-43.8
						c1.5-0.7,3.2-0.7,4.7,0l5,2.9l3,1.7L442,220.3l2.6,1.5l5.4,3.1c0.8,0.3,1.2,1.1,0.9,1.8c-0.1,0.4-0.5,0.8-0.9,0.9l-73.8,42.6
						C374.2,271.4,371.8,271.8,369.4,271.5"/>
				</g>
			</g>
		</g>
	</g>
	<g id="Group_1135" class="st48">
		<g id="Group_1134">
			<g>
				<defs>
					<rect id="SVGID_00000088834033972265964370000015443925559119012747_" x="173.4" y="174.8" width="238.1" height="134.8"/>
				</defs>
				<clipPath id="SVGID_00000117663325275196493230000015954792631254234301_">
					<use xlink:href="#SVGID_00000088834033972265964370000015443925559119012747_"  style="overflow:visible;"/>
				</clipPath>
				<g id="Group_1133" style="clip-path:url(#SVGID_00000117663325275196493230000015954792631254234301_);">
					<path id="Path_969" class="st18" d="M274.3,309.3L174.7,254c-1-0.3-1.6-1.5-1.2-2.5c0.2-0.6,0.6-1,1.2-1.2l129.5-74.8
						c2-1,4.4-1,6.4,0l6.8,3.9l4.1,2.3l77.8,42.7l3.5,2l7.4,4.2c1,0.4,1.6,1.5,1.2,2.5c-0.2,0.6-0.6,1-1.2,1.2l-126.7,73.1
						C281.8,308.7,276.1,310.3,274.3,309.3"/>
				</g>
			</g>
		</g>
	</g>
	<g id="Group_1138" class="st51">
		<g id="Group_1137">
			<g>
				<defs>
					<rect id="SVGID_00000101089148756736981340000009982604323743004807_" x="177.2" y="176.4" width="231" height="130.9"/>
				</defs>
				<clipPath id="SVGID_00000171696805889952463820000017615420656346201004_">
					<use xlink:href="#SVGID_00000101089148756736981340000009982604323743004807_"  style="overflow:visible;"/>
				</clipPath>
				<g id="Group_1136" style="clip-path:url(#SVGID_00000171696805889952463820000017615420656346201004_);">
					<path id="Path_970" class="st18" d="M274.5,307c-32-17.8-64-35.6-96-53.4c-1-0.3-1.5-1.4-1.2-2.4c0.2-0.6,0.6-1,1.2-1.2
						c42-24.3,84.1-48.5,126.1-72.8c2-1,4.3-1,6.3,0c2.3,1.3,4.5,2.6,6.7,3.9c1.3,0.8,2.7,1.5,4,2.3c24.8,13.7,49.6,27.3,74.5,41
						l3.5,2l7.3,4.2c1,0.3,1.5,1.4,1.2,2.4c-0.2,0.6-0.6,1-1.2,1.2c-41.2,23.8-82.3,47.5-123.5,71.3
						C281.7,306.5,276.2,307.9,274.5,307"/>
				</g>
			</g>
		</g>
	</g>
	<g id="Group_1141" class="st53">
		<g id="Group_1140">
			<g>
				<defs>
					<rect id="SVGID_00000057865597327710239860000017496023935218883748_" x="180.9" y="177.9" width="223.9" height="127"/>
				</defs>
				<clipPath id="SVGID_00000136400840438774654920000013858653944833837477_">
					<use xlink:href="#SVGID_00000057865597327710239860000017496023935218883748_"  style="overflow:visible;"/>
				</clipPath>
				<g id="Group_1139" style="clip-path:url(#SVGID_00000136400840438774654920000013858653944833837477_);">
					<path id="Path_971" class="st18" d="M274.6,304.6l-92.4-51.5c-1-0.3-1.5-1.4-1.2-2.4c0.2-0.6,0.6-1,1.2-1.2l122.7-70.8
						c2-1,4.3-1,6.2,0l6.7,3.9c1.3,0.8,2.6,1.5,4,2.3c23.7,13.1,47.4,26.2,71.1,39.2c1.1,0.7,2.3,1.3,3.5,2c2.4,1.4,4.8,2.8,7.2,4.1
						c1,0.3,1.5,1.4,1.2,2.4c-0.2,0.6-0.6,1-1.2,1.2l-120.3,69.5C281.5,304.2,276.3,305.5,274.6,304.6"/>
				</g>
			</g>
		</g>
	</g>
	<g id="Group_1144" class="st36">
		<g id="Group_1143">
			<g>
				<defs>
					<rect id="SVGID_00000175287781128867350790000002887542785814292888_" x="184.7" y="179.5" width="216.8" height="123.1"/>
				</defs>
				<clipPath id="SVGID_00000082368310694725700730000004325688952572340652_">
					<use xlink:href="#SVGID_00000175287781128867350790000002887542785814292888_"  style="overflow:visible;"/>
				</clipPath>
				<g id="Group_1142" style="clip-path:url(#SVGID_00000082368310694725700730000004325688952572340652_);">
					<path id="Path_972" class="st18" d="M274.7,302.2l-88.8-49.6c-1-0.3-1.5-1.4-1.2-2.4c0.2-0.6,0.6-1,1.2-1.2l119.3-68.9
						c1.9-1,4.2-1,6.1,0c2.2,1.3,4.4,2.5,6.6,3.8c1.3,0.8,2.6,1.5,3.9,2.3c22.6,12.5,45.2,25,67.8,37.5l3.4,2
						c2.4,1.4,4.7,2.7,7.1,4.1c1,0.3,1.5,1.4,1.2,2.4c-0.2,0.5-0.6,1-1.2,1.2c-39,22.5-78.1,45.1-117.1,67.6
						C281.4,301.9,276.4,303.2,274.7,302.2"/>
				</g>
			</g>
		</g>
	</g>
	<g id="Group_1147" class="st56">
		<g id="Group_1146">
			<g>
				<defs>
					<rect id="SVGID_00000083800278459249282190000000033496259247760791_" x="188.4" y="181" width="209.6" height="119.2"/>
				</defs>
				<clipPath id="SVGID_00000051382171318763789770000008582743017898450063_">
					<use xlink:href="#SVGID_00000083800278459249282190000000033496259247760791_"  style="overflow:visible;"/>
				</clipPath>
				<g id="Group_1145" style="clip-path:url(#SVGID_00000051382171318763789770000008582743017898450063_);">
					<path id="Path_973" class="st18" d="M274.8,299.8c-28.4-15.9-56.8-31.8-85.2-47.7c-1-0.3-1.5-1.4-1.2-2.3
						c0.2-0.6,0.6-1,1.2-1.2l115.9-66.9c1.9-1,4.2-1,6.1,0c2.2,1.2,4.3,2.5,6.5,3.7c1.3,0.7,2.6,1.5,3.9,2.2l64.5,35.7
						c1.1,0.6,2.2,1.3,3.4,1.9c2.3,1.3,4.6,2.7,7,4c1,0.3,1.5,1.4,1.2,2.3c-0.2,0.5-0.6,1-1.2,1.2l-114,65.8
						C281.2,299.7,276.5,300.8,274.8,299.8"/>
				</g>
			</g>
		</g>
	</g>
	<g id="Group_1150" class="st58">
		<g id="Group_1149">
			<g>
				<defs>
					<rect id="SVGID_00000029748214058801669150000016251074467585243542_" x="192.2" y="182.6" width="202.5" height="115.2"/>
				</defs>
				<clipPath id="SVGID_00000109010678592798772940000011070320755484383161_">
					<use xlink:href="#SVGID_00000029748214058801669150000016251074467585243542_"  style="overflow:visible;"/>
				</clipPath>
				<g id="Group_1148" style="clip-path:url(#SVGID_00000109010678592798772940000011070320755484383161_);">
					<path id="Path_974" class="st18" d="M275,297.5l-81.6-45.8c-1-0.4-1.4-1.4-1.1-2.4c0.2-0.5,0.6-0.9,1.1-1.1
						c37.5-21.7,75-43.3,112.5-65c1.9-0.9,4.1-0.9,6,0c2.1,1.2,4.3,2.5,6.4,3.7c1.3,0.7,2.5,1.5,3.8,2.2l61.2,34l3.3,1.9
						c2.3,1.3,4.6,2.6,6.9,4c1,0.3,1.5,1.4,1.1,2.3c-0.2,0.5-0.6,0.9-1.1,1.1c-36.9,21.3-73.9,42.6-110.8,64
						C280.3,297.7,277.6,298,275,297.5"/>
				</g>
			</g>
		</g>
	</g>
	<g id="Group_1153" class="st60">
		<g id="Group_1152">
			<g>
				<defs>
					<rect id="SVGID_00000078040410721702126160000000986908574529478565_" x="195.9" y="184.1" width="195.4" height="111.3"/>
				</defs>
				<clipPath id="SVGID_00000039112284736573318580000007964005285540690111_">
					<use xlink:href="#SVGID_00000078040410721702126160000000986908574529478565_"  style="overflow:visible;"/>
				</clipPath>
				<g id="Group_1151" style="clip-path:url(#SVGID_00000039112284736573318580000007964005285540690111_);">
					<path id="Path_975" class="st18" d="M275.1,295.1c-26-14.6-52-29.2-78-43.8c-0.9-0.3-1.4-1.3-1.1-2.3c0.2-0.5,0.6-0.9,1.1-1.1
						c36.4-21,72.8-42,109.1-63c1.9-0.9,4-0.9,5.9,0c2.1,1.2,4.2,2.4,6.3,3.6c1.2,0.7,2.5,1.4,3.8,2.2
						c19.3,10.7,38.5,21.5,57.8,32.2l3.3,1.9l6.8,3.9c0.9,0.3,1.4,1.3,1.1,2.3c-0.2,0.5-0.6,0.9-1.1,1.1l-107.6,62.1
						C280.2,295.4,277.6,295.7,275.1,295.1"/>
				</g>
			</g>
		</g>
	</g>
	<g id="Group_1156" class="st62">
		<g id="Group_1155">
			<g>
				<defs>
					<rect id="SVGID_00000106865106469281042370000006319776457746410384_" x="199.7" y="185.7" width="188.3" height="107.4"/>
				</defs>
				<clipPath id="SVGID_00000146461778509607379590000009587417341672524430_">
					<use xlink:href="#SVGID_00000106865106469281042370000006319776457746410384_"  style="overflow:visible;"/>
				</clipPath>
				<g id="Group_1154" style="clip-path:url(#SVGID_00000146461778509607379590000009587417341672524430_);">
					<path id="Path_976" class="st18" d="M275.2,292.7l-74.4-41.9c-0.9-0.3-1.4-1.3-1.1-2.3c0.2-0.5,0.6-0.9,1.1-1.1
						c35.2-20.4,70.5-40.7,105.7-61.1c1.8-0.9,4-0.9,5.8,0c2.1,1.2,4.1,2.4,6.2,3.6l3.7,2.1c18.2,10.2,36.3,20.3,54.5,30.5
						c1.1,0.6,2.1,1.2,3.2,1.9l6.7,3.9c0.9,0.3,1.4,1.3,1.1,2.3c-0.2,0.5-0.6,0.9-1.1,1.1c-34.8,20.1-69.6,40.2-104.4,60.3
						C280.2,293.1,277.6,293.3,275.2,292.7"/>
				</g>
			</g>
		</g>
	</g>
	<g id="Group_1159" class="st64">
		<g id="Group_1158">
			<g>
				<defs>
					<rect id="SVGID_00000124840730977711636770000001408609674902027163_" x="203.4" y="187.2" width="181.2" height="103.5"/>
				</defs>
				<clipPath id="SVGID_00000109739143500054213340000008564516947910750907_">
					<use xlink:href="#SVGID_00000124840730977711636770000001408609674902027163_"  style="overflow:visible;"/>
				</clipPath>
				<g id="Group_1157" style="clip-path:url(#SVGID_00000109739143500054213340000008564516947910750907_);">
					<path id="Path_977" class="st18" d="M275.4,290.3c-23.6-13.3-47.2-26.7-70.8-40c-0.9-0.3-1.4-1.3-1.1-2.2
						c0.2-0.5,0.6-0.9,1.1-1.1c34.1-19.7,68.2-39.4,102.4-59.1c1.8-0.9,3.9-0.9,5.7,0l6.1,3.5l3.7,2.1c17.1,9.6,34.1,19.1,51.2,28.7
						l3.2,1.8c2.2,1.3,4.4,2.5,6.6,3.8c0.9,0.3,1.4,1.3,1.1,2.2c-0.2,0.5-0.6,0.9-1.1,1.1c-33.8,19.5-67.5,39-101.3,58.5
						C280.1,290.8,277.6,291,275.4,290.3"/>
				</g>
			</g>
		</g>
	</g>
	<g id="Group_1162" class="st66">
		<g id="Group_1161">
			<g>
				<defs>
					<rect id="SVGID_00000016789888693120496160000017745522800930121651_" x="207.2" y="188.8" width="174.1" height="99.6"/>
				</defs>
				<clipPath id="SVGID_00000158746573348869872650000012282967645826383238_">
					<use xlink:href="#SVGID_00000016789888693120496160000017745522800930121651_"  style="overflow:visible;"/>
				</clipPath>
				<g id="Group_1160" style="clip-path:url(#SVGID_00000158746573348869872650000012282967645826383238_);">
					<path id="Path_978" class="st18" d="M275.5,287.9c-22.4-12.7-44.8-25.4-67.1-38.1c-0.9-0.3-1.4-1.3-1.1-2.2
						c0.2-0.5,0.6-0.9,1.1-1.1l99-57.1c1.8-0.9,3.9-0.9,5.6,0c2,1.2,4,2.3,6,3.5c1.2,0.7,2.4,1.4,3.6,2.1l47.9,27
						c1.1,0.6,2.1,1.2,3.2,1.8c2.2,1.2,4.3,2.5,6.5,3.8c0.9,0.3,1.4,1.3,1.1,2.2c-0.2,0.5-0.6,0.9-1.1,1.1
						c-32.7,18.9-65.4,37.8-98.1,56.6C280,288.5,277.6,288.7,275.5,287.9"/>
				</g>
			</g>
		</g>
	</g>
	<g id="Group_1165" class="st68">
		<g id="Group_1164">
			<g>
				<defs>
					<rect id="SVGID_00000155135597553340033480000011433446806701169807_" x="210.9" y="190.3" width="167" height="95.7"/>
				</defs>
				<clipPath id="SVGID_00000147911745922171603430000000558936129953424034_">
					<use xlink:href="#SVGID_00000155135597553340033480000011433446806701169807_"  style="overflow:visible;"/>
				</clipPath>
				<g id="Group_1163" style="clip-path:url(#SVGID_00000147911745922171603430000000558936129953424034_);">
					<path id="Path_979" class="st18" d="M275.6,285.6c-21.2-12.1-42.4-24.1-63.5-36.2c-0.9-0.3-1.4-1.3-1.1-2.2
						c0.2-0.5,0.6-0.9,1.1-1.1c31.9-18.4,63.7-36.8,95.6-55.2c1.8-0.9,3.8-0.9,5.6,0l6,3.4c1.2,0.7,2.4,1.4,3.5,2
						c14.8,8.4,29.7,16.8,44.5,25.2l3.1,1.8c2.1,1.2,4.3,2.5,6.4,3.7c0.9,0.3,1.4,1.3,1.1,2.2c-0.2,0.5-0.6,0.9-1.1,1.1l-94.9,54.8
						C279.9,286.2,277.6,286.3,275.6,285.6"/>
				</g>
			</g>
		</g>
	</g>
	<g id="Group_1168" class="st70">
		<g id="Group_1167">
			<g>
				<defs>
					<rect id="SVGID_00000105405374192213030190000017418277838573126050_" x="214.7" y="191.9" width="159.9" height="91.8"/>
				</defs>
				<clipPath id="SVGID_00000017516362516316993130000016892956203425606320_">
					<use xlink:href="#SVGID_00000105405374192213030190000017418277838573126050_"  style="overflow:visible;"/>
				</clipPath>
				<g id="Group_1166" style="clip-path:url(#SVGID_00000017516362516316993130000016892956203425606320_);">
					<path id="Path_980" class="st18" d="M275.7,283.2l-59.9-34.3c-0.9-0.3-1.3-1.3-1-2.1c0.2-0.5,0.6-0.9,1-1
						c30.7-17.7,61.5-35.5,92.2-53.2c1.7-0.9,3.8-0.9,5.5,0c2,1.1,3.9,2.3,5.9,3.4c1.2,0.7,2.3,1.4,3.5,2l41.2,23.5
						c1,0.6,2,1.2,3.1,1.8c2.1,1.2,4.2,2.4,6.3,3.6c0.9,0.3,1.3,1.3,1,2.1c-0.2,0.5-0.5,0.9-1,1c-30.6,17.7-61.2,35.3-91.7,53
						C279.8,283.9,277.7,284,275.7,283.2"/>
				</g>
			</g>
		</g>
	</g>
	<g id="Group_1171" class="st72">
		<g id="Group_1170">
			<g>
				<defs>
					<rect id="SVGID_00000178903609660941479290000015914230788178087852_" x="218.4" y="193.4" width="152.7" height="88"/>
				</defs>
				<clipPath id="SVGID_00000014633603836378058890000010831586462221638547_">
					<use xlink:href="#SVGID_00000178903609660941479290000015914230788178087852_"  style="overflow:visible;"/>
				</clipPath>
				<g id="Group_1169" style="clip-path:url(#SVGID_00000014633603836378058890000010831586462221638547_);">
					<path id="Path_981" class="st18" d="M275.9,280.8l-56.3-32.4c-0.9-0.3-1.3-1.2-1-2.1c0.2-0.5,0.5-0.9,1-1
						c29.6-17.1,59.2-34.2,88.8-51.3c1.7-0.9,3.7-0.9,5.4,0c1.9,1.1,3.9,2.2,5.8,3.3c1.1,0.7,2.3,1.3,3.4,2
						c12.6,7.2,25.3,14.5,37.9,21.7c1,0.6,2,1.2,3,1.7c2.1,1.2,4.2,2.4,6.2,3.6c0.9,0.3,1.3,1.2,1,2.1c-0.2,0.5-0.5,0.8-1,1
						c-29.5,17.1-59.1,34.1-88.6,51.1C279.7,281.6,277.7,281.6,275.9,280.8"/>
				</g>
			</g>
		</g>
	</g>
	<g id="Group_1174" class="st74">
		<g id="Group_1173">
			<g>
				<defs>
					<rect id="SVGID_00000031178149825354160200000001173383354168572095_" x="222.2" y="195" width="145.6" height="84.1"/>
				</defs>
				<clipPath id="SVGID_00000114767746631760543770000015296110230855261848_">
					<use xlink:href="#SVGID_00000031178149825354160200000001173383354168572095_"  style="overflow:visible;"/>
				</clipPath>
				<g id="Group_1172" style="clip-path:url(#SVGID_00000114767746631760543770000015296110230855261848_);">
					<path id="Path_982" class="st18" d="M276,278.4L223.3,248c-0.8-0.3-1.3-1.2-1-2.1c0.2-0.5,0.5-0.8,1-1l85.4-49.3
						c1.7-0.8,3.6-0.8,5.3,0l5.7,3.3l3.4,2l34.6,19.9l3,1.7l6.1,3.5c0.8,0.3,1.3,1.2,1,2.1c-0.2,0.5-0.5,0.8-1,1l-85.4,49.3
						C279.6,279.3,277.7,279.3,276,278.4"/>
				</g>
			</g>
		</g>
	</g>
	<g id="Group_1177" class="st48">
		<g id="Group_1176">
			<g>
				<defs>
					<rect id="SVGID_00000127011570141067313720000000199281035151489691_" x="239" y="261.3" width="144.3" height="81.5"/>
				</defs>
				<clipPath id="SVGID_00000150798387916205941370000014887102554505713833_">
					<use xlink:href="#SVGID_00000127011570141067313720000000199281035151489691_"  style="overflow:visible;"/>
				</clipPath>
				<g id="Group_1175" style="clip-path:url(#SVGID_00000150798387916205941370000014887102554505713833_);">
					<path id="Path_983" class="st18" d="M287.7,342.5l-47.8-26.1c-0.7-0.2-1.1-1-0.9-1.7c0.1-0.4,0.5-0.7,0.9-0.9l90.2-52.1
						c1.4-0.7,3-0.7,4.4,0l4.8,2.7l2.8,1.6l32.6,17.3l2.5,1.4l5.1,3c0.7,0.2,1.1,1,0.8,1.7c-0.1,0.4-0.4,0.7-0.8,0.8l-88.2,50.9
						C292.2,342.4,289.9,342.8,287.7,342.5"/>
				</g>
			</g>
		</g>
	</g>
	<path id="Path_984" class="st77" d="M279.3,189v12.9l-9.6-5.6v-12.9L279.3,189z"/>
	<path id="Path_985" class="st78" d="M280.7,189v12.9c0,0.8-0.6,1.4-1.4,1.4c-0.3,0-0.6-0.1-0.8-0.2l-9.6-5.5
		c-0.5-0.3-0.7-0.8-0.7-1.3v-12.8c0-0.8,0.6-1.4,1.4-1.4c0,0,0,0,0,0c0.2,0,0.5,0.1,0.7,0.2l9.6,5.6
		C280.4,188.1,280.7,188.6,280.7,189 M277.9,199.5v-9.7l-6.9-4v9.7L277.9,199.5z"/>
	<path id="Path_986" class="st77" d="M362.9,237.3v12.9l-8.1-4.7v-12.9L362.9,237.3z"/>
	<path id="Path_987" class="st78" d="M364.3,237.3v12.9c0,0.8-0.6,1.4-1.4,1.4c-0.3,0-0.5-0.1-0.8-0.2l-8-4.6
		c-0.4-0.2-0.7-0.7-0.7-1.2v-12.9c0-0.8,0.6-1.4,1.4-1.4c0,0,0,0,0,0c0.3,0,0.6,0.1,0.8,0.2l8,4.6
		C364,236.3,364.3,236.8,364.3,237.3L364.3,237.3z M361.5,247.8v-9.7l-5.3-3.1v9.7L361.5,247.8z"/>
	<path id="Path_988" class="st77" d="M354.8,232.6v12.9L284,286.4v-12.9L354.8,232.6z"/>
	<path id="Path_989" class="st78" d="M356.2,232.6v12.9c0,0.5-0.3,1-0.8,1.2l-70.7,40.8c-0.7,0.4-1.5,0.2-1.9-0.5
		c-0.1-0.2-0.2-0.5-0.2-0.7v-12.9c0-0.5,0.3-1,0.8-1.3l70.7-40.8c0.7-0.4,1.5-0.2,1.9,0.5c0,0,0,0,0,0
		C356.1,232.1,356.2,232.4,356.2,232.6L356.2,232.6z M353.4,244.7V235l-68,39.3v9.7L353.4,244.7z"/>
	<path id="Path_990" class="st77" d="M387.5,223.1v12.9l-24.7,14.2v-12.9L387.5,223.1z"/>
	<path id="Path_991" class="st78" d="M388.9,223.1v12.9c0,0.5-0.3,1-0.8,1.2l-24.6,14.2c-0.7,0.4-1.5,0.2-1.9-0.5
		c-0.1-0.2-0.2-0.5-0.2-0.7v-12.9c0-0.5,0.3-1,0.8-1.3l24.6-14.2c0.7-0.4,1.5-0.1,1.9,0.5C388.9,222.6,388.9,222.8,388.9,223.1
		 M386.1,235.1v-9.7l-21.9,12.6v9.7L386.1,235.1z"/>
	<path id="Path_992" class="st19" d="M198.9,224.3l9.6,5.6l70.8-40.9l-9.6-5.6l24.7-14.2l93.2,53.8l-24.7,14.2l-8.1-4.7L284,273.5
		l8.1,4.7l-24.7,14.2l-93.2-53.8L198.9,224.3z"/>
	<path id="Path_993" class="st78" d="M199.6,223.1l8.9,5.2l68-39.3l-7.5-4.3c-0.7-0.4-0.9-1.2-0.5-1.9c0.1-0.2,0.3-0.4,0.5-0.5
		l24.7-14.2c0.5-0.3,1-0.2,1.5,0l93.1,53.8c0.7,0.4,0.9,1.2,0.5,1.9c0,0,0,0,0,0c-0.1,0.2-0.3,0.4-0.5,0.5l-24.7,14.2
		c-0.5,0.3-1,0.2-1.5-0.1l-7.3-4.2l-68,39.2l6,3.5c0.7,0.4,0.9,1.2,0.5,1.9c0,0,0,0,0,0c-0.1,0.2-0.3,0.4-0.5,0.5l-24.6,14.2
		c-0.5,0.3-1,0.2-1.5-0.1l-93.1-53.8c-0.7-0.4-0.9-1.2-0.5-1.9c0.1-0.2,0.3-0.4,0.5-0.5l24.7-14.2
		C198.6,222.9,199.1,222.9,199.6,223.1L199.6,223.1z M207.8,231.1l-8.9-5.2L177,238.6l90.4,52.2l21.9-12.6l-6-3.5l0,0
		c-0.7-0.4-0.9-1.2-0.5-1.9c0.1-0.2,0.3-0.4,0.5-0.5l70.7-40.8c0.4-0.3,1-0.3,1.4,0l7.4,4.3l21.9-12.6l-90.4-52.2l-21.9,12.6
		l7.5,4.3c0.2,0.1,0.5,0.3,0.6,0.5c0.4,0.7,0.2,1.5-0.5,1.9c0,0,0,0,0,0l-70.8,40.8C208.8,231.4,208.3,231.4,207.8,231.1"/>
	<path id="Path_994" class="st77" d="M278.7,268l66-38.1l-60.6-35l-66,38.1L278.7,268z"/>
	<path id="Path_995" class="st78" d="M278.7,266.4l63.2-36.5l-57.8-33.4L220.9,233L278.7,266.4z M345.4,231.1l-66,38.1
		c-0.4,0.3-1,0.3-1.4,0l-60.6-35c-0.2-0.1-0.4-0.3-0.5-0.5c-0.4-0.7-0.2-1.5,0.5-1.9l66-38.1c0.4-0.2,1-0.2,1.4,0l60.5,35
		c0.2,0.1,0.4,0.3,0.6,0.5C346.3,229.8,346,230.7,345.4,231.1"/>
	<path id="Path_996" class="st79" d="M283.4,249.9l17.6-29.9l-51.9,10.2L283.4,249.9z"/>
	<path id="Path_997" class="st78" d="M282.9,248l15.4-26.1l-45.2,8.9L282.9,248z M302.3,220.6l-17.6,29.9l0,0.1
		c-0.4,0.7-1.2,0.9-1.9,0.5c0,0,0,0,0,0l-34.2-19.7c-0.7-0.3-1-1.2-0.6-1.9c0.2-0.4,0.6-0.7,1-0.7l51.9-10.2l0,0
		c0.7-0.1,1.5,0.3,1.6,1.1C302.5,220,302.4,220.3,302.3,220.6"/>
	<path id="Path_998" class="st77" d="M301.4,180.3c-1.8-0.9-3.9-0.9-5.6,0l-7.1,4.1c-0.9,0.3-1.4,1.3-1.1,2.2
		c0.2,0.5,0.6,0.9,1.1,1.1l5.6,3.2c1.8,0.9,3.9,0.9,5.6,0c2.4-1.4,4.7-2.7,7.1-4.1c0.9-0.3,1.4-1.3,1.1-2.2
		c-0.2-0.5-0.6-0.9-1.1-1.1L301.4,180.3z"/>
	<path id="Path_999" class="st78" d="M300.7,181.5c-1.3-0.6-2.9-0.6-4.2,0l-7.1,4.1c-0.2,0.1-0.3,0.2-0.5,0.4v0l0,0l0,0
		c0.1,0.2,0.3,0.3,0.5,0.4c0,0,0.1,0,0.1,0.1l5.5,3.2c1.3,0.6,2.9,0.6,4.2,0l4.5-2.6l2.7-1.5l0,0c0.2-0.1,0.3-0.2,0.5-0.4l0,0l0,0v0
		c-0.1-0.2-0.3-0.3-0.5-0.4l-0.1,0L300.7,181.5L300.7,181.5z M298.6,178.2c1.2,0,2.4,0.3,3.5,0.9l5.6,3.2l0.1,0.1
		c0.6,0.3,1,0.8,1.4,1.4c0.3,0.4,0.4,0.9,0.4,1.4l0,0c0,0.5-0.1,1-0.4,1.4c-0.4,0.6-0.9,1.1-1.5,1.4l0,0l-2.7,1.5
		c-0.4,0.2,0.7-0.4-4.4,2.6c-2.2,1.1-4.8,1.1-7,0l-5.6-3.2c-0.6-0.3-1.1-0.8-1.5-1.4c-0.3-0.4-0.4-0.9-0.4-1.4l0,0
		c0-0.5,0.1-1,0.4-1.4c0.4-0.6,0.9-1.1,1.5-1.4l0,0l7.1-4.1C296.2,178.5,297.4,178.2,298.6,178.2"/>
	<path id="Path_1000" class="st77" d="M365.1,217.1c-1.8-0.9-3.9-0.9-5.6,0l-7.1,4.1c-0.9,0.3-1.4,1.3-1.1,2.2
		c0.2,0.5,0.6,0.9,1.1,1.1l5.6,3.3c1.8,0.9,3.9,0.9,5.6,0l7.1-4.1c0.9-0.3,1.4-1.3,1.1-2.2c-0.2-0.5-0.6-0.9-1.1-1.1L365.1,217.1z"
		/>
	<path id="Path_1001" class="st78" d="M364.4,218.3c-1.3-0.6-2.9-0.6-4.2,0l-0.1,0l-7,4.1c-0.2,0.1-0.3,0.2-0.5,0.4l0,0l0,0
		c0.1,0.2,0.3,0.3,0.4,0.4l0.1,0l5.5,3.2l0,0c0.7,0.3,1.4,0.5,2.1,0.5c0.7,0,1.5-0.1,2.1-0.5l0.1,0l5.6-3.3l0.1,0l1.4-0.8
		c0.2-0.1,0.3-0.2,0.4-0.4v0v0c-0.1-0.2-0.3-0.3-0.5-0.4l-0.1,0L364.4,218.3z M362.3,215c1.2,0,2.4,0.3,3.5,0.9l5.5,3.2
		c0.1,0,0.1,0.1,0.2,0.1c0.6,0.3,1,0.8,1.3,1.3l0,0c0.5,0.9,0.5,2,0,2.8c-0.4,0.6-0.9,1.1-1.5,1.4l-1.3,0.8l-0.1,0
		c-0.5,0.3,1.2-0.7-5.6,3.3l-0.1,0c-2.2,1.1-4.8,1.1-7,0l-5.5-3.2c-0.1,0-0.2-0.1-0.3-0.2c-0.5-0.3-1-0.8-1.3-1.3
		c-0.5-0.9-0.5-2,0-2.9c0.4-0.6,0.9-1.1,1.5-1.4l0,0l7.1-4.1l0.1,0C359.9,215.3,361.1,215,362.3,215"/>
	<path id="Path_1002" class="st77" d="M322.7,192.6c-1.8-0.9-3.9-0.9-5.6,0l-7.1,4.1c-0.9,0.3-1.4,1.3-1.1,2.2
		c0.2,0.5,0.6,0.9,1.1,1.1l5.6,3.3c1.8,0.9,3.9,0.9,5.6,0c2.4-1.4,4.7-2.7,7.1-4.1c0.9-0.3,1.4-1.3,1.1-2.2
		c-0.2-0.5-0.6-0.9-1.1-1.1C326.4,194.7,324.6,193.6,322.7,192.6"/>
	<path id="Path_1003" class="st78" d="M322,193.8c-0.7-0.3-1.4-0.5-2.1-0.5c-0.7,0-1.5,0.1-2.1,0.5l0,0l-7.1,4.1
		c-0.2,0.1-0.3,0.2-0.5,0.4l0,0l0,0c0.1,0.2,0.3,0.3,0.5,0.4l0.1,0l5.5,3.2l0.1,0c1.3,0.6,2.9,0.6,4.2,0l0,0l7.1-4.1l0.1,0
		c0.2-0.1,0.3-0.2,0.4-0.4c0,0,0,0,0,0c0,0,0,0,0,0c-0.1-0.2-0.3-0.3-0.5-0.4l-0.1,0l-0.9-0.5C322.2,193.9,325.5,195.8,322,193.8
		 M319.9,190.5c1.2,0,2.4,0.3,3.5,0.9c6.6,3.8,3.3,1.9,4.6,2.7l0.9,0.5l0.1,0c0.6,0.3,1.1,0.8,1.5,1.4c0.5,0.9,0.5,2,0,2.8
		c-0.3,0.6-0.8,1-1.4,1.3l-0.1,0.1l-7.1,4.1l0,0c-2.2,1.1-4.7,1.1-6.9,0.1l-0.1,0l-5.6-3.2l0,0c-0.6-0.3-1.1-0.8-1.5-1.4
		c-0.5-0.9-0.5-2,0-2.8c0.4-0.6,0.9-1.1,1.5-1.4l7.1-4.1l0,0C317.4,190.8,318.6,190.5,319.9,190.5"/>
	<path id="Path_1004" class="st77" d="M343.9,204.8c-1.8-0.9-3.9-0.9-5.6,0l-7.1,4.1c-0.9,0.3-1.4,1.3-1.1,2.2
		c0.2,0.5,0.6,0.9,1.1,1.1l0,0l5.6,3.3c1.8,0.9,3.9,0.9,5.6,0c2.4-1.4,4.7-2.7,7.1-4.1c0.9-0.3,1.4-1.3,1.1-2.2
		c-0.2-0.5-0.6-0.9-1.1-1.1C347.7,207,345.8,205.9,343.9,204.8"/>
	<path id="Path_1005" class="st78" d="M343.2,206L343.2,206l0.4,0.2L343.2,206z M343.2,206c-1.3-0.6-2.9-0.6-4.2,0l-7.1,4.1
		c-0.2,0.1-0.3,0.2-0.5,0.4l0,0c0,0,0,0,0,0c0,0,0,0,0,0c0.1,0.2,0.3,0.3,0.4,0.4l0.1,0l5.5,3.2c0.7,0.3,1.4,0.5,2.1,0.5
		c0.7,0,1.5-0.1,2.1-0.5c1.5-0.9,1.1-0.6,3.1-1.8l4-2.3l0.1,0c0.2-0.1,0.3-0.2,0.4-0.3l0,0l0,0l0,0c-0.1-0.2-0.3-0.3-0.5-0.4l-0.1,0
		L343.2,206C342.7,205.7,342.9,205.8,343.2,206 M341.1,202.7c-1.2,0-2.4,0.3-3.5,0.9l0,0l-7.1,4.1c-0.6,0.3-1.1,0.8-1.5,1.4l0,0
		c-0.5,0.9-0.5,2,0,2.8l0,0l0,0c0.3,0.5,0.8,1,1.3,1.3c0.1,0.1,0.2,0.1,0.3,0.2l5.5,3.2c1.1,0.6,2.3,0.9,3.5,0.9
		c1.2,0,2.4-0.3,3.5-0.9c4.2-2.5,3.5-2,3.8-2.2c2.9-1.7-1.6,0.9,3.3-1.9l0.1-0.1c0.6-0.3,1-0.8,1.4-1.3c0.5-0.9,0.5-2,0-2.8
		c-0.4-0.6-0.9-1.1-1.5-1.4l-0.1,0c-6.1-3.5-0.8-0.5-5.1-3l-0.4-0.2C343.5,203,342.3,202.7,341.1,202.7"/>
	<path id="Path_1006" class="st19" d="M267.4,292.4v12.9l-93.2-53.8v-12.9L267.4,292.4z"/>
	<path id="Path_1007" class="st78" d="M268.8,292.4v12.9c0,0.8-0.6,1.4-1.4,1.4c0,0,0,0,0,0c-0.3,0-0.6-0.1-0.8-0.2l-93.1-53.8
		c-0.4-0.2-0.7-0.7-0.7-1.2v-12.9c0-0.8,0.6-1.4,1.4-1.4c0,0,0,0,0,0c0.3,0,0.6,0.1,0.8,0.2l93.1,53.8
		C268.6,291.4,268.8,291.9,268.8,292.4 M266,302.9v-9.7L175.6,241v9.7L266,302.9z"/>
	<path id="Path_1008" class="st77" d="M292.1,278.2V291l-24.7,14.2v-12.9L292.1,278.2z"/>
	<path id="Path_1009" class="st78" d="M293.5,278.2V291c0,0.5-0.3,1-0.8,1.2l-24.6,14.2c-0.7,0.4-1.5,0.2-1.9-0.5
		c-0.1-0.2-0.2-0.4-0.2-0.7v-12.9c0-0.5,0.3-1,0.8-1.3l24.6-14.2c0.7-0.4,1.5-0.2,1.9,0.5C293.4,277.7,293.5,277.9,293.5,278.2
		L293.5,278.2z M290.7,290.2v-9.7l-21.9,12.6v9.7L290.7,290.2z"/>
	<path id="Path_1010" class="st77" d="M269.7,272.2c-1.8-0.9-3.9-0.9-5.6,0l-7.1,4.1c-0.9,0.3-1.4,1.3-1.1,2.2
		c0.2,0.5,0.6,0.9,1.1,1.1l5.6,3.2c1.8,0.9,3.9,0.9,5.6,0c2.4-1.4,4.8-2.7,7.1-4.1c0.9-0.3,1.4-1.3,1.1-2.2
		c-0.2-0.5-0.6-0.9-1.1-1.1L269.7,272.2z"/>
	<path id="Path_1011" class="st78" d="M269,273.4c-1.3-0.6-2.9-0.6-4.2,0l-7.1,4.1l0,0c-0.2,0.1-0.3,0.2-0.5,0.4l0,0l0,0
		c0.1,0.2,0.3,0.3,0.5,0.4l0.1,0l5.6,3.2l0,0c0.7,0.3,1.4,0.5,2.1,0.5c0.7,0,1.5-0.2,2.1-0.5l1.3-0.8l0.1,0l5.7-3.3l0.1,0
		c0.2-0.1,0.3-0.2,0.4-0.4l0,0l0,0c0,0,0,0,0,0c-0.1-0.2-0.3-0.3-0.4-0.4L269,273.4L269,273.4z M266.9,270.1c1.2,0,2.4,0.3,3.5,0.9
		l5.6,3.3c0.6,0.3,1.1,0.8,1.5,1.4c0.2,0.4,0.4,0.9,0.4,1.4l0,0c0,0.5-0.1,1-0.4,1.4c-0.3,0.6-0.8,1-1.4,1.3l-0.1,0.1
		c-4,2.3-1.1,0.6-5.7,3.3l-0.1,0l-1.3,0.8c-2.2,1.1-4.8,1.1-7,0l0,0l-5.5-3.2l-0.1,0c-0.6-0.3-1.1-0.8-1.5-1.4c-0.5-0.9-0.5-2,0-2.9
		c0.4-0.6,0.9-1.1,1.5-1.4l7.1-4.1C264.4,270.4,265.7,270.1,266.9,270.1"/>
	<path id="Path_1012" class="st77" d="M206,235.4c-1.8-0.9-3.9-0.9-5.6,0l-7.1,4.1c-0.9,0.3-1.4,1.3-1.1,2.2
		c0.2,0.5,0.6,0.9,1.1,1.1l5.6,3.3c1.8,0.9,3.9,0.9,5.6,0c2.4-1.4,4.7-2.7,7.1-4.1c0.9-0.3,1.4-1.3,1.1-2.2
		c-0.2-0.5-0.6-0.9-1.1-1.1L206,235.4z"/>
	<path id="Path_1013" class="st78" d="M205.3,236.6c-0.6-0.3-1.3-0.5-2.1-0.4c-0.7,0-1.5,0.1-2.1,0.5l-7.1,4.1l-0.1,0
		c-0.2,0.1-0.3,0.2-0.4,0.4v0l0,0l0,0c0.1,0.2,0.3,0.3,0.4,0.4l5.6,3.2l0,0c0.7,0.3,1.4,0.5,2.1,0.5c0.7,0,1.5-0.1,2.1-0.5l0,0
		c2-1.2,1.3-0.7,4.1-2.4l3-1.7l0.1,0c0.2-0.1,0.3-0.2,0.4-0.4v0l0,0l0,0c-0.1-0.2-0.3-0.3-0.5-0.4l0,0l0,0L205.3,236.6L205.3,236.6z
		 M203.2,233.3c1.2,0,2.4,0.3,3.4,0.8l0.1,0l5.6,3.2c0.6,0.3,1.1,0.8,1.5,1.4c0.3,0.4,0.4,0.9,0.4,1.4l0,0c0,0.5-0.1,1-0.4,1.4
		c-0.3,0.6-0.8,1-1.4,1.3l-0.1,0.1l-3,1.7l0,0l-4.1,2.4l0,0l0,0c-2.2,1.1-4.8,1.1-7,0l-5.6-3.2c-0.6-0.3-1.1-0.8-1.5-1.4
		c-0.3-0.4-0.4-0.9-0.4-1.4l0,0c0-0.5,0.1-1,0.4-1.4c0.3-0.6,0.8-1,1.4-1.4l0.1-0.1l7.1-4.1C200.8,233.6,202,233.3,203.2,233.3"/>
	<path id="Path_1014" class="st77" d="M227.2,247.7c-1.8-0.9-3.9-0.9-5.6,0c-2.4,1.4-4.7,2.7-7.1,4.1c-0.9,0.3-1.4,1.3-1.1,2.2
		c0.2,0.5,0.6,0.9,1.1,1.1c1.9,1.1,3.8,2.2,5.6,3.3c1.8,0.9,3.9,0.9,5.6,0c2.4-1.4,4.7-2.8,7.1-4.1c0.9-0.3,1.4-1.3,1.1-2.2
		c-0.2-0.5-0.6-0.9-1.1-1.1l0,0C231,249.8,229.1,248.7,227.2,247.7"/>
	<path id="Path_1015" class="st78" d="M226.5,248.8c-1.3-0.6-2.9-0.6-4.2,0l-7.1,4.1c-0.2,0.1-0.3,0.2-0.5,0.4l0,0l0,0v0l0,0
		c0.1,0.1,0.3,0.3,0.4,0.4l2.8,1.6l0.1,0l2.7,1.6l0,0c1.3,0.6,2.9,0.6,4.2,0l0.1,0l2.8-1.6c-0.1,0,0.3-0.2,4.3-2.5l0.1,0
		c0.2-0.1,0.3-0.2,0.4-0.3l0,0c0,0,0,0,0,0c-0.1-0.2-0.3-0.3-0.4-0.4L226.5,248.8L226.5,248.8z M224.4,245.6c1.2,0,2.4,0.3,3.4,0.8
		l0.1,0l5.5,3.2c0.1,0,0.2,0.1,0.2,0.2c0.5,0.3,1,0.8,1.3,1.3c0.5,0.9,0.5,2,0,2.8c-0.3,0.6-0.8,1-1.4,1.4l-0.1,0.1
		c-3,1.7-1.1,0.6-4.2,2.4l-2.8,1.6l-0.1,0c-2.2,1.1-4.8,1.1-7,0l-2.7-1.6l-0.1,0l-2.8-1.6l-0.1-0.1c-0.5-0.3-1-0.7-1.3-1.3
		c0,0,0-0.1-0.1-0.1c-0.3-0.4-0.4-0.9-0.4-1.4l0,0c0-0.5,0.1-1,0.4-1.4c0.4-0.6,0.9-1.1,1.5-1.4l7.1-4.1
		C222,245.9,223.2,245.6,224.4,245.6"/>
	<path id="Path_1016" class="st77" d="M248.5,259.9c-1.8-0.9-3.9-0.9-5.6,0c-2.4,1.4-4.8,2.7-7.1,4.1c-0.9,0.3-1.4,1.3-1.1,2.2
		c0.2,0.5,0.6,0.9,1.1,1.1c1.9,1.1,3.8,2.2,5.6,3.2c1.8,0.9,3.9,0.9,5.6,0c2.4-1.4,4.7-2.7,7.1-4.1c0.9-0.3,1.4-1.3,1.1-2.2
		c-0.2-0.5-0.6-0.9-1.1-1.1l0,0C252.2,262.1,250.3,261,248.5,259.9"/>
	<path id="Path_1017" class="st78" d="M247.8,261.1c-1.3-0.6-2.9-0.6-4.2,0l-7.1,4.1l-0.1,0c-0.2,0.1-0.3,0.2-0.4,0.3l0,0
		c0,0,0,0,0,0.1c0.1,0.2,0.3,0.3,0.5,0.4l0.1,0.1l5.5,3.2c0.7,0.3,1.4,0.5,2.1,0.5c0.7,0,1.5-0.1,2.1-0.5l7.1-4.1
		c0.2-0.1,0.3-0.2,0.5-0.4l0,0l0,0v0c0,0,0,0,0,0l0,0c-0.1-0.1-0.3-0.3-0.4-0.4l-2.8-1.6l-0.1,0L247.8,261.1z M245.6,257.9
		c1.2,0,2.4,0.3,3.5,0.9l2.7,1.6l0.1,0l2.8,1.6l0.1,0c0.5,0.3,1,0.7,1.3,1.2l0.1,0.1c0.5,0.9,0.5,2,0,2.8l0,0
		c-0.4,0.6-0.9,1.1-1.5,1.4l-7.1,4.1c-2.2,1.1-4.8,1.1-7,0l-5.6-3.3c-0.6-0.3-1.1-0.8-1.5-1.4c-0.5-0.9-0.5-2,0-2.8
		c0.3-0.6,0.8-1,1.4-1.4l0.1-0.1l7.1-4.1l0,0C243.2,258.1,244.4,257.8,245.6,257.9"/>
	<path id="Path_1018" class="st79" d="M221.6,148.1c1.4,0.6,2.4,2,2.4,3.5c0,0.1,0,0.2,0,0.3l0.6,20.4l-1.1,20.2l5.4,3.2
		c0,0.5-0.3,0.9-0.8,1.1c-0.6,0.3-1.2,0.5-1.9,0.5l-6.2-2.9c-0.4-0.2-0.7-0.6-0.8-1.1c0,0,0-0.1,0-0.1l0.4-20.2l-1.2-14l-0.9,0
		l-1.1,17.9l-2.4,20.6l5.4,3.3c0,0.5-0.3,0.9-0.8,1.1c-0.6,0.3-1.2,0.5-1.9,0.5l-6.2-2.9c-0.3-0.2-0.5-0.4-0.7-0.7
		c-0.1-0.3-0.1-0.7-0.1-1.1l1.2-21l-0.7-21.5c0-0.1,0-0.2,0-0.3c0-2.2,1.4-3,3-3.9l3.3-1.9l1.5-0.9
		C219.2,147.8,220.5,147.7,221.6,148.1"/>
	<path id="Path_1019" class="st78" d="M222,147.1c1.9,0.7,3.1,2.5,3.1,4.5l0,0.4l0.6,20.3v0.1l-1.1,19.6l4.8,2.9
		c0.3,0.2,0.5,0.5,0.5,0.9c0,0.4-0.1,0.9-0.4,1.2c-0.2,0.3-0.6,0.6-0.9,0.8c-0.4,0.2-0.8,0.4-1.2,0.5c-0.4,0.1-0.8,0.1-1.3,0.1
		c-0.2,0-0.4,0-0.5-0.1l-6.2-2.9c-0.1,0-0.1-0.1-0.1-0.1c-0.3-0.2-0.6-0.5-0.8-0.8l0,0c-0.3-0.4-0.4-0.8-0.4-1.2c0,0,0-0.1,0-0.1
		c0.3-6.5,0.3-13.5,0.4-20.1l-0.5-5.6l-0.6,9.5v0.1l-2.3,19.9l4.8,3c0.3,0.2,0.5,0.5,0.5,0.9l0,0c0,0.4-0.1,0.9-0.4,1.2l0,0
		c-0.2,0.3-0.6,0.6-0.9,0.8c-0.4,0.2-0.8,0.4-1.2,0.4c-0.4,0.1-0.8,0.2-1.3,0.2c-0.2,0-0.4-0.1-0.6-0.1l-6.1-2.8l-0.1-0.1
		c-0.2-0.1-0.4-0.3-0.6-0.5c-0.2-0.2-0.4-0.4-0.5-0.7c-0.2-0.4-0.3-0.9-0.2-1.4c0.5-7,0.8-14.1,1.2-21.1l-0.7-21.3l0-0.4
		c0-2.8,1.6-3.7,3.5-4.8l0.1-0.1c1.6-0.9,3.2-1.8,4.8-2.7c0.7-0.4,1.4-0.6,2.1-0.7C220.5,146.7,221.3,146.8,222,147.1 M222.5,150.1
		c-0.3-0.4-0.7-0.8-1.2-1c-0.4-0.2-0.8-0.2-1.2-0.1c-0.5,0.1-0.9,0.2-1.3,0.5l-4.8,2.7l-0.1,0.1c-1.3,0.7-2.3,1.3-2.3,2.9v0.1v0.1
		l0.7,21.5c0,0,0,0.1,0,0.1l-1.2,21.2l0,0.3c0,0,0,0,0.1,0.1c0.1,0,0.1,0.1,0.2,0.1l5.9,2.8c0.2,0,0.4,0,0.6-0.1
		c0.1,0,0.2-0.1,0.3-0.1l-4.4-2.7c-0.4-0.2-0.6-0.6-0.6-1.1l2.4-20.6l1.1-17.9c0-0.6,0.5-1,1.1-1l0.9,0h0c0.6,0,1.1,0.4,1.2,1
		l1.2,14c0,0,0,0.1,0,0.1l-0.4,20.1v0.1c0.1,0.1,0.1,0.1,0.2,0.2l6,2.8c0.2,0,0.4,0,0.6-0.1c0.1,0,0.2-0.1,0.3-0.1l-4.3-2.6l0,0
		c-0.3-0.2-0.5-0.6-0.5-1l1.1-20.2l-0.6-20.2c0-0.1,0-0.1,0-0.2c0-0.1,0-0.2,0-0.2C222.9,151.1,222.8,150.5,222.5,150.1
		 M220.3,193.2L220.3,193.2L220.3,193.2z M220.3,193.3L220.3,193.3z"/>
	<path id="Path_1020" class="st77" d="M223.5,192.5l5.4,3.2c0,0.5-0.3,0.9-0.8,1.1c-0.6,0.3-1.2,0.5-1.9,0.5l-6.2-2.9
		c-0.4-0.2-0.6-0.5-0.8-0.9C221.4,193.8,222.6,193.7,223.5,192.5"/>
	<path id="Path_1021" class="st78" d="M224.1,191.6l5.4,3.2c0.3,0.2,0.5,0.5,0.5,0.9c0,0.4-0.1,0.9-0.4,1.2
		c-0.2,0.3-0.6,0.6-0.9,0.8c-0.4,0.2-0.8,0.4-1.2,0.5c-0.4,0.1-0.8,0.1-1.3,0.1c-0.2,0-0.4,0-0.5-0.1l-6.2-2.9l-0.1,0
		c-0.3-0.2-0.5-0.4-0.8-0.6c-0.2-0.3-0.4-0.6-0.5-0.9c-0.1-0.6,0.2-1.2,0.8-1.3c0,0,0,0,0,0c0.1,0,0.3,0,0.4,0
		c0.7,0.1,1.5,0.2,2.2,0.1c0.4-0.1,0.8-0.3,1-0.7C223,191.4,223.6,191.3,224.1,191.6 M227.3,196l-3.6-2.2c-0.3,0.2-0.6,0.4-1,0.6
		l3.7,1.8c0.2,0,0.4,0,0.6-0.1C227.1,196.1,227.2,196.1,227.3,196"/>
	<path id="Path_1022" class="st77" d="M214,197.5l5.4,3.3c0,0.5-0.3,0.9-0.8,1.1c-0.6,0.3-1.2,0.5-1.9,0.5l-6.2-2.9
		c-0.3-0.2-0.5-0.4-0.7-0.7c0-0.1-0.1-0.1-0.1-0.2C212,198.9,213.1,198.8,214,197.5"/>
	<path id="Path_1023" class="st78" d="M214.6,196.6l5.4,3.3c0.3,0.2,0.5,0.5,0.5,0.9l0,0c0,0.4-0.1,0.9-0.4,1.2l0,0
		c-0.2,0.3-0.6,0.6-0.9,0.8c-0.4,0.2-0.8,0.4-1.2,0.4c-0.4,0.1-0.8,0.2-1.3,0.2c-0.2,0-0.4-0.1-0.5-0.1l-6.1-2.8l-0.1-0.1
		c-0.2-0.1-0.4-0.3-0.6-0.5c-0.2-0.2-0.4-0.4-0.5-0.7c0-0.1-0.1-0.2-0.1-0.3c0-0.1,0-0.2-0.1-0.2c-0.1-0.6,0.3-1.1,0.8-1.3
		c0,0,0,0,0,0c0.1,0,0.2,0,0.4,0l0,0c0.7,0.1,1.4,0.2,2.1,0.1c0.4-0.1,0.8-0.4,1.1-0.7C213.5,196.4,214.1,196.3,214.6,196.6
		 M217.9,201.2l-3.7-2.2c-0.3,0.3-0.6,0.5-1,0.6l3.8,1.8c0.2,0,0.4,0,0.6-0.1C217.7,201.2,217.8,201.2,217.9,201.2"/>
	<path id="Path_1024" class="st79" d="M236.9,142.3l-11.2-1.3c0,0-0.1-0.1-0.1-0.1c-0.2-0.2-0.4-0.5-0.5-0.8l-6.7-15.6l5.5-1.9
		l4.3,15.7l9,1.3l5.1,0l0.6,1.1l-0.9,1.3l-1.3,1.4C238.7,143.4,238.6,142.7,236.9,142.3"/>
	<path id="Path_1025" class="st78" d="M236.8,143.4l-11.1-1.3c-0.3,0-0.5-0.2-0.7-0.4l0,0l-0.1-0.1c-0.1-0.2-0.3-0.4-0.4-0.5
		c-0.1-0.2-0.2-0.4-0.3-0.5l-6.7-15.6c-0.2-0.6,0-1.2,0.6-1.4l0.1,0l5.5-1.9c0.6-0.2,1.2,0.1,1.4,0.7l0,0.1l4.2,15l8.2,1.2l5,0
		c0.4,0,0.7,0.2,0.9,0.5l0.6,1.1c0.2,0.4,0.2,0.8-0.1,1.2l-0.9,1.3c0,0-0.1,0.1-0.1,0.1l-1.3,1.4c-0.2,0.2-0.4,0.3-0.7,0.3l0,0
		c-1.1,0.1-2.2,0-3.1-0.5l0,0C237.5,143.6,237.1,143.4,236.8,143.4 M226.3,139.9l10.7,1.3c0.1,0,0.2,0,0.3,0.1
		c0.5,0.1,1,0.3,1.4,0.5l0,0c0.5,0.3,1.1,0.4,1.6,0.4l0.9-1l0.4-0.6l-4.4,0c-0.1,0-0.1,0-0.2,0l-9-1.3c-0.4-0.1-0.8-0.4-0.9-0.8
		l-4-14.6l-3.3,1.2l6.2,14.6l0,0.1C226.2,139.8,226.2,139.8,226.3,139.9L226.3,139.9z"/>
	<path id="Path_1026" class="st77" d="M224.1,142.8l-0.4-4l1.3-4.9c1-3.8,1.3-9.8-1.7-12.8c-1.2-1.2-2.9-2-3.8-1.5l-7.9,4.5
		c-1.5,0.7-2.5,2.1-2.8,3.8l1.7,15l-0.4,2.4c-5.5,12.4-0.1,18.3-0.1,25c6.1,0.7,12-2.4,14.9-7.8
		C224.7,160.5,225.9,150.2,224.1,142.8"/>
	<path id="Path_1027" class="st78" d="M223,142.9l-0.4-3.9c0-0.2,0-0.3,0.1-0.5l1.3-4.8c0.6-2.3,0.8-4.7,0.5-7.1
		c-0.1-1.7-0.8-3.3-2-4.6c-0.5-0.5-1.1-0.9-1.7-1.2c-0.2-0.1-0.5-0.2-0.8-0.1l-0.1,0l-7.8,4.5c-0.7,0.4-1.2,0.9-1.7,1.5
		c-0.3,0.4-0.5,0.9-0.5,1.3l1.7,14.9c0,0.1,0,0.2,0,0.3l-0.4,2.4c0,0.1,0,0.2-0.1,0.3c-2.7,5.7-3.1,12.2-1.1,18.1
		c0.5,1.8,0.9,3.7,1.1,5.5c2.4,0.2,4.8-0.4,7-1.6c2.4-1.2,4.5-3.2,5.7-5.6c0-0.6,0-1.5,0.1-2.6c0.5-5.6,0.2-11.1-0.8-16.6
		C223,143,223,142.9,223,142.9 M224.8,138.9l0.4,3.7c1.1,5.7,1.4,11.4,0.9,17.2c-0.1,1.3-0.1,2.2-0.1,2.7c0,0.2,0,0.3-0.1,0.5
		c-1.5,3-3.9,5.3-6.8,6.8c-2.8,1.6-6.1,2.2-9.3,1.6c-0.5-0.1-0.9-0.5-0.9-1.1c-0.1-2-0.4-4-1-5.9c-2.1-6.4-1.7-13.3,1.2-19.4
		l0.4-2.1l-1.7-14.8c0,0,0-0.1,0-0.1c0-1,0.4-1.9,0.9-2.7c0.6-0.8,1.4-1.5,2.3-2.1l0,0l7.8-4.5l0.1,0c0.8-0.4,1.8-0.4,2.6,0
		c0.9,0.4,1.8,1,2.5,1.7c1.5,1.6,2.4,3.7,2.6,5.9c0.3,2.7,0.1,5.4-0.6,8L224.8,138.9z"/>
	<path id="Path_1028" class="st79" d="M204.5,152l-0.7,5.1l-1.2,0.5l-1.3,4.3l-1.4-0.9c-0.2-3.2,0.4-6.4,1.7-9.4l1.2-10.7
		c0-0.3,0.1-0.6,0.3-0.9c1.9-3.9,3.2-7.9,5.2-11.5c1.8-3.4,5.8,0.3,4,3.3l-5.6,9.2L204.5,152z"/>
	<path id="Path_1029" class="st78" d="M205.6,152.2l-0.7,5c-0.1,0.4-0.3,0.7-0.7,0.9l-0.6,0.3l-1.1,3.8c-0.2,0.6-0.8,0.9-1.3,0.7
		c-0.1,0-0.2-0.1-0.3-0.2l0,0l-1.4-0.9c-0.3-0.2-0.5-0.6-0.5-1l0-0.7c0-1.5,0.1-3,0.3-4.5c0.2-1,0.5-2,0.9-2.9
		c0.1-0.3,0.3-0.7,0.5-1.4l1.2-10.6c0-0.4,0.2-0.9,0.4-1.2v0c0.8-1.6,1.5-3.3,2.2-5.1c0.9-2.2,1.8-4.3,2.9-6.4
		c0.5-1.2,1.7-2,3.1-1.9c0.5,0,1.1,0.2,1.5,0.5c1.9,1.3,2.4,3.8,1.3,5.7l-5.5,9.1L205.6,152.2z M202.8,156.3l0.6-4.4
		c0,0,0-0.1,0-0.1l2.4-11c0-0.1,0.1-0.3,0.1-0.4l5.6-9.2l0,0c0.4-0.7,0.4-1.6-0.1-2.2c-0.1-0.2-0.3-0.4-0.5-0.5
		c-0.1-0.1-0.3-0.2-0.5-0.2c-0.3,0-0.7,0.2-1,0.8c-1.1,2-2,4.1-2.9,6.2c-0.7,1.7-1.4,3.4-2.3,5.2c0,0,0,0.1-0.1,0.1
		c0,0.1-0.1,0.1-0.1,0.2c0,0.1,0,0.1,0,0.2v0.1l-1.2,10.7c0,0.1,0,0.2-0.1,0.3c-0.2,0.5-0.4,1.1-0.5,1.5c-0.3,0.8-0.6,1.7-0.8,2.6
		c-0.1,0.9-0.2,1.8-0.2,2.6l0.4-1.4c0.1-0.3,0.3-0.6,0.6-0.7L202.8,156.3z"/>
	<path id="Path_1030" class="st79" d="M215.5,119l4.7,0.9l-0.5,4.6c0,0,0,0.1,0,0.1c-0.1,0.5-0.5,0.8-1,1c-1.3,0.4-2.8,0.1-3.9-0.7
		c-0.4-0.3-0.6-0.8-0.6-1.3c0,0,0-0.1,0-0.1L215.5,119z"/>
	<path id="Path_1031" class="st78" d="M215.8,118l4.7,0.9c0.6,0.1,0.9,0.6,0.9,1.2l-0.5,4.6v0.1c0,0,0,0.1,0,0.2
		c-0.1,0.4-0.3,0.8-0.6,1.1c-0.3,0.3-0.7,0.5-1.1,0.6c-0.8,0.3-1.7,0.3-2.6,0.2c-0.9-0.1-1.7-0.5-2.3-1.1c-0.3-0.3-0.6-0.6-0.8-1
		c-0.2-0.4-0.3-0.9-0.2-1.3c0-0.1,0-0.1,0-0.2l0,0c0,0,0-0.1,0-0.1l1.2-4.4C214.6,118.2,215.2,117.8,215.8,118 M219.1,120.8
		l-2.8-0.5l-0.9,3.5l0,0l0,0c0.1,0.1,0.1,0.2,0.2,0.3c0.4,0.3,0.9,0.5,1.3,0.6c0.5,0.1,1,0.1,1.5-0.1c0.1,0,0.2-0.1,0.3-0.2l0,0
		L219.1,120.8z M215.4,123.8C215.4,123.8,215.4,123.8,215.4,123.8z"/>
	<path id="Path_1032" class="st79" d="M220.1,107.2c-2.5-0.6-5,1-5.6,3.5c0,0.1,0,0.1,0,0.2l-0.5,5.7c-0.6,2.3,0.7,4.7,3,5.3
		c2.3,0.6,4.7-0.7,5.3-3c0.1-0.2,0.1-0.5,0.1-0.7l1.6-5.5c0.5-2.5-1.1-4.9-3.6-5.4C220.3,107.2,220.2,107.2,220.1,107.2"/>
	<path id="Path_1033" class="st78" d="M219.9,108.3c-0.1,0-0.2,0-0.3,0c-0.9-0.1-1.8,0.1-2.6,0.6c-0.7,0.4-1.2,1.1-1.4,2v0
		c0,0.1,0,0.1,0,0.2l-0.5,5.7c-0.1,1,0.1,2.1,0.6,3c0.9,1.4,2.8,1.7,4.2,0.8c0,0,0,0,0,0c0.8-0.7,1.3-1.6,1.6-2.6l1.6-5.5
		c0-0.1,0-0.2,0.1-0.3c0.1-0.8-0.1-1.6-0.6-2.3c-0.5-0.7-1.3-1.3-2.2-1.5C220.2,108.3,220,108.3,219.9,108.3 M219.8,106.1
		c0.2,0,0.4,0,0.5,0.1c0.2,0,0.4,0.1,0.6,0.1c1.3,0.4,2.5,1.2,3.4,2.3c0.8,1.1,1.2,2.6,0.9,3.9c0,0.2-0.1,0.3-0.1,0.4l-1.6,5.5
		c-0.4,1.5-1.2,2.8-2.4,3.7c-2.3,1.7-5.6,1.1-7.2-1.2c0-0.1-0.1-0.1-0.1-0.2c-0.8-1.3-1.1-2.8-0.9-4.3l0.5-5.7c0-0.1,0-0.3,0-0.4v0
		c0.3-1.4,1.1-2.6,2.3-3.4C217,106.3,218.4,105.9,219.8,106.1"/>
	<path id="Path_1034" class="st19" d="M217.8,114.4l-1.6,8.4c-0.5,1.1-1.5,1.8-2.6,2l-3-0.5c2.3-4.2,1.5-7.9,2.3-11.8
		c0.8-4.3,3.2-7.5,7.5-6.7c2.8,0.4,4.7,2.9,4.3,5.7c0,0.2-0.1,0.5-0.1,0.7l-1.7,0.5L217.8,114.4z"/>
	<path id="Path_1035" class="st78" d="M218.7,115.2l-1.5,7.8l0,0l0,0c0,0,0,0.1,0,0.1c-0.3,0.8-0.8,1.5-1.5,1.9
		c-0.6,0.5-1.5,0.8-2.3,0.8c-0.9-0.1-2-0.3-3-0.5c-0.6-0.1-1-0.7-0.9-1.2c0-0.1,0.1-0.3,0.1-0.4c1.2-2.3,1.7-4.9,1.7-7.5
		c0.1-1.3,0.2-2.7,0.4-4c0.3-2.3,1.4-4.4,3-6.1c1.6-1.4,3.7-2,5.7-1.5l0,0l0.1,0c0,0,0.1,0,0.1,0c1.9,0.3,3.5,1.4,4.3,3.1
		c0.6,1.4,0.8,2.9,0.6,4.4l0,0l0,0.1c-0.1,0.4-0.4,0.8-0.8,0.9l-1.7,0.5L218.7,115.2z M215.1,122.6l1.6-8.4c0.1-0.4,0.3-0.7,0.7-0.9
		l5.2-1.8l1.1-0.3c0.1-0.8-0.1-1.7-0.4-2.5c-0.6-1.1-1.6-1.8-2.8-2l-0.2,0c-1.4-0.3-2.9,0.1-3.9,1c-1.3,1.3-2.1,3-2.3,4.9
		c-0.2,1.2-0.3,2.5-0.4,3.7c0,2.4-0.5,4.8-1.3,7.1c0.5,0.1,1.1,0.2,1.6,0.3c0.2-0.1,0.4-0.2,0.6-0.4
		C214.7,123.2,215,122.9,215.1,122.6L215.1,122.6z"/>
	<path id="Path_1036" class="st79" d="M237.8,144.9l6.8-3.7l3.5-3.6l-6.8,3.7L237.8,144.9z"/>
	<path id="Path_1037" class="st78" d="M245.1,142.1l-6.8,3.7c-0.5,0.3-1.2,0.1-1.5-0.4c-0.2-0.4-0.2-0.9,0.2-1.3l3.4-3.6
		c0.1-0.1,0.2-0.2,0.3-0.2l6.8-3.7l0,0c0.5-0.3,1.2-0.1,1.5,0.4c0.2,0.4,0.2,0.9-0.2,1.3l-3.4,3.6
		C245.3,142,245.2,142.1,245.1,142.1"/>
</g>
</svg>
