<?xml version="1.0" encoding="utf-8"?>
<!-- Generator: Adobe Illustrator 28.0.0, SVG Export Plug-In . SVG Version: 6.00 Build 0)  -->
<svg version="1.1" id="Layer_1" xmlns="http://www.w3.org/2000/svg" xmlns:xlink="http://www.w3.org/1999/xlink" x="0px" y="0px"
	 viewBox="0 0 500 500" style="enable-background:new 0 0 500 500;" xml:space="preserve">
<style type="text/css">
	.st0{fill:none;}
	.st1{opacity:1.000000e-02;}
	.st2{clip-path:url(#SVGID_00000060020325330556516800000016822455275483159227_);}
	.st3{fill-rule:evenodd;clip-rule:evenodd;fill:#383838;}
	.st4{clip-path:url(#SVGID_00000073720438600023893390000002597882961855843229_);}
	.st5{clip-path:url(#SVGID_00000001621621176029760480000009875635579478711723_);}
	.st6{clip-path:url(#SVGID_00000020391410392839312500000002432495791584751492_);}
	.st7{clip-path:url(#SVGID_00000147932431085119612000000000503373637793359535_);}
	.st8{clip-path:url(#SVGID_00000058559228296605047710000001222653152695235474_);}
	.st9{clip-path:url(#SVGID_00000060726855126657557430000001028810005837171851_);}
	.st10{clip-path:url(#SVGID_00000158750852119750442510000006501245079265387434_);}
	.st11{clip-path:url(#SVGID_00000006692440849504317700000013056777895199983549_);}
	.st12{clip-path:url(#SVGID_00000183212718694950496160000017550354807359833240_);}
	.st13{clip-path:url(#SVGID_00000103228008961723970680000008194148042896876966_);}
	.st14{clip-path:url(#SVGID_00000150103934268687589330000002885013043195508148_);}
	.st15{clip-path:url(#SVGID_00000116231774573737348180000004547524802332030871_);}
	.st16{clip-path:url(#SVGID_00000060725315212143974640000013931288050673540248_);}
	.st17{fill-rule:evenodd;clip-rule:evenodd;fill:#F9FAFE;}
	.st18{fill-rule:evenodd;clip-rule:evenodd;fill:#1A87C7;}
	.st19{fill-rule:evenodd;clip-rule:evenodd;fill:#8ACFF0;}
	.st20{opacity:0;}
	.st21{clip-path:url(#SVGID_00000057851113455953192260000006131287437888880772_);}
	.st22{opacity:8.000000e-03;}
	.st23{clip-path:url(#SVGID_00000141429376021844477020000015293085125170170247_);}
	.st24{opacity:1.500000e-02;}
	.st25{clip-path:url(#SVGID_00000036948448023986591000000005461019142828220574_);}
	.st26{opacity:2.300000e-02;}
	.st27{clip-path:url(#SVGID_00000163761713222636266400000000906455386133652656_);}
	.st28{opacity:3.100000e-02;}
	.st29{clip-path:url(#SVGID_00000049215484745461928920000005174031441008988046_);}
	.st30{opacity:3.800000e-02;}
	.st31{clip-path:url(#SVGID_00000028283956248794743530000010750646474879332768_);}
	.st32{opacity:4.600000e-02;}
	.st33{clip-path:url(#SVGID_00000098183478191831779780000008981525401034593464_);}
	.st34{opacity:5.400000e-02;}
	.st35{clip-path:url(#SVGID_00000049920176042173956170000000942676008497407672_);}
	.st36{opacity:6.100000e-02;}
	.st37{clip-path:url(#SVGID_00000174571815552377429460000014582774702281783945_);}
	.st38{opacity:6.900000e-02;}
	.st39{clip-path:url(#SVGID_00000151524432285950369970000010374973891783321222_);}
	.st40{opacity:7.700000e-02;}
	.st41{clip-path:url(#SVGID_00000077321605326183708320000016737322058231893890_);}
	.st42{opacity:8.500000e-02;}
	.st43{clip-path:url(#SVGID_00000181800532379584678050000002212522892154791046_);}
	.st44{opacity:9.200000e-02;}
	.st45{clip-path:url(#SVGID_00000101808039457249593100000011701772976772315823_);}
	.st46{opacity:0.1;}
	.st47{clip-path:url(#SVGID_00000013907752267264038920000009841458548206933931_);}
	.st48{fill-rule:evenodd;clip-rule:evenodd;fill:#FFFFFF;}
	.st49{fill-rule:evenodd;clip-rule:evenodd;fill:#116094;}
	.st50{fill-rule:evenodd;clip-rule:evenodd;fill:#489BD5;}
	.st51{opacity:2.000000e-02;}
	.st52{clip-path:url(#SVGID_00000114759463329097899370000006654741954742218666_);}
	.st53{opacity:3.400000e-02;}
	.st54{clip-path:url(#SVGID_00000042720110638638585360000003354716957015233943_);}
	.st55{opacity:4.800000e-02;}
	.st56{clip-path:url(#SVGID_00000047050549470003066870000007441443682374946203_);}
	.st57{clip-path:url(#SVGID_00000026843059958419673750000017583863001683878541_);}
	.st58{opacity:7.500000e-02;}
	.st59{clip-path:url(#SVGID_00000105385500163465444610000007018494196213078945_);}
	.st60{opacity:8.900000e-02;}
	.st61{clip-path:url(#SVGID_00000010288520316380808580000009499566125081538976_);}
	.st62{opacity:0.103;}
	.st63{clip-path:url(#SVGID_00000042734275557739453360000018286226100393149348_);}
	.st64{opacity:0.117;}
	.st65{clip-path:url(#SVGID_00000145050094448235048850000018043145969741715597_);}
	.st66{opacity:0.131;}
	.st67{clip-path:url(#SVGID_00000136401979394727110310000006395692310993774749_);}
	.st68{opacity:0.145;}
	.st69{clip-path:url(#SVGID_00000113324699819098145930000005876596996461894076_);}
	.st70{opacity:0.158;}
	.st71{clip-path:url(#SVGID_00000005978509700089189070000011831195134793319608_);}
	.st72{opacity:0.172;}
	.st73{clip-path:url(#SVGID_00000032649063447458860430000016759812410762371242_);}
	.st74{opacity:0.186;}
	.st75{clip-path:url(#SVGID_00000117671825202363506260000014366986945071415986_);}
	.st76{opacity:0.2;}
	.st77{clip-path:url(#SVGID_00000050639285570386625430000011061315349811055020_);}
</style>
<rect x="157.2" y="179.8" class="st0" width="186.4" height="139.8"/>
<rect x="157.2" y="179.8" class="st0" width="186.4" height="139.8"/>
<rect x="157.2" y="179.3" class="st0" width="186.4" height="141"/>
<rect x="157.2" y="179.3" class="st0" width="186.4" height="141"/>
<rect x="157.2" y="196.2" class="st0" width="186.4" height="107.6"/>
<rect x="5.5" y="108.7" class="st0" width="490" height="282.8"/>
<g id="Group_1043">
	<g id="Group_919" class="st1">
		<g id="Group_918">
			<g>
				<defs>
					<rect id="SVGID_1_" x="5.5" y="108.7" width="490" height="282.8"/>
				</defs>
				<clipPath id="SVGID_00000147188655283696744490000009959968948289828495_">
					<use xlink:href="#SVGID_1_"  style="overflow:visible;"/>
				</clipPath>
				<g id="Group_917" style="clip-path:url(#SVGID_00000147188655283696744490000009959968948289828495_);">
					<path id="Path_845" class="st3" d="M9.9,245.4l228.7-132c10.6-6.3,23.8-6.3,34.4,0l218,125.9c4.2,2.4,5.7,7.9,3.3,12.1
						c-0.8,1.4-1.9,2.5-3.3,3.3L262.3,386.7c-10.6,6.3-23.8,6.3-34.4,0L9.9,260.8c-4.2-2.5-5.7-7.9-3.2-12.1
						C7.4,247.3,8.5,246.2,9.9,245.4"/>
				</g>
			</g>
		</g>
	</g>
	<g id="Group_922" class="st1">
		<g id="Group_921">
			<g>
				<defs>
					<rect id="SVGID_00000089547286801086496400000013589699415759936438_" x="14" y="113" width="476.3" height="274.2"/>
				</defs>
				<clipPath id="SVGID_00000132070629981832788420000018327496654198001821_">
					<use xlink:href="#SVGID_00000089547286801086496400000013589699415759936438_"  style="overflow:visible;"/>
				</clipPath>
				<g id="Group_920" style="clip-path:url(#SVGID_00000132070629981832788420000018327496654198001821_);">
					<path id="Path_846" class="st3" d="M18.4,244l220.9-126.3c10.5-6.2,23.6-6.2,34.2,0c70.8,40.9,141.6,81.7,212.4,122.6
						c4.2,2.4,5.7,7.8,3.2,12.1c-0.8,1.3-1.9,2.5-3.2,3.2L266,382.5c-10.5,6.3-23.6,6.3-34.2,0c-71.1-41.1-142.3-82.1-213.4-123.2
						c-4.2-2.4-5.7-7.8-3.2-12.1C16,245.9,17.1,244.8,18.4,244"/>
				</g>
			</g>
		</g>
	</g>
	<g id="Group_925" class="st1">
		<g id="Group_924">
			<g>
				<defs>
					<rect id="SVGID_00000160893740193968238030000003492157923144343210_" x="22.5" y="117.3" width="462.5" height="265.7"/>
				</defs>
				<clipPath id="SVGID_00000035507300693216544330000006626490359818747565_">
					<use xlink:href="#SVGID_00000160893740193968238030000003492157923144343210_"  style="overflow:visible;"/>
				</clipPath>
				<g id="Group_923" style="clip-path:url(#SVGID_00000035507300693216544330000006626490359818747565_);">
					<path id="Path_847" class="st3" d="M26.9,242.6l213-120.6c10.5-6.2,23.5-6.2,34,0l206.7,119.3c4.2,2.4,5.6,7.8,3.2,12
						c-0.8,1.3-1.9,2.5-3.2,3.2c-70.3,40.6-140.7,81.2-211,121.8c-10.5,6.2-23.5,6.2-34,0C166.1,338.1,96.5,298,26.9,257.8
						c-2.8-1.5-4.4-4.5-4.4-7.6C22.5,247,24.2,244.1,26.9,242.6"/>
				</g>
			</g>
		</g>
	</g>
	<g id="Group_928" class="st1">
		<g id="Group_927">
			<g>
				<defs>
					<rect id="SVGID_00000066496074076501419500000006229956763000589191_" x="31.1" y="121.6" width="448.8" height="257.1"/>
				</defs>
				<clipPath id="SVGID_00000016790000702685577500000015587922100891289789_">
					<use xlink:href="#SVGID_00000066496074076501419500000006229956763000589191_"  style="overflow:visible;"/>
				</clipPath>
				<g id="Group_926" style="clip-path:url(#SVGID_00000016790000702685577500000015587922100891289789_);">
					<path id="Path_848" class="st3" d="M35.5,241.1l205.2-114.9c10.5-6.1,23.4-6.1,33.9,0c67,38.7,134,77.3,201,116
						c4.2,2.4,5.6,7.8,3.2,12c-0.8,1.3-1.9,2.4-3.2,3.2L273.3,374.1c-10.4,6.2-23.4,6.2-33.8,0c-68-39.3-136-78.5-204-117.8
						c-2.7-1.5-4.4-4.4-4.4-7.6C31,245.6,32.7,242.6,35.5,241.1"/>
				</g>
			</g>
		</g>
	</g>
	<g id="Group_931" class="st1">
		<g id="Group_930">
			<g>
				<defs>
					<rect id="SVGID_00000040545118926859853790000001477024759475883701_" x="39.6" y="125.9" width="435" height="248.6"/>
				</defs>
				<clipPath id="SVGID_00000114788603405643422910000015581756572528585620_">
					<use xlink:href="#SVGID_00000040545118926859853790000001477024759475883701_"  style="overflow:visible;"/>
				</clipPath>
				<g id="Group_929" style="clip-path:url(#SVGID_00000114788603405643422910000015581756572528585620_);">
					<path id="Path_849" class="st3" d="M44,239.7c65.8-36.4,131.6-72.8,197.4-109.2c10.4-6,23.3-6,33.7,0
						c65.1,37.6,130.2,75.2,195.3,112.7c4.2,2.4,5.6,7.7,3.2,11.9c-0.8,1.3-1.9,2.4-3.2,3.2c-64.4,37.2-128.8,74.4-193.3,111.6
						c-10.4,6.2-23.3,6.2-33.7,0C176.9,331.5,110.4,293.1,44,254.8c-2.7-1.5-4.4-4.4-4.3-7.5C39.5,244.1,41.2,241.2,44,239.7"/>
				</g>
			</g>
		</g>
	</g>
	<g id="Group_934" class="st1">
		<g id="Group_933">
			<g>
				<defs>
					<rect id="SVGID_00000139289475598266365690000014060004696669579920_" x="48.2" y="130.2" width="421.3" height="240"/>
				</defs>
				<clipPath id="SVGID_00000029040713195245996570000017985509327110820494_">
					<use xlink:href="#SVGID_00000139289475598266365690000014060004696669579920_"  style="overflow:visible;"/>
				</clipPath>
				<g id="Group_932" style="clip-path:url(#SVGID_00000029040713195245996570000017985509327110820494_);">
					<path id="Path_850" class="st3" d="M52.5,238.2c63.2-34.5,126.3-69,189.5-103.5c10.4-6,23.1-6,33.5,0
						c63.2,36.5,126.4,73,189.6,109.5c4.1,2.4,5.6,7.7,3.2,11.8c-0.8,1.3-1.9,2.4-3.2,3.2c-61.5,35.5-123,71-184.4,106.5
						c-10.3,6.2-23.2,6.2-33.5,0c-64.9-37.5-129.8-74.9-194.7-112.4c-2.7-1.5-4.4-4.4-4.3-7.5C48.1,242.6,49.8,239.7,52.5,238.2"/>
				</g>
			</g>
		</g>
	</g>
	<g id="Group_937" class="st1">
		<g id="Group_936">
			<g>
				<defs>
					<rect id="SVGID_00000044151497388138889510000017421429101319115664_" x="56.7" y="134.6" width="407.5" height="231.5"/>
				</defs>
				<clipPath id="SVGID_00000002353483891396664650000005465809567448508288_">
					<use xlink:href="#SVGID_00000044151497388138889510000017421429101319115664_"  style="overflow:visible;"/>
				</clipPath>
				<g id="Group_935" style="clip-path:url(#SVGID_00000002353483891396664650000005465809567448508288_);">
					<path id="Path_851" class="st3" d="M61,236.8L242.7,139c10.3-5.9,23-5.9,33.3,0l183.9,106.2c4.1,2.4,5.5,7.7,3.1,11.8
						c-0.8,1.3-1.8,2.4-3.1,3.1c-58.5,33.8-117,67.6-175.6,101.4c-10.3,6.1-23.1,6.1-33.3,0c-63.3-36.6-126.7-73.1-190-109.7
						c-2.7-1.5-4.3-4.4-4.3-7.5C56.6,241.2,58.3,238.3,61,236.8"/>
				</g>
			</g>
		</g>
	</g>
	<g id="Group_940" class="st1">
		<g id="Group_939">
			<g>
				<defs>
					<rect id="SVGID_00000154422750463438349850000002453063995345007750_" x="65.2" y="138.9" width="393.8" height="222.9"/>
				</defs>
				<clipPath id="SVGID_00000026873754886218811670000016170845023283910786_">
					<use xlink:href="#SVGID_00000154422750463438349850000002453063995345007750_"  style="overflow:visible;"/>
				</clipPath>
				<g id="Group_938" style="clip-path:url(#SVGID_00000026873754886218811670000016170845023283910786_);">
					<path id="Path_852" class="st3" d="M69.5,235.4c57.9-30.7,115.9-61.4,173.8-92.1c10.3-5.8,22.9-5.8,33.2,0l178.2,102.9
						c4.1,2.4,5.5,7.6,3.1,11.7c-0.8,1.3-1.8,2.4-3.1,3.1c-55.6,32.1-111.1,64.2-166.7,96.2c-10.2,6.1-23,6.1-33.2,0l-185.3-107
						c-2.7-1.5-4.3-4.3-4.3-7.4C65.1,239.7,66.8,236.8,69.5,235.4"/>
				</g>
			</g>
		</g>
	</g>
	<g id="Group_943" class="st1">
		<g id="Group_942">
			<g>
				<defs>
					<rect id="SVGID_00000143587564551579902190000006822301265059259785_" x="73.8" y="143.2" width="380" height="214.4"/>
				</defs>
				<clipPath id="SVGID_00000121963525877045463540000016630723699694484149_">
					<use xlink:href="#SVGID_00000143587564551579902190000006822301265059259785_"  style="overflow:visible;"/>
				</clipPath>
				<g id="Group_941" style="clip-path:url(#SVGID_00000121963525877045463540000016630723699694484149_);">
					<path id="Path_853" class="st3" d="M78.1,233.9l166-86.4c10.8-5.4,22.5-6.1,33,0c57.5,33.2,115,66.4,172.5,99.6
						c4.1,2.4,5.5,7.6,3.1,11.7c-0.7,1.3-1.8,2.4-3.1,3.1L291.7,353c-10.2,6.1-22.8,6.1-33,0L78.1,248.7c-2.7-1.5-4.3-4.3-4.3-7.4
						C73.7,238.2,75.3,235.4,78.1,233.9"/>
				</g>
			</g>
		</g>
	</g>
	<g id="Group_946" class="st1">
		<g id="Group_945">
			<g>
				<defs>
					<rect id="SVGID_00000068658004318222575750000000046705415758819232_" x="82.3" y="147.5" width="366.3" height="205.8"/>
				</defs>
				<clipPath id="SVGID_00000174598026518646911610000017147534904401784480_">
					<use xlink:href="#SVGID_00000068658004318222575750000000046705415758819232_"  style="overflow:visible;"/>
				</clipPath>
				<g id="Group_944" style="clip-path:url(#SVGID_00000174598026518646911610000017147534904401784480_);">
					<path id="Path_854" class="st3" d="M86.6,232.5c52.7-26.9,105.4-53.8,158.1-80.7c10.8-5.3,22.4-6,32.9,0l166.8,96.3
						c4.1,2.3,5.5,7.5,3.1,11.6c-0.7,1.3-1.8,2.4-3.1,3.1l-149,86c-10.1,6-22.7,6-32.8,0l-176-101.6c-2.7-1.5-4.3-4.3-4.2-7.4
						C82.2,236.8,83.9,233.9,86.6,232.5"/>
				</g>
			</g>
		</g>
	</g>
	<g id="Group_949" class="st1">
		<g id="Group_948">
			<g>
				<defs>
					<rect id="SVGID_00000118370879530554799210000011929006126766822802_" x="90.9" y="151.8" width="352.5" height="197.2"/>
				</defs>
				<clipPath id="SVGID_00000154410184552235980290000008470234139245631159_">
					<use xlink:href="#SVGID_00000118370879530554799210000011929006126766822802_"  style="overflow:visible;"/>
				</clipPath>
				<g id="Group_947" style="clip-path:url(#SVGID_00000154410184552235980290000008470234139245631159_);">
					<path id="Path_855" class="st3" d="M95.1,231.1c50.1-25,100.2-50,150.3-75c10.8-5.2,22.3-6,32.7,0l161.1,93
						c4,2.3,5.4,7.5,3.1,11.5c-0.7,1.3-1.8,2.4-3.1,3.1c-46.7,27-93.4,53.9-140.1,80.9c-10.1,6-22.6,6-32.7,0L95.1,245.7
						c-2.6-1.5-4.3-4.3-4.2-7.3C90.7,235.3,92.4,232.5,95.1,231.1"/>
				</g>
			</g>
		</g>
	</g>
	<g id="Group_952" class="st1">
		<g id="Group_951">
			<g>
				<defs>
					<rect id="SVGID_00000121966608196196605040000003478686515648718253_" x="99.4" y="156.2" width="338.8" height="188.7"/>
				</defs>
				<clipPath id="SVGID_00000101077606060519364040000004017001896330051508_">
					<use xlink:href="#SVGID_00000121966608196196605040000003478686515648718253_"  style="overflow:visible;"/>
				</clipPath>
				<g id="Group_950" style="clip-path:url(#SVGID_00000101077606060519364040000004017001896330051508_);">
					<path id="Path_856" class="st3" d="M103.6,229.6l142.5-69.3c10.8-5.1,22.2-6,32.5,0L434,250c4,2.3,5.4,7.5,3.1,11.5
						c-0.7,1.3-1.8,2.3-3.1,3.1l-131.3,75.8c-10,6-22.5,6-32.5,0c-55.5-32.1-111.1-64.1-166.6-96.2c-2.6-1.5-4.2-4.3-4.2-7.3
						C99.3,233.9,100.9,231,103.6,229.6"/>
				</g>
			</g>
		</g>
	</g>
	<g id="Group_955" class="st1">
		<g id="Group_954">
			<g>
				<defs>
					<rect id="SVGID_00000070808711564731412590000001683358473006225287_" x="108" y="160.5" width="325" height="180.1"/>
				</defs>
				<clipPath id="SVGID_00000142166521830386631700000002214737781349174689_">
					<use xlink:href="#SVGID_00000070808711564731412590000001683358473006225287_"  style="overflow:visible;"/>
				</clipPath>
				<g id="Group_953" style="clip-path:url(#SVGID_00000142166521830386631700000002214737781349174689_);">
					<path id="Path_857" class="st3" d="M112.1,228.2c44.9-21.2,89.8-42.4,134.6-63.6c10.8-5,22-5.9,32.3,0
						c49.9,28.8,99.8,57.6,149.7,86.4c4,2.3,5.4,7.4,3.1,11.4c-0.7,1.3-1.8,2.3-3.1,3.1c-40.8,23.6-81.6,47.1-122.4,70.7
						c-10,5.9-22.4,5.9-32.3,0l-162-93.5c-2.6-1.5-4.2-4.2-4.2-7.2C107.8,232.4,109.4,229.6,112.1,228.2"/>
				</g>
			</g>
		</g>
	</g>
	<g id="Group_958" class="st1">
		<g id="Group_957">
			<g>
				<defs>
					<rect id="SVGID_00000078024611582362425430000002204150922788387213_" x="116.5" y="164.8" width="311.3" height="171.6"/>
				</defs>
				<clipPath id="SVGID_00000120558700361586445560000002451144991180229279_">
					<use xlink:href="#SVGID_00000078024611582362425430000002204150922788387213_"  style="overflow:visible;"/>
				</clipPath>
				<g id="Group_956" style="clip-path:url(#SVGID_00000120558700361586445560000002451144991180229279_);">
					<path id="Path_858" class="st3" d="M120.7,226.8l126.8-57.9c10.7-4.9,21.9-5.9,32.2,0l144,83.1c4,2.3,5.3,7.4,3,11.4
						c-0.7,1.3-1.8,2.3-3,3l-113.5,65.5c-9.9,5.9-22.3,5.9-32.2,0l-157.3-90.8c-2.6-1.5-4.2-4.2-4.2-7.2
						C116.3,230.9,118,228.1,120.7,226.8"/>
				</g>
			</g>
		</g>
	</g>
	<path id="Path_859" class="st17" d="M70,231.3l206.2-119.1c1.6-0.9,3.5-0.9,5,0l206.2,119.1L281.3,350.3c-1.5,0.9-3.5,0.9-5,0
		L70,231.3z"/>
	<path id="Path_860" class="st18" d="M69.5,230.3l206.2-119.1c1.9-1.1,4.2-1.1,6.1,0l206.3,119.1c0.5,0.3,0.7,1,0.4,1.5
		c-0.1,0.2-0.2,0.3-0.4,0.4L281.8,351.3c-1.9,1.1-4.2,1.1-6.1,0L69.5,232.2c-0.5-0.3-0.7-1-0.4-1.5
		C69.2,230.6,69.3,230.4,69.5,230.3 M276.8,113.2L72.2,231.3l204.6,118.1c1.2,0.7,2.7,0.7,3.9,0l204.6-118.1L280.7,113.2
		C279.5,112.4,278,112.4,276.8,113.2"/>
	<path id="Path_861" class="st18" d="M70,238.8v-7.5l208.8,120.5v7.2c-0.2,0-0.4-0.1-0.5-0.2C245.2,339.7,103.1,257.8,70,238.8"/>
	<path id="Path_862" class="st18" d="M68.9,238.8v-7.5c0-0.6,0.5-1.1,1.1-1.1c0.2,0,0.5,0.1,0.6,0.2l208.7,120.5
		c0.3,0.2,0.6,0.6,0.5,1l0,0v7.2c0,0.6-0.5,1.1-1.1,1.1c-0.3,0-0.6-0.1-0.9-0.2l-0.1,0c0,0-0.1,0-0.1-0.1
		c-21.6-12.5-84.2-48.6-133.8-77.2c-32.7-18.8-61.6-35.5-74.4-42.9C69.1,239.5,68.9,239.1,68.9,238.8L68.9,238.8z M71.1,233.2v4.9
		c13,7.5,41.6,24,73.8,42.5c53.5,30.8,112.5,64.9,132.7,76.6v-4.8L71.1,233.2z"/>
	<path id="Path_863" class="st19" d="M487.5,238.8v-7.5L278.8,351.8v7.2c0.2,0,0.4-0.1,0.5-0.2C312.4,339.7,454.4,257.8,487.5,238.8
		"/>
	<path id="Path_864" class="st18" d="M486.5,238.1v-4.9L279.9,352.4v4.8c20.2-11.7,79.2-45.7,132.7-76.6
		C444.8,262.1,473.4,245.6,486.5,238.1 M488.7,231.3v7.5l0,0c0,0.4-0.2,0.8-0.5,1c-12.8,7.3-41.7,24-74.4,42.9
		c-49.6,28.6-112.3,64.8-133.9,77.2l-0.1,0.1l-0.1,0c-0.3,0.2-0.6,0.2-0.9,0.2c-0.6,0-1.1-0.5-1.1-1.1v-7.2l0,0c0-0.4,0.2-0.8,0.5-1
		L487,230.4c0.2-0.1,0.4-0.2,0.6-0.2C488.2,230.2,488.7,230.7,488.7,231.3"/>
	<g id="Group_961" class="st20">
		<g id="Group_960">
			<g>
				<defs>
					<rect id="SVGID_00000136377914715476026940000004605209896211369619_" x="135.5" y="234.5" width="82.8" height="19.5"/>
				</defs>
				<clipPath id="SVGID_00000183239601475543684260000001242094671196354438_">
					<use xlink:href="#SVGID_00000136377914715476026940000004605209896211369619_"  style="overflow:visible;"/>
				</clipPath>
				<g id="Group_959" style="clip-path:url(#SVGID_00000183239601475543684260000001242094671196354438_);">
					<path id="Path_865" class="st18" d="M137.6,247.4c-1.2-0.6-2-1.8-2.2-3.1c0-4,10.1-7.5,25.6-9c5-0.5,10.3-0.7,15.8-0.7
						s10.7,0.2,15.8,0.7c10.1,1,18.2,2.9,22.4,5.2c2.1,1.2,3.2,2.5,3.2,3.8c0,1.3-1.1,2.6-3.2,3.8c-4.2,2.4-12.4,4.3-22.4,5.2
						c-5,0.5-10.3,0.7-15.8,0.7c-5.4,0-10.8-0.2-15.8-0.7c-10.1-1-18.2-2.9-22.4-5.2C138.3,247.9,137.9,247.6,137.6,247.4"/>
				</g>
			</g>
		</g>
	</g>
	<g id="Group_964" class="st22">
		<g id="Group_963">
			<g>
				<defs>
					<rect id="SVGID_00000168114336787426642650000014432284543298000028_" x="139.4" y="235.3" width="77.7" height="18.3"/>
				</defs>
				<clipPath id="SVGID_00000148623646248546597780000010019952016760455082_">
					<use xlink:href="#SVGID_00000168114336787426642650000014432284543298000028_"  style="overflow:visible;"/>
				</clipPath>
				<g id="Group_962" style="clip-path:url(#SVGID_00000148623646248546597780000010019952016760455082_);">
					<path id="Path_866" class="st18" d="M141.4,247.4c-1.1-0.6-1.9-1.7-2-2.9c0-3.7,9.4-7,24.1-8.5c4.7-0.5,9.7-0.7,14.8-0.7
						c5.1,0,10.1,0.2,14.8,0.7c9.4,0.9,17.1,2.7,21,4.9c2,1.1,3,2.3,3,3.5c0,1.2-1,2.4-3,3.5c-3.9,2.2-11.6,4-21,4.9
						c-4.7,0.5-9.7,0.7-14.8,0.7s-10.1-0.2-14.8-0.7c-9.4-0.9-17.1-2.7-21-4.9C142,247.8,141.7,247.6,141.4,247.4"/>
				</g>
			</g>
		</g>
	</g>
	<g id="Group_967" class="st24">
		<g id="Group_966">
			<g>
				<defs>
					<rect id="SVGID_00000036944112124924941220000000783726443764727968_" x="143.2" y="236.1" width="72.6" height="17.1"/>
				</defs>
				<clipPath id="SVGID_00000140710833142776470510000016084862264069582270_">
					<use xlink:href="#SVGID_00000036944112124924941220000000783726443764727968_"  style="overflow:visible;"/>
				</clipPath>
				<g id="Group_965" style="clip-path:url(#SVGID_00000140710833142776470510000016084862264069582270_);">
					<path id="Path_867" class="st18" d="M145.1,247.4c-1-0.5-1.8-1.6-1.9-2.7c0-3.5,8.8-6.6,22.5-7.9c4.4-0.4,9-0.6,13.8-0.6
						c4.8,0,9.4,0.2,13.8,0.6c6.8,0.3,13.4,1.9,19.6,4.6c1.9,1.1,2.8,2.2,2.8,3.3c0,1.1-1,2.3-2.8,3.3c-6.2,2.7-12.9,4.3-19.6,4.6
						c-4.4,0.4-9.1,0.6-13.8,0.6s-9.4-0.2-13.8-0.6c-6.8-0.3-13.4-1.9-19.6-4.6C145.7,247.7,145.4,247.5,145.1,247.4"/>
				</g>
			</g>
		</g>
	</g>
	<g id="Group_970" class="st26">
		<g id="Group_969">
			<g>
				<defs>
					<rect id="SVGID_00000108990610105746931490000017011297498499209907_" x="147.1" y="236.8" width="67.5" height="15.9"/>
				</defs>
				<clipPath id="SVGID_00000044145479591069157570000001059229024474710203_">
					<use xlink:href="#SVGID_00000108990610105746931490000017011297498499209907_"  style="overflow:visible;"/>
				</clipPath>
				<g id="Group_968" style="clip-path:url(#SVGID_00000044145479591069157570000001059229024474710203_);">
					<path id="Path_868" class="st18" d="M148.9,247.3c-1-0.5-1.6-1.5-1.8-2.5c0-3.2,8.2-6.1,20.9-7.3c4.1-0.4,8.4-0.6,12.8-0.6
						c4.4,0,8.8,0.2,12.9,0.6c6.3,0.3,12.5,1.7,18.3,4.3c1.7,1,2.6,2,2.6,3.1c0,1.1-0.9,2.1-2.6,3.1c-5.8,2.5-12,4-18.3,4.3
						c-4.1,0.4-8.4,0.6-12.9,0.6s-8.8-0.2-12.9-0.6c-6.3-0.3-12.5-1.7-18.3-4.3C149.4,247.7,149.2,247.5,148.9,247.3"/>
				</g>
			</g>
		</g>
	</g>
	<g id="Group_973" class="st28">
		<g id="Group_972">
			<g>
				<defs>
					<rect id="SVGID_00000173854960555387155740000017113954920775236247_" x="151" y="237.6" width="62.4" height="14.7"/>
				</defs>
				<clipPath id="SVGID_00000166668444549881765590000015151079605282780333_">
					<use xlink:href="#SVGID_00000173854960555387155740000017113954920775236247_"  style="overflow:visible;"/>
				</clipPath>
				<g id="Group_971" style="clip-path:url(#SVGID_00000166668444549881765590000015151079605282780333_);">
					<path id="Path_869" class="st18" d="M152.7,247.3c-0.9-0.5-1.5-1.3-1.6-2.3c0-3,7.6-5.7,19.3-6.8c3.8-0.4,7.8-0.6,11.9-0.5
						c4.1,0,8.1,0.2,11.9,0.5c5.8,0.3,11.5,1.6,16.9,3.9c1.6,0.9,2.4,1.9,2.4,2.8c0,1-0.8,1.9-2.4,2.8c-5.3,2.3-11.1,3.7-16.9,3.9
						c-3.8,0.4-7.8,0.5-11.9,0.5s-8.1-0.2-11.9-0.5c-5.8-0.3-11.5-1.6-16.9-3.9C153.2,247.6,152.9,247.5,152.7,247.3"/>
				</g>
			</g>
		</g>
	</g>
	<g id="Group_976" class="st30">
		<g id="Group_975">
			<g>
				<defs>
					<rect id="SVGID_00000052089370101862575720000010313228453014744743_" x="154.9" y="238.4" width="57.2" height="13.5"/>
				</defs>
				<clipPath id="SVGID_00000150093912010963094640000006057615074545286580_">
					<use xlink:href="#SVGID_00000052089370101862575720000010313228453014744743_"  style="overflow:visible;"/>
				</clipPath>
				<g id="Group_974" style="clip-path:url(#SVGID_00000150093912010963094640000006057615074545286580_);">
					<path id="Path_870" class="st18" d="M156.4,247.3c-0.8-0.4-1.4-1.2-1.5-2.2c0-2.7,7-5.2,17.7-6.2c3.5-0.3,7.1-0.5,10.9-0.5
						c3.8,0,7.4,0.2,10.9,0.5c5.3,0.3,10.6,1.5,15.5,3.6c1.5,0.8,2.2,1.7,2.2,2.6c0,0.9-0.7,1.8-2.2,2.6c-4.9,2.1-10.2,3.4-15.5,3.6
						c-3.5,0.3-7.1,0.5-10.9,0.5c-3.8,0-7.4-0.2-10.9-0.5c-5.3-0.3-10.6-1.5-15.5-3.6C156.9,247.6,156.6,247.4,156.4,247.3"/>
				</g>
			</g>
		</g>
	</g>
	<g id="Group_979" class="st32">
		<g id="Group_978">
			<g>
				<defs>
					<rect id="SVGID_00000165235720107641814140000017261493605243557002_" x="158.8" y="239.1" width="52.1" height="12.3"/>
				</defs>
				<clipPath id="SVGID_00000138545755474583298110000012569808457572814987_">
					<use xlink:href="#SVGID_00000165235720107641814140000017261493605243557002_"  style="overflow:visible;"/>
				</clipPath>
				<g id="Group_977" style="clip-path:url(#SVGID_00000138545755474583298110000012569808457572814987_);">
					<path id="Path_871" class="st18" d="M160.2,247.2c-0.8-0.4-1.3-1.1-1.4-2c0-2.5,6.3-4.7,16.1-5.7c3.2-0.3,6.5-0.5,9.9-0.5
						s6.8,0.2,9.9,0.5c4.9,0.2,9.6,1.4,14.1,3.3c1.3,0.8,2,1.6,2,2.4c0,0.8-0.7,1.6-2,2.4c-4.5,1.9-9.2,3.1-14.1,3.3
						c-3.2,0.3-6.5,0.5-9.9,0.5s-6.8-0.2-9.9-0.5c-4.9-0.2-9.6-1.4-14.1-3.3C160.6,247.5,160.4,247.4,160.2,247.2"/>
				</g>
			</g>
		</g>
	</g>
	<g id="Group_982" class="st34">
		<g id="Group_981">
			<g>
				<defs>
					<rect id="SVGID_00000142151684404761020320000010804648164301198518_" x="162.7" y="239.9" width="47" height="11.1"/>
				</defs>
				<clipPath id="SVGID_00000016065536147239553990000015835034707133423272_">
					<use xlink:href="#SVGID_00000142151684404761020320000010804648164301198518_"  style="overflow:visible;"/>
				</clipPath>
				<g id="Group_980" style="clip-path:url(#SVGID_00000016065536147239553990000015835034707133423272_);">
					<path id="Path_872" class="st18" d="M164,247.2c-0.7-0.4-1.1-1-1.2-1.8c0-2.3,5.7-4.3,14.6-5.1c2.8-0.3,5.9-0.4,8.9-0.4
						c3.1,0,6.1,0.1,9,0.4c4.4,0.2,8.7,1.2,12.7,3c1.2,0.7,1.8,1.4,1.8,2.1s-0.6,1.5-1.8,2.1c-4,1.7-8.3,2.8-12.7,3
						c-2.8,0.3-5.9,0.4-9,0.4s-6.1-0.1-9-0.4c-4.4-0.2-8.7-1.2-12.7-3C164.3,247.5,164.1,247.3,164,247.2"/>
				</g>
			</g>
		</g>
	</g>
	<g id="Group_985" class="st36">
		<g id="Group_984">
			<g>
				<defs>
					<rect id="SVGID_00000006707349315847233070000015202514320040960155_" x="166.6" y="240.7" width="41.9" height="9.9"/>
				</defs>
				<clipPath id="SVGID_00000034051254317889929980000009118221515181064608_">
					<use xlink:href="#SVGID_00000006707349315847233070000015202514320040960155_"  style="overflow:visible;"/>
				</clipPath>
				<g id="Group_983" style="clip-path:url(#SVGID_00000034051254317889929980000009118221515181064608_);">
					<path id="Path_873" class="st18" d="M167.7,247.2c-0.6-0.3-1-0.9-1.1-1.6c0-2,5.1-3.8,13-4.6c2.5-0.3,5.2-0.4,8-0.4
						s5.4,0.1,8,0.4c3.9,0.2,7.7,1.1,11.3,2.6c1.1,0.6,1.6,1.2,1.6,1.9c0,0.7-0.5,1.3-1.6,1.9c-3.6,1.6-7.4,2.5-11.3,2.6
						c-2.5,0.2-5.2,0.4-8,0.4s-5.4-0.1-8-0.4c-3.9-0.2-7.7-1.1-11.3-2.6C168,247.4,167.9,247.3,167.7,247.2"/>
				</g>
			</g>
		</g>
	</g>
	<g id="Group_988" class="st38">
		<g id="Group_987">
			<g>
				<defs>
					<rect id="SVGID_00000163755263793380380450000005905193223433069197_" x="170.5" y="241.4" width="36.8" height="8.6"/>
				</defs>
				<clipPath id="SVGID_00000098218741197317445630000005123454435789357499_">
					<use xlink:href="#SVGID_00000163755263793380380450000005905193223433069197_"  style="overflow:visible;"/>
				</clipPath>
				<g id="Group_986" style="clip-path:url(#SVGID_00000098218741197317445630000005123454435789357499_);">
					<path id="Path_874" class="st18" d="M171.5,247.1c-0.5-0.3-0.9-0.8-1-1.4c0-1.8,4.5-3.3,11.4-4c2.2-0.2,4.6-0.3,7-0.3
						c2.4,0,4.8,0.1,7,0.3c3.4,0.2,6.8,1,9.9,2.3c0.9,0.5,1.4,1.1,1.4,1.7c0,0.6-0.5,1.1-1.4,1.7c-3.1,1.4-6.5,2.2-9.9,2.3
						c-2.2,0.2-4.6,0.3-7,0.3c-2.4,0-4.8-0.1-7-0.3c-3.4-0.2-6.8-1-10-2.3C171.8,247.3,171.6,247.2,171.5,247.1"/>
				</g>
			</g>
		</g>
	</g>
	<g id="Group_991" class="st40">
		<g id="Group_990">
			<g>
				<defs>
					<rect id="SVGID_00000181792159076876944750000002032358707517642886_" x="174.4" y="242.2" width="31.6" height="7.4"/>
				</defs>
				<clipPath id="SVGID_00000102504115889499119960000015440019346779160759_">
					<use xlink:href="#SVGID_00000181792159076876944750000002032358707517642886_"  style="overflow:visible;"/>
				</clipPath>
				<g id="Group_989" style="clip-path:url(#SVGID_00000102504115889499119960000015440019346779160759_);">
					<path id="Path_875" class="st18" d="M175.2,247.1c-0.5-0.2-0.8-0.7-0.8-1.2c0-1.5,3.8-2.9,9.8-3.4c4-0.4,8-0.4,12.1,0
						c2.9,0.1,5.8,0.8,8.6,2c0.8,0.5,1.2,0.9,1.2,1.4s-0.4,1-1.2,1.4c-2.7,1.2-5.6,1.9-8.6,2c-1.9,0.2-3.9,0.3-6,0.3s-4.1-0.1-6-0.3
						c-3-0.1-5.9-0.8-8.6-2C175.5,247.3,175.3,247.2,175.2,247.1"/>
				</g>
			</g>
		</g>
	</g>
	<g id="Group_994" class="st42">
		<g id="Group_993">
			<g>
				<defs>
					<rect id="SVGID_00000174587910259115602200000010429541902966611874_" x="178.3" y="243" width="26.5" height="6.2"/>
				</defs>
				<clipPath id="SVGID_00000101788879329612466330000000831866879646073998_">
					<use xlink:href="#SVGID_00000174587910259115602200000010429541902966611874_"  style="overflow:visible;"/>
				</clipPath>
				<g id="Group_992" style="clip-path:url(#SVGID_00000101788879329612466330000000831866879646073998_);">
					<path id="Path_876" class="st18" d="M179,247.1c-0.4-0.2-0.6-0.6-0.7-1c0-1.3,3.2-2.4,8.2-2.9c1.6-0.2,3.3-0.2,5-0.2
						c1.7,0,3.4,0.1,5.1,0.2c2.5,0.1,4.9,0.7,7.2,1.7c0.7,0.4,1,0.8,1,1.2c0,0.4-0.3,0.8-1,1.2c-2.3,1-4.7,1.6-7.2,1.7
						c-1.6,0.2-3.3,0.2-5.1,0.2s-3.4-0.1-5.1-0.2c-2.5-0.1-4.9-0.7-7.2-1.7C179.2,247.2,179.1,247.1,179,247.1"/>
				</g>
			</g>
		</g>
	</g>
	<g id="Group_997" class="st44">
		<g id="Group_996">
			<g>
				<defs>
					<rect id="SVGID_00000139988584878436742190000014156651925515100805_" x="182.2" y="243.7" width="21.4" height="5"/>
				</defs>
				<clipPath id="SVGID_00000048494024884032397690000010879083853659711913_">
					<use xlink:href="#SVGID_00000139988584878436742190000014156651925515100805_"  style="overflow:visible;"/>
				</clipPath>
				<g id="Group_995" style="clip-path:url(#SVGID_00000048494024884032397690000010879083853659711913_);">
					<path id="Path_877" class="st18" d="M182.8,247c-0.4-0.3-0.6-0.5-0.6-0.8c0-1,2.6-1.9,6.6-2.3c1.3-0.1,2.7-0.2,4.1-0.2
						s2.8,0.1,4.1,0.2c2,0.1,4,0.6,5.8,1.4c0.6,0.3,0.8,0.6,0.8,1c0,0.3-0.3,0.7-0.8,1c-1.8,0.8-3.8,1.2-5.8,1.3
						c-1.3,0.1-2.7,0.2-4.1,0.2c-1.4,0-2.8-0.1-4.1-0.2c-2-0.1-4-0.6-5.8-1.3C182.9,247.2,182.8,247.1,182.8,247"/>
				</g>
			</g>
		</g>
	</g>
	<g id="Group_1000" class="st46">
		<g id="Group_999">
			<g>
				<defs>
					<rect id="SVGID_00000093886659867196075900000005439489827091336589_" x="186.1" y="244.5" width="16.3" height="3.8"/>
				</defs>
				<clipPath id="SVGID_00000009570390550891405890000010209916340727565492_">
					<use xlink:href="#SVGID_00000093886659867196075900000005439489827091336589_"  style="overflow:visible;"/>
				</clipPath>
				<g id="Group_998" style="clip-path:url(#SVGID_00000009570390550891405890000010209916340727565492_);">
					<path id="Path_878" class="st18" d="M186.5,247c-0.2-0.1-0.4-0.4-0.4-0.6c0-0.8,2-1.5,5-1.8c1-0.1,2-0.1,3.1-0.1
						c1.1,0,2.1,0,3.1,0.1c1.5,0.1,3,0.4,4.4,1c0.4,0.2,0.6,0.5,0.6,0.7s-0.2,0.5-0.6,0.7c-1.4,0.6-2.9,1-4.4,1
						c-1,0.1-2.1,0.1-3.1,0.1c-1.1,0-2.1,0-3.1-0.1c-1.5-0.1-3-0.4-4.4-1C186.6,247.1,186.6,247.1,186.5,247"/>
				</g>
			</g>
		</g>
	</g>
	<path id="Path_879" class="st48" d="M194.1,201.9c1.3,0.5,2.2,1.8,2.2,3.3c0,0.1,0,0.2,0,0.3l0.6,18.9l-1.1,18.7l5,3
		c0,0.4-0.3,0.8-0.7,1c-0.5,0.3-1.1,0.4-1.8,0.4l-5.8-2.7c-0.4-0.2-0.7-0.6-0.7-1v-0.1l0.4-18.7l-1.1-13l-0.9,0l-1,16.6l-2.2,19.1
		l5,3.1c0,0.4-0.3,0.8-0.7,1c-0.5,0.3-1.1,0.4-1.8,0.4l-5.7-2.7c-0.3-0.1-0.5-0.4-0.6-0.6c-0.1-0.3-0.1-0.6-0.1-1l1.1-19.4
		l-0.7-19.9c0-0.1,0-0.2,0-0.3c0-2.1,1.3-2.7,2.8-3.6l3-1.7l1.4-0.8C191.8,201.7,193,201.5,194.1,201.9"/>
	<path id="Path_880" class="st49" d="M194.4,201c0.8,0.3,1.6,0.9,2.1,1.7c0.5,0.7,0.8,1.6,0.8,2.5v0.3l0.6,18.8c0,0,0,0.1,0,0.1
		l-1,18.1l4.5,2.7c0.3,0.2,0.5,0.5,0.5,0.9c0,0.4-0.1,0.8-0.4,1.1l0,0c-0.2,0.3-0.5,0.6-0.9,0.7c-0.3,0.2-0.7,0.3-1.1,0.4
		c-0.4,0.1-0.8,0.1-1.2,0.1c-0.2,0-0.3,0-0.5-0.1l-5.7-2.7c0,0-0.1,0-0.1-0.1c-0.3-0.2-0.6-0.4-0.8-0.7l0,0
		c-0.2-0.3-0.4-0.7-0.4-1.1c0,0,0-0.1,0-0.1c0.3-6,0.2-12.5,0.4-18.6l-0.4-5.2l-0.5,8.8v0.1l-2.2,18.5l4.5,2.8
		c0.3,0.2,0.5,0.5,0.5,0.9l0,0c0,0.4-0.1,0.8-0.4,1.1l0,0c-0.2,0.3-0.5,0.6-0.9,0.7c-0.3,0.2-0.7,0.3-1.1,0.4
		c-0.4,0.1-0.8,0.1-1.2,0.1c-0.2,0-0.3,0-0.5-0.1l-5.6-2.6c0,0-0.1,0-0.1-0.1c-0.2-0.1-0.4-0.3-0.6-0.4c-0.2-0.2-0.3-0.4-0.4-0.6
		c-0.2-0.4-0.2-0.8-0.2-1.3c0.4-6.5,0.7-13.1,1.1-19.6l-0.6-19.8l0,0l0-0.4c0-2.6,1.5-3.4,3.2-4.4l0.1-0.1l0,0
		c1.5-0.8,3-1.7,4.5-2.5c0.6-0.3,1.3-0.6,2-0.7C193.1,200.6,193.8,200.7,194.4,201 M194.9,203.8c-0.3-0.4-0.7-0.7-1.2-0.9
		c-0.4-0.1-0.7-0.2-1.1-0.1c-0.4,0.1-0.9,0.2-1.2,0.4l-4.4,2.5l-0.1,0.1c-1.2,0.7-2.2,1.2-2.2,2.7v0.1v0.1l0.7,19.9c0,0,0,0.1,0,0.1
		l-1.1,19.6l0,0.3c0,0,0,0,0,0.1c0,0,0.1,0.1,0.2,0.1l5.4,2.6c0.2,0,0.4,0,0.5-0.1c0.1,0,0.2-0.1,0.3-0.1l-4-2.5
		c-0.4-0.2-0.6-0.6-0.5-1l2.2-19.1l1-16.5c0-0.5,0.4-0.9,1-0.9l0.8,0h0c0.5,0,1,0.4,1.1,0.9c0,0,0,0,0,0l1.1,13l0,0c0,0,0,0.1,0,0.1
		l-0.4,18.6c0,0,0,0.1,0,0.1c0.1,0.1,0.1,0.1,0.2,0.1l5.5,2.6c0.2,0,0.3,0,0.5-0.1c0.1,0,0.2,0,0.3-0.1l-4-2.4
		c-0.3-0.2-0.5-0.5-0.5-0.9l1.1-18.7l-0.6-18.7c0-0.1,0-0.1,0-0.2c0-0.1,0-0.1,0-0.2C195.3,204.7,195.1,204.2,194.9,203.8
		L194.9,203.8z M192.9,243.8L192.9,243.8z"/>
	<path id="Path_881" class="st50" d="M195.8,243.1l5,3c0,0.4-0.3,0.8-0.7,1c-0.5,0.3-1.1,0.4-1.8,0.4l-5.8-2.7
		c-0.3-0.2-0.6-0.5-0.7-0.8C193.9,244.2,194.9,244.2,195.8,243.1"/>
	<path id="Path_882" class="st49" d="M196.3,242.2l5,3c0.3,0.2,0.5,0.5,0.5,0.9c0,0.4-0.1,0.8-0.4,1.1l0,0c-0.2,0.3-0.5,0.6-0.9,0.7
		c-0.3,0.2-0.7,0.3-1.1,0.4c-0.4,0.1-0.8,0.1-1.2,0.1c-0.2,0-0.3,0-0.5-0.1l-5.7-2.7c0,0-0.1,0-0.1,0c-0.3-0.2-0.5-0.3-0.7-0.6
		c-0.2-0.2-0.4-0.5-0.4-0.9c-0.1-0.5,0.2-1.1,0.7-1.2c0,0,0,0,0,0c0.1,0,0.3,0,0.4,0c0.7,0.1,1.4,0.2,2,0.1c0.4-0.1,0.7-0.3,1-0.6
		C195.3,242,195.9,241.9,196.3,242.2L196.3,242.2z M199.3,246.3l-3.3-2c-0.3,0.2-0.6,0.4-0.9,0.5l3.4,1.6c0.2,0,0.3,0,0.5-0.1
		C199.1,246.4,199.2,246.4,199.3,246.3"/>
	<path id="Path_883" class="st50" d="M187,247.7l5,3.1c0,0.4-0.3,0.8-0.7,1c-0.5,0.3-1.1,0.4-1.8,0.4l-5.7-2.7
		c-0.3-0.1-0.5-0.4-0.6-0.6c0-0.1-0.1-0.1-0.1-0.2C185.1,249,186.1,248.9,187,247.7"/>
	<path id="Path_884" class="st49" d="M187.5,246.9l5,3.1c0.3,0.2,0.5,0.5,0.5,0.9l0,0c0,0.4-0.1,0.8-0.4,1.1l0,0
		c-0.2,0.3-0.5,0.6-0.9,0.7c-0.3,0.2-0.7,0.3-1.1,0.4c-0.4,0.1-0.8,0.1-1.2,0.1c-0.2,0-0.4,0-0.5-0.1l-5.6-2.6c0,0-0.1,0-0.1-0.1
		c-0.2-0.1-0.4-0.3-0.6-0.4c-0.2-0.2-0.3-0.4-0.4-0.6c0-0.1-0.1-0.2-0.1-0.2c0-0.1,0-0.1-0.1-0.2c-0.1-0.5,0.2-1.1,0.8-1.2
		c0.1,0,0.2,0,0.3,0c0.6,0.1,1.3,0.2,2,0.1c0.4-0.1,0.7-0.3,1-0.7C186.5,246.7,187.1,246.6,187.5,246.9 M190.6,251.1l-3.4-2.1
		c-0.3,0.2-0.6,0.4-0.9,0.6l3.5,1.7C190.1,251.2,190.3,251.2,190.6,251.1"/>
	<path id="Path_885" class="st48" d="M208.2,196.6l-10.4-1.2c0,0-0.1-0.1-0.1-0.1c-0.2-0.2-0.3-0.5-0.4-0.7l-6.2-14.5l5.1-1.8
		l4,14.5l8.3,1.2l4.7,0l0.6,1l-0.8,1.2l-1.2,1.3C209.8,197.6,209.7,196.9,208.2,196.6"/>
	<path id="Path_886" class="st49" d="M208.1,197.6l-10.3-1.2c-0.2,0-0.5-0.1-0.6-0.3l0,0l-0.1-0.1c-0.1-0.2-0.3-0.3-0.4-0.5
		c-0.1-0.2-0.2-0.3-0.2-0.5l-6.2-14.5c-0.2-0.5,0-1.1,0.5-1.3c0,0,0,0,0,0c0,0,0.1,0,0.1,0l5.1-1.8c0.5-0.2,1.1,0.1,1.3,0.6
		c0,0,0,0,0,0l0,0.1l3.9,13.9l7.6,1.1l4.7,0c0.4,0,0.7,0.2,0.9,0.5l0.6,1c0.2,0.3,0.2,0.8-0.1,1.1l-0.8,1.2c0,0-0.1,0.1-0.1,0.1
		l-1.2,1.3c-0.2,0.2-0.4,0.3-0.7,0.3l0,0c-1,0.1-2,0-2.9-0.5l0,0C208.7,197.8,208.4,197.6,208.1,197.6 M198.4,194.4l9.9,1.2
		c0.1,0,0.2,0,0.2,0.1c0.5,0.1,0.9,0.3,1.3,0.5c0.5,0.2,1,0.4,1.5,0.3l0.9-0.9l0.4-0.6h-4c-0.1,0-0.1,0-0.2,0l-8.3-1.2
		c-0.4-0.1-0.7-0.3-0.8-0.7l-3.7-13.5l-3.1,1.1l5.8,13.5l0,0.1C198.3,194.2,198.4,194.3,198.4,194.4L198.4,194.4z"/>
	<path id="Path_887" class="st50" d="M196.3,197l-0.4-3.7l1.2-4.5c1-3.5,1.2-9-1.6-11.8c-1.2-1.1-2.7-1.9-3.5-1.4l-7.3,4.2
		c-1.4,0.7-2.3,2-2.6,3.5l1.6,13.8l-0.4,2.2c-5.1,11.4-0.1,17-0.1,23.2c5.7,0.7,11.1-2.2,13.8-7.3C197,213.4,198.1,203.9,196.3,197"
		/>
	<path id="Path_888" class="st49" d="M195.3,197.1l-0.4-3.7c0-0.1,0-0.3,0-0.4l1.2-4.5c0.6-2.1,0.8-4.4,0.5-6.6
		c-0.1-1.6-0.8-3.1-1.8-4.3c-0.5-0.5-1-0.9-1.6-1.1c-0.2-0.1-0.5-0.2-0.7-0.1l-0.1,0l-7.2,4.2l0,0c-0.6,0.3-1.1,0.8-1.5,1.3
		c-0.3,0.4-0.5,0.8-0.5,1.2l1.6,13.8c0,0.1,0,0.2,0,0.3l-0.4,2.2c0,0.1,0,0.2-0.1,0.3c-2.5,5.2-2.9,11.3-1,16.8
		c0.5,1.7,0.8,3.4,1,5.1c2.2,0.2,4.5-0.3,6.5-1.4c2.3-1.1,4.1-2.9,5.3-5.2c0-0.5,0-1.4,0.1-2.4c0.4-5.1,0.2-10.3-0.8-15.4
		C195.3,197.2,195.3,197.2,195.3,197.1 M197,193.4l0.4,3.4c1,5.2,1.2,10.6,0.8,15.9c-0.1,1.2-0.1,2.1-0.1,2.5c0,0.2,0,0.3-0.1,0.5
		c-1.4,2.7-3.6,4.9-6.3,6.3c-2.6,1.5-5.6,2-8.6,1.5c-0.5-0.1-0.8-0.5-0.8-1c-0.1-1.9-0.4-3.7-0.9-5.5c-2-5.9-1.6-12.3,1.1-18l0.3-2
		l-1.5-13.7c0,0,0-0.1,0-0.1c0-0.9,0.4-1.7,0.9-2.4c0.6-0.8,1.3-1.4,2.2-1.9l0,0l7.2-4.2l0,0c0.8-0.4,1.7-0.4,2.4,0
		c0.9,0.4,1.6,0.9,2.3,1.6c1.4,1.5,2.2,3.4,2.4,5.4c0.3,2.5,0.1,5-0.6,7.4L197,193.4z"/>
	<path id="Path_889" class="st48" d="M178.2,205.5l-0.6,4.7l-1.1,0.5l-1.2,4l-1.3-0.9c-0.2-3,0.4-6,1.6-8.7l1.1-9.9
		c0-0.3,0.1-0.6,0.3-0.8c1.8-3.6,3-7.3,4.8-10.7c1.7-3.1,5.4,0.3,3.7,3l-5.2,8.5L178.2,205.5z"/>
	<path id="Path_890" class="st49" d="M179.2,205.7l-0.6,4.7c0,0.4-0.3,0.7-0.6,0.8l-0.6,0.2l-1,3.5c-0.2,0.5-0.7,0.8-1.2,0.7
		c0,0,0,0,0,0c-0.1,0-0.2-0.1-0.3-0.1l-1.3-0.9c-0.3-0.2-0.5-0.6-0.4-0.9l0-0.6c0-1.4,0.1-2.8,0.3-4.2c0.2-0.9,0.5-1.8,0.8-2.7
		l0.5-1.3l1.1-9.8c0-0.2,0.1-0.4,0.1-0.6c0.1-0.2,0.2-0.4,0.3-0.6l0,0c0.7-1.5,1.4-3.1,2.1-4.7c0.8-2,1.7-4,2.7-6
		c0.5-1.1,1.6-1.8,2.8-1.8c0.5,0,1,0.2,1.4,0.5c1.7,1.2,2.2,3.5,1.2,5.3l-5.1,8.4L179.2,205.7z M176.7,209.6l0.6-4.1
		c0,0,0-0.1,0-0.1l2.2-10.2c0-0.1,0.1-0.2,0.1-0.3l5.1-8.5l0,0l0,0c0.4-0.6,0.4-1.5-0.1-2.1c-0.1-0.2-0.3-0.4-0.5-0.5
		c-0.1-0.1-0.3-0.2-0.5-0.2c-0.3,0-0.6,0.2-0.9,0.7c-1,1.8-1.8,3.8-2.6,5.8c-0.7,1.6-1.3,3.2-2.1,4.8c0,0,0,0.1-0.1,0.1
		c0,0.1-0.1,0.1-0.1,0.2c0,0.1,0,0.1,0,0.2v0.1l-1.1,9.9c0,0.1,0,0.2,0,0.2c-0.2,0.4-0.3,1-0.5,1.4c-0.3,0.8-0.6,1.6-0.7,2.4
		c-0.1,0.8-0.2,1.6-0.2,2.4l0.4-1.3c0.1-0.3,0.3-0.5,0.6-0.6L176.7,209.6z"/>
	<path id="Path_891" class="st48" d="M188.4,175l4.4,0.8l-0.4,4.2c0,0,0,0.1,0,0.1c-0.1,0.4-0.5,0.8-0.9,0.9
		c-1.2,0.4-2.6,0.1-3.6-0.7c-0.4-0.3-0.6-0.7-0.5-1.2c0,0,0-0.1,0-0.1L188.4,175z"/>
	<path id="Path_892" class="st49" d="M188.6,174.1l4.3,0.8c0.5,0.1,0.9,0.6,0.8,1.1l-0.4,4.2v0.1c0,0,0,0.1,0,0.1
		c-0.1,0.4-0.3,0.8-0.6,1.1c-0.3,0.3-0.6,0.5-1,0.6c-1.6,0.5-3.3,0.2-4.6-0.8c-0.3-0.2-0.5-0.6-0.7-0.9c-0.2-0.4-0.2-0.8-0.2-1.2
		c0-0.1,0-0.1,0-0.1l0,0l0-0.1l1.1-4.1C187.6,174.3,188.1,173.9,188.6,174.1 M191.7,176.7l-2.6-0.5l-0.8,3.2v0l0,0
		c0,0.1,0.1,0.2,0.2,0.2c0.7,0.5,1.7,0.7,2.6,0.5c0.1,0,0.2-0.1,0.3-0.1L191.7,176.7z M191.3,180L191.3,180z M188.3,179.5
		L188.3,179.5C188.3,179.5,188.3,179.5,188.3,179.5"/>
	<path id="Path_893" class="st48" d="M192.7,164.1c-2.3-0.5-4.6,0.9-5.1,3.3c0,0.1,0,0.1,0,0.2l-0.5,5.3c-0.6,2.1,0.7,4.3,2.8,4.9
		c2.1,0.6,4.3-0.7,4.9-2.8c0.1-0.2,0.1-0.4,0.1-0.7l1.4-5.1c0.5-2.3-1.1-4.6-3.4-5C192.8,164.1,192.7,164.1,192.7,164.1"/>
	<path id="Path_894" class="st49" d="M192.5,165.1c-0.1,0-0.2,0-0.3,0c-0.8-0.1-1.7,0.1-2.4,0.6c-0.7,0.4-1.1,1.1-1.3,1.8v0
		c0,0.1,0,0.1,0,0.2l-0.5,5.3c-0.1,1,0.1,1.9,0.5,2.8c0.4,0.6,1.1,1.1,1.8,1.2c0.7,0.2,1.5,0,2.1-0.5c0.7-0.6,1.2-1.5,1.5-2.4
		l1.4-5.1c0-0.1,0-0.2,0.1-0.2c0.1-0.7-0.1-1.5-0.5-2.1c-0.5-0.7-1.2-1.2-2-1.4C192.7,165.1,192.6,165.1,192.5,165.1 M192.4,163
		c0.2,0,0.3,0,0.5,0.1c0.2,0,0.4,0.1,0.5,0.1c1.2,0.4,2.3,1.1,3.1,2.2c0.8,1,1.1,2.4,0.9,3.6c0,0.1-0.1,0.3-0.1,0.4l-1.4,5.1
		c-0.3,1.4-1.1,2.6-2.2,3.4c-2.1,1.6-5.1,1.1-6.7-1.1c0-0.1-0.1-0.1-0.1-0.2c-0.7-1.2-1-2.6-0.8-4l0.5-5.3c0-0.1,0-0.2,0-0.4v0
		c0.3-1.3,1-2.4,2.2-3.1C189.8,163.2,191.1,162.9,192.4,163"/>
	<path id="Path_895" class="st19" d="M190.5,170.8l-1.5,7.8c-0.4,1-1.3,1.7-2.4,1.8l-2.7-0.5c2.2-3.9,1.4-7.3,2.1-11
		c0.8-4,3-6.9,7-6.2c2.6,0.3,4.4,2.7,4,5.3c0,0.2-0.1,0.4-0.1,0.6l-1.6,0.5L190.5,170.8z"/>
	<path id="Path_896" class="st49" d="M191.4,171.5l-1.4,7.2v0c0,0,0,0.1,0,0.1c-0.3,0.7-0.8,1.4-1.4,1.8c-0.6,0.5-1.4,0.7-2.1,0.7
		c-0.8-0.1-1.9-0.3-2.7-0.5c-0.5-0.1-0.9-0.6-0.8-1.2c0,0,0,0,0,0c0-0.1,0.1-0.2,0.1-0.3c1.1-2.1,1.6-4.5,1.6-6.9
		c0-1.2,0.2-2.5,0.4-3.7c0.3-2.1,1.3-4.1,2.8-5.6c1.4-1.3,3.4-1.8,5.3-1.4l0,0l0.1,0c0,0,0.1,0,0.1,0c1.7,0.2,3.2,1.3,4,2.9
		c0.6,1.3,0.8,2.7,0.5,4l0,0l0,0l0,0.1c-0.1,0.4-0.4,0.7-0.7,0.8l-1.5,0.5L191.4,171.5z M188,178.3l1.5-7.7c0.1-0.4,0.3-0.7,0.7-0.8
		l4.8-1.7l1-0.3c0.1-0.8-0.1-1.6-0.4-2.3c-0.5-1-1.5-1.7-2.6-1.8l-0.2,0c-1.3-0.3-2.6,0.1-3.7,0.9c-1.2,1.2-2,2.8-2.2,4.5
		c-0.2,1.1-0.3,2.3-0.4,3.5c0,2.2-0.4,4.5-1.2,6.5c0.5,0.1,1,0.2,1.5,0.2c0.2-0.1,0.4-0.2,0.6-0.4
		C187.7,178.9,187.9,178.6,188,178.3L188,178.3z"/>
	<path id="Path_897" class="st48" d="M209,199l6.3-3.4l3.2-3.4l-6.3,3.4L209,199z"/>
	<path id="Path_898" class="st49" d="M215.8,196.4l-6.3,3.4c-0.5,0.3-1.1,0.1-1.4-0.3c-0.2-0.4-0.2-0.9,0.2-1.2l3.2-3.3
		c0.1-0.1,0.2-0.2,0.3-0.2l6.3-3.4l0,0c0.5-0.3,1.1-0.1,1.4,0.3c0.2,0.4,0.2,0.9-0.2,1.2l-3.2,3.3
		C216,196.3,215.9,196.3,215.8,196.4"/>
	<g id="Group_1003" class="st51">
		<g id="Group_1002">
			<g>
				<defs>
					<rect id="SVGID_00000057849949546229132150000011544060598410144668_" x="181.2" y="165.1" width="215.9" height="122.9"/>
				</defs>
				<clipPath id="SVGID_00000008108292134380389610000017501151361443330705_">
					<use xlink:href="#SVGID_00000057849949546229132150000011544060598410144668_"  style="overflow:visible;"/>
				</clipPath>
				<g id="Group_1001" style="clip-path:url(#SVGID_00000008108292134380389610000017501151361443330705_);">
					<path id="Path_899" class="st18" d="M311,287.8l-128.9-73c-0.7-0.2-1-0.9-0.8-1.6c0.1-0.4,0.4-0.7,0.8-0.8l81.1-46.8
						c1.3-0.7,2.8-0.7,4.1,0l4.4,2.6l2.6,1.5l114.8,64.8l2.3,1.3l4.8,2.8c0.7,0.2,1,0.9,0.8,1.6c-0.1,0.4-0.4,0.7-0.8,0.8L317,286.7
						C315.1,287.7,313,288.1,311,287.8"/>
				</g>
			</g>
		</g>
	</g>
	<g id="Group_1006" class="st53">
		<g id="Group_1005">
			<g>
				<defs>
					<rect id="SVGID_00000087379997017416285370000009928197214707425928_" x="183.8" y="166.1" width="211.1" height="120.3"/>
				</defs>
				<clipPath id="SVGID_00000014617749115222453420000009684196176260716449_">
					<use xlink:href="#SVGID_00000087379997017416285370000009928197214707425928_"  style="overflow:visible;"/>
				</clipPath>
				<g id="Group_1004" style="clip-path:url(#SVGID_00000014617749115222453420000009684196176260716449_);">
					<path id="Path_900" class="st18" d="M311.1,286.2c-42.2-23.9-84.3-47.8-126.5-71.7c-0.7-0.2-1-0.9-0.8-1.6
						c0.1-0.4,0.4-0.7,0.8-0.8l78.9-45.5c1.3-0.6,2.8-0.6,4.1,0c1.5,0.8,2.9,1.7,4.4,2.5c0.9,0.5,1.7,1,2.6,1.5
						c37.5,21.2,75,42.4,112.5,63.6c0.8,0.4,1.5,0.9,2.3,1.3c1.6,0.9,3.1,1.8,4.7,2.7c0.7,0.2,1,0.9,0.8,1.6
						c-0.1,0.4-0.4,0.7-0.8,0.8c-25.7,14.8-51.5,29.7-77.2,44.5C315.1,286.2,313.1,286.5,311.1,286.2"/>
				</g>
			</g>
		</g>
	</g>
	<g id="Group_1009" class="st55">
		<g id="Group_1008">
			<g>
				<defs>
					<rect id="SVGID_00000099649843047451405510000005904788303287024556_" x="186.4" y="167.2" width="206.3" height="117.6"/>
				</defs>
				<clipPath id="SVGID_00000082368229261415493530000010346264365143652513_">
					<use xlink:href="#SVGID_00000099649843047451405510000005904788303287024556_"  style="overflow:visible;"/>
				</clipPath>
				<g id="Group_1007" style="clip-path:url(#SVGID_00000082368229261415493530000010346264365143652513_);">
					<path id="Path_901" class="st18" d="M311.3,284.6c-41.3-23.5-82.7-46.9-124-70.4c-0.6-0.2-1-0.9-0.8-1.6
						c0.1-0.4,0.4-0.6,0.8-0.8c25.5-14.7,51.1-29.5,76.6-44.2c1.3-0.6,2.8-0.6,4,0c1.4,0.8,2.9,1.7,4.3,2.5c0.9,0.5,1.7,1,2.6,1.5
						c36.7,20.8,73.5,41.6,110.2,62.4l2.2,1.3l4.7,2.7c0.6,0.2,1,0.9,0.8,1.6c-0.1,0.4-0.4,0.6-0.8,0.8c-25,14.4-50,28.9-75,43.3
						C315.1,284.6,313.2,285,311.3,284.6"/>
				</g>
			</g>
		</g>
	</g>
	<g id="Group_1012" class="st36">
		<g id="Group_1011">
			<g>
				<defs>
					<rect id="SVGID_00000116935816227636316570000008983224339717868982_" x="189" y="168.3" width="201.5" height="115"/>
				</defs>
				<clipPath id="SVGID_00000019662791060692274150000012895571185195956365_">
					<use xlink:href="#SVGID_00000116935816227636316570000008983224339717868982_"  style="overflow:visible;"/>
				</clipPath>
				<g id="Group_1010" style="clip-path:url(#SVGID_00000019662791060692274150000012895571185195956365_);">
					<path id="Path_902" class="st18" d="M311.4,283c-40.5-23-81-46.1-121.6-69.1c-0.6-0.2-1-0.9-0.8-1.5c0.1-0.4,0.4-0.6,0.8-0.8
						c24.8-14.3,49.5-28.6,74.3-42.9c1.3-0.6,2.7-0.6,4,0c1.4,0.8,2.8,1.6,4.3,2.5c0.8,0.5,1.7,1,2.5,1.5c36,20.4,72,40.8,108,61.2
						l2.2,1.3l4.6,2.6c0.6,0.2,1,0.9,0.8,1.5c-0.1,0.4-0.4,0.6-0.8,0.8l-72.9,42.1C315.1,283.1,313.2,283.4,311.4,283"/>
				</g>
			</g>
		</g>
	</g>
	<g id="Group_1015" class="st58">
		<g id="Group_1014">
			<g>
				<defs>
					<rect id="SVGID_00000030460908777112866770000013076966729430197650_" x="191.6" y="169.3" width="196.7" height="112.4"/>
				</defs>
				<clipPath id="SVGID_00000089563942135942356270000008768259416479943590_">
					<use xlink:href="#SVGID_00000030460908777112866770000013076966729430197650_"  style="overflow:visible;"/>
				</clipPath>
				<g id="Group_1013" style="clip-path:url(#SVGID_00000089563942135942356270000008768259416479943590_);">
					<path id="Path_903" class="st18" d="M311.6,281.5l-119.1-67.8c-0.6-0.2-1-0.9-0.7-1.5c0.1-0.4,0.4-0.6,0.7-0.7
						c24-13.9,48-27.7,72.1-41.6c1.2-0.6,2.7-0.6,3.9,0l4.2,2.4l2.5,1.4l105.7,60l2.2,1.3c1.5,0.9,3,1.7,4.5,2.6
						c0.6,0.2,1,0.9,0.7,1.5c-0.1,0.3-0.4,0.6-0.7,0.7l-70.8,40.9C315.2,281.6,313.3,281.8,311.6,281.5"/>
				</g>
			</g>
		</g>
	</g>
	<g id="Group_1018" class="st60">
		<g id="Group_1017">
			<g>
				<defs>
					<rect id="SVGID_00000137131363163404095440000014061373777522377604_" x="194.2" y="170.4" width="192" height="109.7"/>
				</defs>
				<clipPath id="SVGID_00000005264661547363457600000006600194229661347715_">
					<use xlink:href="#SVGID_00000137131363163404095440000014061373777522377604_"  style="overflow:visible;"/>
				</clipPath>
				<g id="Group_1016" style="clip-path:url(#SVGID_00000005264661547363457600000006600194229661347715_);">
					<path id="Path_904" class="st18" d="M311.7,279.9c-38.9-22.2-77.8-44.3-116.7-66.5c-0.6-0.2-0.9-0.9-0.7-1.5
						c0.1-0.3,0.4-0.6,0.7-0.7l69.8-40.3c1.2-0.6,2.7-0.6,3.9,0c1.4,0.8,2.8,1.6,4.2,2.4l2.5,1.4l103.4,58.8
						c0.7,0.4,1.4,0.8,2.2,1.2l4.5,2.6c0.6,0.2,0.9,0.9,0.7,1.5c-0.1,0.3-0.4,0.6-0.7,0.7c-22.9,13.2-45.8,26.4-68.7,39.6
						C315.2,280,313.4,280.3,311.7,279.9"/>
				</g>
			</g>
		</g>
	</g>
	<g id="Group_1021" class="st62">
		<g id="Group_1020">
			<g>
				<defs>
					<rect id="SVGID_00000023996983182702060370000001095788030920306081_" x="196.8" y="171.5" width="187.2" height="107.1"/>
				</defs>
				<clipPath id="SVGID_00000013904350923253914090000002872327595702398129_">
					<use xlink:href="#SVGID_00000023996983182702060370000001095788030920306081_"  style="overflow:visible;"/>
				</clipPath>
				<g id="Group_1019" style="clip-path:url(#SVGID_00000013904350923253914090000002872327595702398129_);">
					<path id="Path_905" class="st18" d="M311.8,278.3l-114.2-65.2c-0.6-0.2-0.9-0.9-0.7-1.5c0.1-0.3,0.4-0.6,0.7-0.7l67.5-39
						c1.2-0.6,2.6-0.6,3.8,0l4.1,2.4l2.4,1.4l101.2,57.7c0.7,0.4,1.4,0.8,2.1,1.2c1.5,0.8,2.9,1.7,4.4,2.5c0.6,0.2,0.9,0.9,0.7,1.5
						c-0.1,0.3-0.4,0.6-0.7,0.7l-66.6,38.4C315.2,278.5,313.4,278.7,311.8,278.3"/>
				</g>
			</g>
		</g>
	</g>
	<g id="Group_1024" class="st64">
		<g id="Group_1023">
			<g>
				<defs>
					<rect id="SVGID_00000173846005897799339820000008080064252195655828_" x="199.4" y="172.5" width="182.4" height="104.5"/>
				</defs>
				<clipPath id="SVGID_00000163789537455551566840000006417210978657234862_">
					<use xlink:href="#SVGID_00000173846005897799339820000008080064252195655828_"  style="overflow:visible;"/>
				</clipPath>
				<g id="Group_1022" style="clip-path:url(#SVGID_00000163789537455551566840000006417210978657234862_);">
					<path id="Path_906" class="st18" d="M312,276.7c-37.3-21.3-74.5-42.6-111.8-63.9c-0.6-0.2-0.9-0.9-0.7-1.5
						c0.1-0.3,0.4-0.6,0.7-0.7l65.3-37.7c1.2-0.6,2.6-0.6,3.8,0c1.3,0.8,2.7,1.6,4,2.3c0.8,0.5,1.6,0.9,2.4,1.4l98.9,56.5
						c0.7,0.4,1.4,0.8,2.1,1.2l4.3,2.5c0.6,0.2,0.9,0.9,0.7,1.5c-0.1,0.3-0.4,0.6-0.7,0.7c-21.5,12.4-43,24.8-64.4,37.2
						C315.2,277,313.5,277.2,312,276.7"/>
				</g>
			</g>
		</g>
	</g>
	<g id="Group_1027" class="st66">
		<g id="Group_1026">
			<g>
				<defs>
					<rect id="SVGID_00000158717705318578868480000004824864264017736627_" x="202" y="173.6" width="177.6" height="101.9"/>
				</defs>
				<clipPath id="SVGID_00000052795501514298567520000003158048343069515440_">
					<use xlink:href="#SVGID_00000158717705318578868480000004824864264017736627_"  style="overflow:visible;"/>
				</clipPath>
				<g id="Group_1025" style="clip-path:url(#SVGID_00000052795501514298567520000003158048343069515440_);">
					<path id="Path_907" class="st18" d="M312.1,275.2c-36.4-20.9-72.9-41.7-109.3-62.6c-0.6-0.2-0.9-0.9-0.7-1.5
						c0.1-0.3,0.4-0.6,0.7-0.7l63-36.4c1.2-0.6,2.5-0.6,3.7,0l4,2.3l2.4,1.4c32.2,18.4,64.4,36.8,96.6,55.3c0.7,0.4,1.4,0.8,2.1,1.2
						c1.4,0.8,2.9,1.6,4.3,2.5c0.6,0.2,0.9,0.9,0.7,1.4c-0.1,0.3-0.4,0.6-0.7,0.7l-62.3,36C315.2,275.5,313.6,275.6,312.1,275.2"/>
				</g>
			</g>
		</g>
	</g>
	<g id="Group_1030" class="st68">
		<g id="Group_1029">
			<g>
				<defs>
					<rect id="SVGID_00000143612430637019195130000000756517863212492695_" x="204.6" y="174.7" width="172.8" height="99.2"/>
				</defs>
				<clipPath id="SVGID_00000044899766010279420660000002114477207901304210_">
					<use xlink:href="#SVGID_00000143612430637019195130000000756517863212492695_"  style="overflow:visible;"/>
				</clipPath>
				<g id="Group_1028" style="clip-path:url(#SVGID_00000044899766010279420660000002114477207901304210_);">
					<path id="Path_908" class="st18" d="M312.3,273.6l-106.9-61.3c-0.6-0.2-0.9-0.8-0.7-1.4c0.1-0.3,0.4-0.6,0.7-0.7
						c20.3-11.7,40.5-23.4,60.8-35.1c1.2-0.6,2.5-0.6,3.7,0c1.3,0.8,2.6,1.5,3.9,2.3c0.8,0.4,1.6,0.9,2.3,1.3l94.4,54.1l2,1.2
						l4.2,2.4c0.6,0.2,0.9,0.8,0.7,1.4c-0.1,0.3-0.4,0.6-0.7,0.7c-20.1,11.6-40.1,23.2-60.2,34.8
						C315.2,273.9,313.6,274.1,312.3,273.6"/>
				</g>
			</g>
		</g>
	</g>
	<g id="Group_1033" class="st70">
		<g id="Group_1032">
			<g>
				<defs>
					<rect id="SVGID_00000067228546173020358530000014013632956789517742_" x="207.2" y="175.7" width="168.1" height="96.6"/>
				</defs>
				<clipPath id="SVGID_00000174600263281374713590000002193555525166962860_">
					<use xlink:href="#SVGID_00000067228546173020358530000014013632956789517742_"  style="overflow:visible;"/>
				</clipPath>
				<g id="Group_1031" style="clip-path:url(#SVGID_00000174600263281374713590000002193555525166962860_);">
					<path id="Path_909" class="st18" d="M312.4,272l-104.5-60c-0.6-0.2-0.9-0.8-0.7-1.4c0.1-0.3,0.4-0.6,0.7-0.7
						c19.5-11.3,39-22.5,58.5-33.8c1.1-0.6,2.5-0.6,3.6,0l3.9,2.2l2.3,1.3c30.7,17.6,61.4,35.3,92.1,52.9c0.7,0.4,1.3,0.8,2,1.2
						c1.4,0.8,2.8,1.6,4.2,2.4c0.6,0.2,0.9,0.8,0.7,1.4c-0.1,0.3-0.4,0.6-0.7,0.7l-58.1,33.5C315.2,272.4,313.7,272.5,312.4,272"/>
				</g>
			</g>
		</g>
	</g>
	<g id="Group_1036" class="st72">
		<g id="Group_1035">
			<g>
				<defs>
					<rect id="SVGID_00000075162297260124913770000012695838486623875249_" x="209.8" y="176.8" width="163.3" height="94"/>
				</defs>
				<clipPath id="SVGID_00000121972577906082053560000005900277739209551516_">
					<use xlink:href="#SVGID_00000075162297260124913770000012695838486623875249_"  style="overflow:visible;"/>
				</clipPath>
				<g id="Group_1034" style="clip-path:url(#SVGID_00000121972577906082053560000005900277739209551516_);">
					<path id="Path_910" class="st18" d="M312.5,270.4c-34-19.6-68-39.1-102-58.7c-0.6-0.2-0.9-0.8-0.7-1.4c0.1-0.3,0.4-0.6,0.7-0.7
						c18.7-10.8,37.5-21.6,56.2-32.5c1.1-0.6,2.4-0.6,3.6,0l3.8,2.2l2.3,1.3l89.9,51.7c0.7,0.4,1.3,0.8,2,1.1l4.1,2.4
						c0.6,0.2,0.9,0.8,0.7,1.4c-0.1,0.3-0.4,0.6-0.7,0.7l-56,32.3C315.2,270.9,313.8,270.9,312.5,270.4"/>
				</g>
			</g>
		</g>
	</g>
	<g id="Group_1039" class="st74">
		<g id="Group_1038">
			<g>
				<defs>
					<rect id="SVGID_00000178186115288222996780000007381161327669086852_" x="212.4" y="177.9" width="158.5" height="91.4"/>
				</defs>
				<clipPath id="SVGID_00000074414611010826000510000002494403854389494173_">
					<use xlink:href="#SVGID_00000178186115288222996780000007381161327669086852_"  style="overflow:visible;"/>
				</clipPath>
				<g id="Group_1037" style="clip-path:url(#SVGID_00000074414611010826000510000002494403854389494173_);">
					<path id="Path_911" class="st18" d="M312.7,268.9l-99.6-57.4c-0.6-0.2-0.9-0.8-0.7-1.4c0.1-0.3,0.4-0.6,0.7-0.7l54-31.2
						c1.1-0.6,2.4-0.6,3.5,0l3.8,2.2c0.7,0.4,1.5,0.9,2.2,1.3c29.2,16.8,58.4,33.6,87.6,50.5c0.6,0.4,1.3,0.7,2,1.1
						c1.3,0.8,2.7,1.6,4,2.3c0.6,0.2,0.9,0.8,0.7,1.4c-0.1,0.3-0.4,0.6-0.7,0.7l-53.9,31.1C315.2,269.4,313.8,269.4,312.7,268.9"/>
				</g>
			</g>
		</g>
	</g>
	<g id="Group_1042" class="st76">
		<g id="Group_1041">
			<g>
				<defs>
					<rect id="SVGID_00000015344208239674075420000011420278271003673984_" x="215" y="178.9" width="153.7" height="88.8"/>
				</defs>
				<clipPath id="SVGID_00000089538641524843532340000006956102891506923427_">
					<use xlink:href="#SVGID_00000015344208239674075420000011420278271003673984_"  style="overflow:visible;"/>
				</clipPath>
				<g id="Group_1040" style="clip-path:url(#SVGID_00000089538641524843532340000006956102891506923427_);">
					<path id="Path_912" class="st18" d="M312.8,267.3l-97.1-56.1c-0.6-0.2-0.8-0.8-0.7-1.3c0.1-0.3,0.3-0.6,0.7-0.7l51.7-29.9
						c1.1-0.5,2.4-0.5,3.4,0l3.7,2.1l2.2,1.3l85.3,49.3l1.9,1.1l4,2.3c0.6,0.2,0.8,0.8,0.7,1.3c-0.1,0.3-0.3,0.6-0.7,0.7l-51.7,29.9
						C315.2,267.8,313.9,267.8,312.8,267.3"/>
				</g>
			</g>
		</g>
	</g>
	<path id="Path_913" class="st50" d="M391.9,232.5v11.7l-0.1,0.3l-0.1,0.3l-0.1,0.3l-0.2,0.3l-0.2,0.3l-0.2,0.3l-0.2,0.3l-0.3,0.3
		l-0.3,0.3l-0.3,0.3l-0.3,0.3l-0.4,0.3l-0.4,0.2l-55.3,31.9l-0.4,0.2l-0.4,0.2l-0.5,0.2l-0.5,0.2l-0.5,0.2l-0.5,0.2l-0.5,0.1
		l-0.5,0.1l-0.5,0.1l-0.5,0.1l-0.6,0.1l-0.6,0.1l-0.6,0l-0.6,0h-0.6h-0.6l-0.6,0l-0.6,0l-0.6-0.1l-0.6-0.1l-0.6-0.1l-0.6-0.1
		l-0.6-0.1l-0.6-0.1L320,281l-0.5-0.2l-0.5-0.2l-0.5-0.2l-0.5-0.2l-0.5-0.2l-0.5-0.2l-0.5-0.3l-110.2-63.7l-0.4-0.3l-0.4-0.3
		L205,215l-0.4-0.3l-0.3-0.3l-0.3-0.3l-0.3-0.3l-0.3-0.3l-0.2-0.3l-0.2-0.3l-0.2-0.3l-0.1-0.3l-0.1-0.3l-0.1-0.3l-0.1-0.3v-11.7
		l0.1,0.3l0.1,0.3l0.1,0.3l0.1,0.3l0.2,0.3l0.2,0.3l0.2,0.3l0.3,0.3l0.3,0.3l0.3,0.3l0.3,0.3l0.4,0.3l0.4,0.3l0.4,0.3l0.4,0.3
		l110.2,63.7l0.5,0.3l0.5,0.2l0.5,0.2l0.5,0.2l0.5,0.2l0.5,0.2l0.5,0.2l0.5,0.1l0.6,0.1l0.6,0.1l0.6,0.1l0.6,0.1l0.6,0.1l0.6,0.1
		l0.6,0l0.6,0h0.6h0.6l0.6,0l0.6,0l0.6-0.1l0.6-0.1l0.5-0.1l0.5-0.1l0.5-0.1l0.5-0.1l0.5-0.2l0.5-0.2l0.5-0.2l0.5-0.2l0.4-0.2
		l0.4-0.2l55.3-31.9l0.4-0.3l0.4-0.3l0.3-0.3l0.3-0.3l0.3-0.3l0.3-0.3l0.2-0.3l0.2-0.3l0.2-0.3l0.2-0.3l0.1-0.3l0.1-0.3L391.9,232.5
		z"/>
	<path id="Path_914" class="st50" d="M391.9,232.5v11.7l-0.1,0.3l-0.1,0.3l-0.1,0.3l-0.2,0.3l-0.2,0.3l-0.2,0.3l-0.2,0.3l-0.3,0.3
		l-0.3,0.3l-0.3,0.3l-0.3,0.3l-0.4,0.3l-0.4,0.2l-55.3,31.9l-0.4,0.2l-0.4,0.2l-0.5,0.2l-0.5,0.2l-0.5,0.2l-0.5,0.2l-0.5,0.1
		l-0.5,0.1l-0.5,0.1l-0.5,0.1l-0.6,0.1l-0.6,0.1l-0.6,0l-0.6,0h-0.6h-0.4v-11.7h0.4h0.6l0.6,0l0.6,0l0.6-0.1l0.6-0.1l0.5-0.1
		l0.5-0.1l0.5-0.1l0.5-0.1l0.5-0.2l0.5-0.2l0.5-0.2l0.5-0.2l0.4-0.2l0.4-0.2l55.3-31.9l0.4-0.3l0.4-0.3l0.3-0.3l0.3-0.3l0.3-0.3
		l0.3-0.3l0.2-0.3l0.2-0.3l0.2-0.3l0.2-0.3l0.1-0.3l0.1-0.3L391.9,232.5z"/>
	<path id="Path_915" class="st49" d="M393.1,232.5v11.7c0,0.1,0,0.2-0.1,0.4l0,0.2l0,0.1l-0.1,0.3c0,0,0,0.1,0,0.1l-0.1,0.3l0,0.1
		l-0.2,0.3l0,0.1l-0.2,0.3c0,0-0.1,0.1-0.1,0.1l-0.2,0.3c0,0-0.1,0.1-0.1,0.1l-0.2,0.2l-0.1,0.1l-0.3,0.3l0,0.1l0,0l-0.3,0.3l-0.1,0
		l-0.3,0.3l-0.1,0l-0.3,0.3l0,0l-0.4,0.3l-0.5,0.3c0,0-0.1,0-0.1,0c-18,10.4-37.5,22.8-55.8,32.2l-0.4,0.2c0,0-0.1,0-0.1,0l-0.4,0.2
		c-0.2,0.1-0.4,0.1-0.6,0.2l0,0l-0.5,0.2c0,0-0.1,0-0.1,0l-0.5,0.1c-0.4,0.1-0.7,0.2-1.1,0.3l0,0l-0.5,0.1l-0.1,0l-0.5,0.1
		c-0.4,0.1-0.8,0.1-1.2,0.1l-0.6,0l-0.6,0c-0.6,0-1.2,0-1.8,0l0,0l-0.6,0h-0.1l-0.5-0.1l0,0l-0.6-0.1c-0.4-0.1-0.8-0.1-1.2-0.2
		l-0.1,0l-0.5-0.1l0,0l-0.6-0.1c-0.2-0.1-0.4-0.1-0.6-0.2l0,0l-0.5-0.2c0,0-0.1,0-0.1,0l-0.4-0.1c-0.4-0.1-0.7-0.3-1.1-0.4L317,281
		c-0.2-0.1-0.4-0.2-0.6-0.3l0,0l-0.5-0.3l-110.3-63.7l-0.1-0.1l-0.4-0.3l0,0l-0.4-0.3l-0.4-0.3l-0.5-0.4l-0.3-0.3l-0.4-0.3
		c0,0-0.1-0.1-0.1-0.1l-0.2-0.2l0,0l0,0l-0.3-0.3l-0.3-0.4c0,0,0-0.1-0.1-0.1l-0.2-0.3l0-0.1l-0.2-0.3c0,0,0-0.1-0.1-0.1l-0.1-0.3
		l0-0.1l-0.1-0.3l0-0.1l0,0l-0.1-0.3l0-0.1l0,0l-0.1-0.3c0-0.1,0-0.1,0-0.2v-11.6c0-0.6,0.5-1.2,1.2-1.2c0.6,0,1.1,0.4,1.2,1l0,0.2
		l0.1,0.2l0.1,0.2l0.1,0.2l0.2,0.3l0.1,0.2l0.2,0.3c0.1,0.2,0.3,0.3,0.4,0.5l0,0l0.3,0.3c0.2,0.2,0.4,0.3,0.6,0.5l0.3,0.3l0.4,0.3
		l0.4,0.2l0,0L317,266.8l0.5,0.3l0.4,0.2l0.5,0.2l0.5,0.2l0.5,0.2l0.5,0.2c0.3,0.1,0.7,0.2,1,0.3l0.6,0.1l0.4,0.1l0,0
		c0.4,0.1,0.7,0.1,1.1,0.2l0.6,0.1l0.5,0l0,0c0.6,0,1.1,0.1,1.6,0.1h0.5l0.5,0c0.5,0,1-0.1,1.6-0.2l0.5-0.1c0.3-0.1,0.7-0.1,1-0.2
		s0.6-0.2,0.9-0.3l0,0l0.5-0.2l0.4-0.1l0.4-0.2l0.5-0.2c18.6-10.1,37.2-21.5,55.6-32.1l0.4-0.2l0.3-0.2l0.3-0.2l0.3-0.2l0.3-0.3
		l0.2-0.2l0.2-0.2l0.2-0.2l0.2-0.3l0.1-0.2l0.1-0.2l0.1-0.2l0.1-0.3c0.1-0.6,0.8-1,1.4-0.9C392.7,231.5,393,232,393.1,232.5
		L393.1,232.5z M390.7,244.1v-7.7l0,0c0,0,0,0-0.1,0.1l-0.4,0.3l-0.4,0.3l-0.5,0.3l0,0c-18.3,10.9-37,21.2-55.4,31.9l-0.3,0.2
		c0,0-0.1,0-0.1,0.1l-0.4,0.2l0,0l-0.5,0.2l-0.4,0.2c0,0-0.1,0-0.1,0l-0.5,0.2l0,0l-0.5,0.1c0,0-0.1,0-0.1,0l-0.6,0.1l-0.5,0.1
		c0,0-0.1,0-0.1,0l-0.5,0.1l-0.6,0.1l-0.6,0.1l-0.6,0.1l-0.6,0l-0.6,0h-1.2l-0.6,0l-0.6,0l-0.5,0c0,0-0.1,0-0.1,0
		c-0.4,0-0.8-0.1-1.2-0.2l-0.6-0.1l0,0l-0.5-0.1c0,0-0.1,0-0.1,0l-0.6-0.1c-0.2-0.1-0.4-0.1-0.6-0.2l-0.5-0.2l0,0
		c-0.4-0.1-0.8-0.3-1.2-0.4c-0.4-0.1-0.7-0.3-1.1-0.5l-0.4-0.2c0,0-0.1,0-0.1-0.1c-37-20.4-74-42.8-110.7-64l0,0l-0.4-0.2
		c0,0-0.1,0-0.1-0.1c-0.3-0.2-0.6-0.4-0.9-0.6l-0.4-0.3c0,0-0.1,0-0.1-0.1l-0.3-0.2v7.4l0,0.2l0.1,0.2l0.1,0.2
		c0.1,0.2,0.2,0.3,0.3,0.5l0.1,0.2l0.2,0.3l0.2,0.3l0.2,0.2l0.3,0.3l0.3,0.3l0.3,0.2l0.3,0.3l0.4,0.3l0,0l0.3,0.2
		c37.2,20.4,73.5,43.5,110.7,64l0.4,0.2l0.5,0.2l0.5,0.2l0.4,0.2l0.4,0.1l0.6,0.2c0.3,0.1,0.7,0.2,1,0.3l0.4,0.1l0.6,0.1l0.5,0.1
		l0.6,0.1l0,0l0.5,0l0.6,0l0.5,0h0.5c0.6,0,1.1,0,1.6-0.1l0.5,0c0.5-0.1,1-0.2,1.5-0.3l0.5-0.1l0.5-0.1l0.4-0.1l0.5-0.2l0,0l0.4-0.2
		l0.4-0.2l0.5-0.2l0.4-0.2l55.3-31.8l0.4-0.3l0.3-0.2l0.3-0.2l0.3-0.2l0.3-0.3l0.2-0.2l0.2-0.2l0.2-0.2l0.2-0.3l0.1-0.2l0.1-0.2
		L390.7,244.1L390.7,244.1z"/>
	<path id="Path_916" class="st19" d="M205.5,194.3l55.3-31.9c5.4-2.6,11.7-2.4,17,0.4l110.2,63.7c4.9,2.8,5.2,7.2,0.7,9.8
		l-55.3,31.9c-5.4,2.6-11.7,2.4-17-0.4l-110.2-63.7C201.3,201.3,201,196.9,205.5,194.3"/>
	<path id="Path_917" class="st49" d="M204.9,193.3l55.3-31.9c2.8-1.4,5.9-2.1,9-2c3.2,0,6.4,0.9,9.2,2.4l110.2,63.7
		c1.5,0.8,2.7,2,3.6,3.4c0.5,0.8,0.8,1.8,0.8,2.8c0,1-0.2,1.9-0.7,2.8c-0.7,1.2-1.8,2.2-3,2.9L334,269.2c-2.8,1.4-5.9,2.1-9,2
		c-3.2,0-6.4-0.9-9.2-2.4l-110.2-63.7c-1.5-0.8-2.8-2-3.6-3.4c-0.5-0.8-0.8-1.8-0.8-2.8c0-1,0.2-1.9,0.7-2.8
		C202.7,195,203.7,194,204.9,193.3 M261.4,163.4l-55.3,31.9c-0.9,0.5-1.6,1.2-2.2,2c-0.3,0.5-0.4,1-0.4,1.6c0,0.6,0.2,1.2,0.5,1.7
		c0.7,1.1,1.7,2,2.8,2.6L317,266.8c2.5,1.3,5.3,2.1,8.1,2.1c2.7,0.1,5.4-0.4,7.8-1.7l55.3-31.9c0.9-0.5,1.6-1.2,2.2-2
		c0.3-0.5,0.4-1,0.4-1.6c0-0.6-0.2-1.2-0.5-1.7c-0.7-1.1-1.7-2-2.8-2.6l-110.2-63.7c-2.5-1.3-5.3-2.1-8.1-2.1
		C266.5,161.6,263.8,162.2,261.4,163.4"/>
	<path id="Path_918" class="st48" d="M212.2,207.6l99.1,57.3l71.6-41.3l-99.1-57.3L212.2,207.6z"/>
	<path id="Path_919" class="st49" d="M214.6,207.6l96.8,55.9l69.3-40l-96.8-55.9L214.6,207.6z M310.8,265.9l-99.1-57.3
		c-0.2-0.1-0.3-0.2-0.4-0.4c-0.3-0.6-0.1-1.3,0.4-1.6c0,0,0,0,0,0l71.6-41.3c0.4-0.2,0.8-0.3,1.2,0l99.1,57.3
		c0.2,0.1,0.3,0.3,0.4,0.4c0.3,0.6,0.1,1.3-0.4,1.6c0,0,0,0,0,0L312,265.9C311.7,266.1,311.2,266.1,310.8,265.9"/>
	<path id="Path_920" class="st48" d="M220.8,197c-2.2,1.2-5.3-0.6-3.2-1.8l0,0C219.9,193.9,223,195.8,220.8,197L220.8,197z"/>
	<path id="Path_921" class="st49" d="M220.3,198.5c-1,0.3-2.1,0.1-3.1-0.3c-0.4-0.2-0.7-0.4-0.9-0.7l0,0c-0.3-0.3-0.5-0.8-0.5-1.2
		c0-0.9,0.5-1.7,1.3-2l1.1-0.6l0.1,0.2c1-0.2,2.1-0.1,3.1,0.3l0,0c0.3,0.2,0.7,0.4,0.9,0.7c0.3,0.3,0.5,0.8,0.5,1.2
		c0,0.9-0.5,1.6-1.3,2l-1.1,0.6L220.3,198.5z M218.4,196.1c0.5,0.2,1.1,0.2,1.7,0C219.6,195.9,219,195.9,218.4,196.1"/>
	<path id="Path_922" class="st48" d="M311.7,253.9l52.2-30.2l-8.7-5L303,248.9L311.7,253.9z"/>
	<path id="Path_923" class="st49" d="M311.7,252.6l49.9-28.8l-6.4-3.7l-49.9,28.8L311.7,252.6z M364.6,224.8l-52.2,30.2
		c-0.4,0.2-0.8,0.2-1.2,0l-8.7-5c-0.2-0.1-0.3-0.3-0.4-0.4c-0.3-0.6-0.1-1.3,0.4-1.6l52.2-30.1c0.4-0.2,0.8-0.3,1.2,0l8.7,5
		c0.2,0.1,0.3,0.3,0.4,0.4C365.3,223.7,365.1,224.4,364.6,224.8"/>
	<path id="Path_924" class="st49" d="M345,212.1c0.6-0.3,1.3-0.1,1.6,0.4c0.3,0.6,0.1,1.3-0.4,1.6l0,0l-27.3,15.8
		c-0.5,0.3-1.3,0.2-1.6-0.4c-0.3-0.5-0.2-1.3,0.4-1.6c0,0,0,0,0.1,0L345,212.1z"/>
	<path id="Path_925" class="st49" d="M285.6,239.4c-0.6,0.3-1.3,0.1-1.6-0.4c-0.3-0.6-0.1-1.3,0.4-1.6l0,0l52.1-30.1
		c0.6-0.3,1.3-0.1,1.6,0.4c0.3,0.6,0.1,1.3-0.4,1.6L285.6,239.4z"/>
	<path id="Path_926" class="st48" d="M239.1,186.5c-2.2,1.3-5.3-0.6-3.2-1.8l8-4.6c2.2-1.3,5.3,0.6,3.2,1.8L239.1,186.5z"/>
	<path id="Path_927" class="st49" d="M239.7,187.5c-1.3,0.7-2.9,0.8-4.2,0.1c-0.4-0.2-0.7-0.4-0.9-0.7l0,0c-0.3-0.3-0.5-0.8-0.5-1.2
		c0-0.9,0.5-1.7,1.3-2l8-4.6c1.3-0.7,2.9-0.8,4.2-0.1c0.4,0.2,0.7,0.4,0.9,0.7c0.3,0.3,0.5,0.8,0.5,1.2c0,0.9-0.5,1.6-1.3,2
		L239.7,187.5z M236.7,185.6c0.6,0.2,1.3,0.2,1.8-0.1l7.9-4.5c-0.6-0.2-1.3-0.2-1.8,0.1L236.7,185.6z"/>
	<path id="Path_928" class="st48" d="M239.1,186.5c-2.2,1.3-5.3-0.6-3.2-1.8l0,0C238.2,183.4,241.3,185.2,239.1,186.5z"/>
	<path id="Path_929" class="st49" d="M238.6,187.9c-1,0.3-2.1,0.1-3.1-0.3c-0.4-0.2-0.7-0.4-0.9-0.7l0,0c-0.3-0.3-0.5-0.8-0.5-1.2
		c0-0.9,0.5-1.7,1.3-2l1-0.6l0.1,0.2c1-0.3,2.1-0.1,3.1,0.3c0.4,0.2,0.7,0.4,0.9,0.7c0.3,0.3,0.5,0.8,0.5,1.2c0,0.9-0.5,1.7-1.3,2
		l-1,0.6L238.6,187.9z M236.7,185.6c0.5,0.2,1.1,0.2,1.7,0C237.9,185.3,237.3,185.3,236.7,185.6"/>
	<path id="Path_930" class="st48" d="M302.8,191.1c-13.5-7.8-35.3-7.8-48.7,0s-13.5,20.4,0,28.1c13.5,7.8,35.3,7.8,48.7,0
		C316.3,211.5,316.3,198.9,302.8,191.1"/>
	<path id="Path_931" class="st49" d="M302.2,192.1c-7.3-3.9-15.5-5.8-23.8-5.7l0,0c-8.3-0.2-16.5,1.8-23.8,5.7
		c-3.2,1.7-5.9,4.2-7.9,7.3l0,0.1c-1,1.7-1.6,3.7-1.6,5.7l0,0c0,2,0.6,4,1.6,5.7c1.9,3.1,4.7,5.6,7.9,7.3l0,0
		c15,7.6,32.6,7.6,47.6,0c3.2-1.7,6-4.2,7.9-7.3c2.1-3.5,2.1-7.9,0-11.4C308.2,196.4,305.4,193.9,302.2,192.1L302.2,192.1
		L302.2,192.1z M278.4,184.1L278.4,184.1c8.7-0.2,17.3,1.9,24.9,6c3.6,1.9,6.6,4.7,8.8,8.2l0,0l0,0c2.6,4.2,2.6,9.5,0,13.8
		c-2.2,3.4-5.2,6.3-8.8,8.2c-15.7,8-34.2,8-49.9,0l0,0c-3.6-1.9-6.6-4.7-8.7-8.2c-1.2-2.1-1.9-4.5-1.9-6.9l0,0
		c0-2.4,0.7-4.8,1.9-6.8l0-0.1c2.2-3.4,5.2-6.3,8.7-8.2C261.1,186,269.7,184,278.4,184.1"/>
	<path id="Path_932" class="st19" d="M264.3,214.7l22.1,1.8l0,0l6-24.1l-6.4-0.5l-4.6,18.3l-9.2-0.7l-6.5-0.5L264.3,214.7z"/>
	<path id="Path_933" class="st49" d="M265.7,213.7l19.8,1.6l5.5-21.9l-4.2-0.3l-4.4,17.4c-0.1,0.5-0.6,0.9-1.2,0.8l-14.7-1.2
		L265.7,213.7z M286.2,217.6l-22.1-1.8c-0.1,0-0.1,0-0.2,0c-0.6-0.1-1-0.7-0.8-1.3c0,0,0,0,0,0l1.4-5.7c0.1-0.5,0.6-0.9,1.2-0.9
		l14.7,1.2l4.4-17.4c0.1-0.6,0.6-0.9,1.2-0.9l6.4,0.5c0.1,0,0.1,0,0.2,0c0.6,0.1,1,0.7,0.8,1.3c0,0,0,0,0,0l-6,24
		C287.3,217.3,286.8,217.6,286.2,217.6"/>
</g>
</svg>
