<?xml version="1.0" encoding="utf-8"?>
<!-- Generator: Adobe Illustrator 28.0.0, SVG Export Plug-In . SVG Version: 6.00 Build 0)  -->
<svg version="1.1" id="Layer_1" xmlns="http://www.w3.org/2000/svg" xmlns:xlink="http://www.w3.org/1999/xlink" x="0px" y="0px"
	 viewBox="0 0 300 200" style="enable-background:new 0 0 300 200;" xml:space="preserve">
<style type="text/css">
	.st0{fill:#2F3540;}
</style>
<g id="Capa_1-2">
	<g>
		<g>
			<path class="st0" d="M114.3,154.4h-4.6v-26.2c-0.3,0.3-0.6,0.6-1.2,1.2l-4.6,4l-2.5-3.1l9-7.4h4L114.3,154.4L114.3,154.4z"/>
			<path class="st0" d="M153.8,154.4h-20.6v-3.7l7.7-8c2.5-2.4,4-4.3,4.6-5.3s1.2-1.8,1.5-2.8c0.3-0.9,0.6-1.8,0.6-2.8
				c0-1.2-0.3-2.5-1.2-3.4c-0.9-0.9-2.2-1.2-3.4-1.2c-1.2,0-2.4,0.3-3.4,0.6c-1.2,0.6-2.8,1.5-3.7,2.5l-2.5-3.7
				c1.5-1.2,3.1-2.5,4.9-3.1c1.5-0.6,3.4-0.9,5.3-0.9c2.5,0,4.9,0.6,6.8,2.2c1.8,1.5,2.8,3.7,2.5,6.1c0,1.2-0.3,2.8-0.6,4
				c-0.6,1.5-1.2,2.8-2.2,4c-1.5,1.8-3.4,3.7-5.3,5.5l-5.3,5.3v0.3h14.5L153.8,154.4L153.8,154.4z"/>
			<path class="st0" d="M162.4,138.1c-0.3,3.1,0.3,6.1,1.2,9.2c0.9,2.2,3.4,3.4,5.9,2.5c1.2-0.3,1.8-1.2,2.5-2.5
				c0.9-3.1,1.5-6.1,1.2-9.2c0.3-3.1-0.3-6.1-1.2-9.2c-0.9-2.2-3.4-3.4-5.5-2.5c-1.2,0.3-2.2,1.2-2.4,2.5
				C162.8,131.9,162.4,135,162.4,138.1 M178.1,138.1c0.3,4.3-0.6,8.6-2.5,12.3c-3.1,4.3-9,5.3-13.3,2.2c-0.9-0.6-1.5-1.2-2.2-2.2
				c-1.8-3.7-2.8-8-2.8-12c-0.3-4.3,0.6-8.6,2.5-12.3c3.1-4.3,9-5.3,13.3-1.9c0.9,0.6,1.5,1.2,2.2,2.2
				C177.5,130.1,178.4,134,178.1,138.1"/>
			<path class="st0" d="M226.2,154.4h-20.6v-3.7l7.7-8c2.5-2.4,4-4.3,4.6-5.3s1.2-1.8,1.5-2.8c0.3-0.9,0.6-1.8,0.6-2.8
				c0-1.2-0.3-2.5-1.2-3.4c-0.9-0.9-2.2-1.2-3.4-1.2c-1.2,0-2.4,0.3-3.4,0.6c-1.2,0.6-2.8,1.5-3.7,2.5l-2.5-3.7
				c1.5-1.2,3.1-2.5,4.9-3.1c1.5-0.6,3.4-0.9,5.3-0.9c2.5,0,4.9,0.6,6.8,2.2c1.8,1.5,2.8,3.7,2.5,6.1c0,1.2-0.3,2.8-0.6,4
				c-0.6,1.5-1.2,2.8-2.2,4c-1.5,1.8-3.4,3.7-5.3,5.5l-5.3,5.3v0.3h14.5L226.2,154.4L226.2,154.4z"/>
			<path class="st0" d="M202.1,154.4h-20.6v-3.7l7.7-8c2.5-2.4,4-4.3,4.6-5.3s1.2-1.8,1.5-2.8c0.3-0.9,0.6-1.8,0.6-2.8
				c0-1.2-0.3-2.5-1.2-3.4c-0.9-0.9-2.2-1.2-3.4-1.2c-1.2,0-2.4,0.3-3.4,0.6c-1.2,0.6-2.8,1.5-3.7,2.5l-2.5-3.7
				c1.5-1.2,3.1-2.5,4.9-3.1c1.5-0.6,3.4-0.9,5.3-0.9c2.5,0,4.9,0.6,6.8,2.2c1.8,1.5,2.8,3.7,2.5,6.1c0,1.2-0.3,2.8-0.6,4
				c-0.6,1.5-1.2,2.8-2.2,4c-1.5,1.8-3.4,3.7-5.3,5.5l-5.3,5.3v0.3h14.5L202.1,154.4L202.1,154.4z"/>
			<path class="st0" d="M122.3,151c0-0.9,0.3-1.8,0.9-2.5c1.2-1.2,3.4-1.2,4.6,0c0.6,0.6,0.9,1.5,0.9,2.5s-0.3,1.8-0.9,2.5
				c-0.6,0.6-1.5,0.9-2.5,0.9c-0.9,0-1.8-0.3-2.2-0.9C122.7,152.5,122.3,151.9,122.3,151 M122.3,132.5c0-2.2,0.9-3.1,3.1-3.1
				c0.9,0,1.8,0.3,2.5,0.9c0.9,1.5,0.9,3.4,0,4.9c-0.6,0.6-1.5,0.9-2.5,0.9c-0.9,0-1.8-0.3-2.2-0.9
				C122.7,134.3,122.3,133.4,122.3,132.5"/>
			<path class="st0" d="M58.2,138.1c-0.3,3.1,0.3,6.1,1.2,9.2c0.9,2.2,3.4,3.4,5.9,2.5c1.2-0.3,1.8-1.2,2.5-2.5
				c0.9-3.1,1.5-6.1,1.2-9.2c0.3-3.1-0.3-6.1-1.2-9.2c-0.9-2.2-3.4-3.4-5.5-2.5c-1.2,0.3-2.2,1.2-2.4,2.5
				C58.6,131.9,58.3,135,58.2,138.1 M73.9,138.1c0.3,4.3-0.6,8.6-2.5,12.3c-3.1,4.3-9,5.3-13.3,2.2c-0.9-0.6-1.5-1.2-2.2-2.2
				c-1.8-3.7-2.8-8-2.8-12c-0.3-4.3,0.6-8.6,2.5-12.3c3.1-4.3,9-5.3,13.3-1.9c0.9,0.6,1.5,1.2,2.2,2.2
				C73.3,130.1,74.3,134,73.9,138.1"/>
			<path class="st0" d="M81.4,138.1c-0.3,3.1,0.3,6.1,1.2,9.2c0.9,2.2,3.4,3.4,5.9,2.5c1.2-0.3,1.8-1.2,2.5-2.5
				c0.9-3.1,1.5-6.1,1.2-9.2c0.3-3.1-0.3-6.1-1.2-9.2c-0.9-2.2-3.4-3.4-5.5-2.5c-1.2,0.3-2.2,1.2-2.4,2.5
				C81.7,131.9,81.4,135,81.4,138.1 M97.1,138.1c0.3,4.3-0.6,8.6-2.5,12.3c-3.1,4.3-9,5.3-13.3,2.2c-0.9-0.6-1.5-1.2-2.2-2.2
				c-1.8-3.7-2.8-8-2.8-12c-0.3-4.3,0.6-8.6,2.5-12.3c3.1-4.3,9-5.3,13.3-1.9c0.9,0.6,1.5,1.2,2.2,2.2
				C96.5,130.1,97.4,134,97.1,138.1"/>
			<path class="st0" d="M25.6,154.4H5v-3.7l7.7-8c2.5-2.4,4-4.3,4.6-5.3s1.2-1.8,1.5-2.8c0.3-0.9,0.6-1.8,0.6-2.8
				c0-1.2-0.3-2.5-1.2-3.4c-0.9-0.9-2.2-1.2-3.4-1.2s-2.4,0.3-3.4,0.6c-1.2,0.6-2.8,1.5-3.7,2.5l-2.5-3.7c1.5-1.2,3.1-2.5,4.9-3.1
				c1.5-0.6,3.4-0.9,5.3-0.9c2.5,0,4.9,0.6,6.8,2.2c1.8,1.5,2.8,3.7,2.5,6.1c0,1.2-0.3,2.8-0.6,4c-0.6,1.5-1.2,2.8-2.2,4
				c-1.5,1.8-3.4,3.7-5.3,5.5l-5.3,5.3v0.3H26L25.6,154.4L25.6,154.4z"/>
			<path class="st0" d="M30,126.4v-3.8h20.8v3.1c-2,2.2-4.1,5.1-6.1,8.7s-3.6,7.3-4.7,11.2c-0.8,2.7-1.3,5.6-1.5,8.8h-4.1
				c0-2.5,0.5-5.6,1.5-9.2c1-3.6,2.3-7,4.1-10.4s3.7-6.1,5.7-8.4L30,126.4L30,126.4z"/>
		</g>
		<g>
			<path class="st0" d="M5,45.6h14.1v62.2H5V45.6z"/>
			<path class="st0" d="M28.2,99.2l7.8-9.3c4.3,3.7,9.8,6.3,14.7,6.3c5.7,0,8.4-2.2,8.4-5.8c0-3.8-3.4-5-8.7-7.2l-7.8-3.3
				c-6.2-2.5-12.1-7.7-12.1-16.4c0.1-9.9,9-17.9,21.5-17.9c6.9,0,14.1,2.7,19.3,7.9L64.5,62c-3.9-3.1-7.7-4.7-12.5-4.7
				s-7.7,2-7.7,5.4c0,3.7,3.9,5,9.2,7.1l7.7,3.1c7.3,3,11.9,7.9,11.9,16.3c0,10-8.3,18.6-22.6,18.6C42.6,107.8,34.3,104.8,28.2,99.2
				L28.2,99.2z"/>
			<path class="st0" d="M79.2,76.5c0-19.6,11.1-30.9,27.3-30.9s27.3,11.3,27.3,30.9s-11.1,31.4-27.3,31.4S79.2,96.1,79.2,76.5z
				 M119.8,76.5c0-12-5.2-19.1-13.4-19.1s-13.4,7.1-13.4,19.1s5.2,19.7,13.4,19.7S119.8,88.5,119.8,76.5z"/>
			<path class="st0" d="M154.5,45.6h6.9L147,107.8h-6.9L154.5,45.6z"/>
			<path class="st0" d="M172.2,46.7h13.6v60h-13.6C172.2,106.7,172.2,46.7,172.2,46.7z"/>
			<path class="st0" d="M200,46.7h37.6v11.4h-24.1v12H234v11.4h-20.5v13.8h25v11.4h-38.5L200,46.7L200,46.7z"/>
			<path class="st0" d="M247.6,77.1c0-19.9,13.1-31.5,28.3-31.5c7.8,0,14,3.7,18.1,7.8l-7.2,8.7c-3-2.8-6.3-4.8-10.6-4.8
				c-8.2,0-14.7,7.2-14.7,19.3s5.7,19.5,14.5,19.5c4.9,0,8.8-2.4,11.8-5.6L295,99c-5,5.8-11.6,8.8-19.4,8.8
				C260.4,107.8,247.7,97.3,247.6,77.1L247.6,77.1z"/>
		</g>
	</g>
</g>
</svg>
