<?xml version="1.0" encoding="utf-8"?>
<!-- Generator: Adobe Illustrator 28.0.0, SVG Export Plug-In . SVG Version: 6.00 Build 0)  -->
<svg version="1.1" id="Layer_1" xmlns="http://www.w3.org/2000/svg" xmlns:xlink="http://www.w3.org/1999/xlink" x="0px" y="0px"
	 viewBox="0 0 300 200" style="enable-background:new 0 0 300 200;" xml:space="preserve">
<style type="text/css">
	.st0{fill:#363842;}
	.st1{fill:#383842;}
</style>
<g>
	<polygon class="st0" points="49.3,49.9 49.3,61.6 20,61.6 20,76.1 45.5,76.1 45.5,86.9 20,86.9 20,112.8 6.6,112.8 6.6,49.9 	"/>
	<path class="st0" d="M82.5,101.2c1.9,0,3.8-0.3,5.6-1c1.8-0.7,3.5-1.8,4.9-3.2c1.5-1.7,2.7-3.7,3.4-5.8c0.9-2.8,1.3-5.8,1.3-8.7
		c0-2.9-0.3-5.8-0.9-8.7c-0.5-2.4-1.4-4.6-2.8-6.6c-1.4-1.9-3.3-3.3-5.4-4.2c-2.7-1.1-5.5-1.5-8.4-1.4h-9.7v39.6L82.5,101.2
		L82.5,101.2z M83.4,49.9c3.7,0,7.4,0.6,10.9,1.9c3.3,1.2,6.3,3.2,8.8,5.8c2.5,2.7,4.5,6.1,5.6,9.6c1.5,4.4,2.2,9,2.1,13.6
		c0,4.3-0.5,8.6-1.7,12.7c-1,3.7-2.8,7.1-5.1,10c-2.4,2.9-5.3,5.1-8.6,6.7c-3.8,1.7-7.9,2.5-12,2.5H57.1V49.9
		C57.1,49.9,83.4,49.9,83.4,49.9z"/>
	<path class="st0" d="M151.3,88.5l-7.7-23.2h-0.2l-7.9,23.2H151.3L151.3,88.5z M150.5,49.9l22.7,62.9h-14l-4.6-14H132l-4.8,14h-13.5
		l23-62.9H150.5z"/>
	<path class="st0" d="M22,133c-0.2-0.6-0.4-1.3-0.7-1.9s-0.7-1.1-1.2-1.5c-0.5-0.5-1.1-0.8-1.7-1c-0.7-0.3-1.5-0.4-2.2-0.4
		c-1.1,0-2.2,0.2-3.2,0.8c-0.9,0.5-1.6,1.2-2.2,2.1s-1,1.9-1.3,2.9c-0.6,2.2-0.6,4.6,0,6.8c0.2,1,0.7,2,1.3,2.9
		c0.6,0.9,1.3,1.6,2.2,2.1c1,0.6,2.1,0.9,3.2,0.9c0.8,0,1.6-0.2,2.4-0.5c0.7-0.3,1.3-0.8,1.8-1.4c0.5-0.6,0.9-1.3,1.2-2.1
		c0.3-0.8,0.5-1.6,0.6-2.5h4c-0.1,1.4-0.4,2.7-0.9,3.9c-0.5,1.2-1.2,2.2-2.1,3.1c-0.9,0.9-1.9,1.6-3.1,2c-1.3,0.5-2.6,0.8-3.9,0.8
		c-1.6,0-3.2-0.3-4.7-1c-1.3-0.6-2.6-1.6-3.5-2.7c-1-1.2-1.7-2.6-2.2-4c-0.5-1.6-0.8-3.2-0.8-4.9c0-1.6,0.2-3.3,0.8-4.9
		c0.5-1.5,1.3-2.8,2.2-4c1-1.2,2.2-2.2,3.5-2.9c1.5-0.6,3.1-1,4.7-0.9c1.3,0,2.5,0.2,3.7,0.6c1.1,0.3,2.1,0.9,3.1,1.6
		c0.9,0.7,1.6,1.6,2.2,2.6c0.5,1.1,0.9,2.2,1,3.5H22z"/>
	<polygon class="st0" points="33.1,125.3 37.2,125.3 37.2,145.8 49.1,145.8 49.1,149.5 33.1,149.5 	"/>
	<polygon class="st0" points="55.2,125.3 72,125.3 72,129 59.3,129 59.3,135.3 71.1,135.3 71.1,138.8 59.3,138.8 59.3,145.8 
		72.3,145.8 72.3,149.5 55.2,149.5 	"/>
	<path class="st0" d="M83.9,139.8h7.1l-3.5-10.4L83.9,139.8z M85.3,125.3h4.4l9,24.2h-4.4l-2.2-6.4h-9.3l-2.2,6.4h-4.2L85.3,125.3
		L85.3,125.3z"/>
	<path class="st0" d="M108.3,136.3h6.7c1.1,0.1,2.1-0.3,3-1c0.7-0.8,1.1-1.8,1-2.9c0-0.6-0.1-1.3-0.3-1.9c-0.2-0.5-0.5-0.8-0.9-1.1
		c-0.4-0.3-0.8-0.5-1.3-0.5c-0.5,0-1,0-1.5,0h-6.7L108.3,136.3L108.3,136.3z M104.2,125.3h11.2c2.1-0.2,4.1,0.5,5.8,1.8
		c1.3,1.2,2,3,1.9,4.8c0,1-0.2,2-0.5,2.9c-0.3,0.7-0.6,1.3-1.1,1.8c-0.4,0.4-0.8,0.8-1.3,1l-0.9,0.4c0.4,0.1,0.8,0.2,1.1,0.3
		c0.4,0.2,0.8,0.5,1.1,0.9c0.4,0.5,0.7,1,0.9,1.5c0.3,0.8,0.4,1.6,0.4,2.4c0,1.3,0.1,2.6,0.3,3.9c0.1,0.9,0.4,1.8,1,2.5h-4.4
		c-0.3-0.5-0.5-1.1-0.6-1.7v-1.8c0-1,0-1.9-0.2-2.9c-0.1-0.7-0.3-1.4-0.7-2c-0.3-0.5-0.8-0.9-1.4-1.1c-0.8-0.3-1.5-0.4-2.3-0.4h-6.1
		v10h-4.1L104.2,125.3L104.2,125.3z"/>
	<polygon class="st0" points="130.5,125.3 147.4,125.3 147.4,129 134.6,129 134.6,135.3 146.4,135.3 146.4,138.8 134.6,138.8 
		134.6,145.8 147.6,145.8 147.6,149.5 130.5,149.5 	"/>
	<path class="st0" d="M158.5,146.1h4c1.3,0,2.7-0.2,3.9-0.6c1-0.4,1.8-1,2.4-1.8c0.6-0.8,1-1.7,1.2-2.7c0.2-1.1,0.3-2.3,0.2-3.4
		c0-1.1,0-2.3-0.2-3.4c-0.2-1-0.6-1.9-1.2-2.7c-0.6-0.8-1.4-1.4-2.4-1.8c-1.3-0.5-2.6-0.7-3.9-0.6h-4V146.1L158.5,146.1z
		 M154.4,125.3h9.7c1.6,0,3.2,0.3,4.7,1c1.3,0.6,2.4,1.4,3.2,2.6c0.9,1.1,1.5,2.4,1.9,3.9c0.4,1.5,0.6,3.1,0.6,4.7
		c0,1.6-0.2,3.2-0.6,4.7c-0.4,1.4-1,2.7-1.9,3.8c-0.8,1.1-1.9,2-3.2,2.6c-1.4,0.6-3.1,1-4.7,0.9h-9.7V125.3L154.4,125.3z"/>
	<path class="st1" d="M236,102c1.6,0,2.9,0.5,3.8,1.3c1,0.9,1.4,2.1,1.4,3.6c0,1.8-0.5,3.2-1.6,4.2c-1.1,1-2.6,1.5-4.6,1.5
		c-1.8,0-3.2-0.3-4.2-0.9v-2.4c0.6,0.3,1.3,0.6,2,0.8c0.8,0.2,1.5,0.3,2.1,0.3c1.1,0,2.1-0.3,2.6-0.8c0.6-0.5,0.9-1.3,0.9-2.4
		c0-2-1.2-3-3.7-3c-0.3,0-0.8,0-1.3,0.1c-0.5,0.1-1,0.2-1.3,0.2l-1.1-0.7l0.6-8.1h8.3v2.4H234l-0.3,4.1c0.3,0,0.6-0.1,1-0.2
		C235,102.1,235.4,102.1,236,102L236,102z"/>
	<path class="st1" d="M250.9,112.3h-2.6v-10.7c0-1.3,0-2.3,0.1-3.1c-0.2,0.2-0.4,0.4-0.6,0.6s-1.1,0.9-2.4,2.1l-1.3-1.7l4.7-3.8h2.1
		V112.3L250.9,112.3z"/>
	<path class="st1" d="M258.7,104c0,2.2,0.2,3.9,0.7,4.8c0.5,1,1.2,1.4,2.1,1.4c1,0,1.7-0.5,2.2-1.5s0.7-2.6,0.7-4.8
		s-0.2-3.8-0.7-4.8c-0.5-1-1.2-1.5-2.2-1.5s-1.7,0.5-2.1,1.4C259,100.2,258.7,101.8,258.7,104z M267,104c0,2.9-0.5,5-1.3,6.4
		c-0.9,1.4-2.2,2.1-4.1,2.1c-1.8,0-3.1-0.7-4-2.2c-0.9-1.4-1.4-3.5-1.4-6.3c0-2.9,0.5-5.1,1.3-6.4c0.9-1.4,2.2-2.1,4.1-2.1
		c1.8,0,3.1,0.7,4,2.2C266.5,99.1,267,101.3,267,104z"/>
	<path class="st1" d="M268.8,106c0-2,0.3-3.9,0.8-5.6c0.6-1.8,1.4-3.3,2.4-4.6h2.2c-1,1.4-1.8,3-2.3,4.8c-0.5,1.8-0.8,3.5-0.8,5.4
		s0.3,3.6,0.8,5.3c0.5,1.7,1.3,3.3,2.3,4.7h-2.2c-1.1-1.3-1.9-2.8-2.4-4.5C269.1,109.8,268.9,108,268.8,106L268.8,106z"/>
	<polygon class="st1" points="279.4,105.7 280.8,103.9 284.5,99.8 287.5,99.8 282.6,105.2 287.8,112.3 284.7,112.3 280.9,106.8 
		279.4,108 279.4,112.3 276.9,112.3 276.9,94.7 279.4,94.7 279.4,103.3 279.3,105.7 	"/>
	<path class="st1" d="M294,106c0,2-0.3,3.9-0.8,5.6c-0.6,1.7-1.4,3.2-2.4,4.5h-2.2c1-1.4,1.8-3,2.3-4.7c0.5-1.7,0.8-3.5,0.8-5.3
		s-0.3-3.7-0.8-5.4c-0.5-1.8-1.3-3.4-2.3-4.8h2.2c1.1,1.3,1.9,2.9,2.4,4.6C293.8,102.2,294.1,104,294,106L294,106z"/>
	<path class="st1" d="M201.3,81.5h-3.7l-6.2-9.3l-1.9,1.6v7.7h-3.2V61.1h3.2v9.8c0.9-1.1,1.8-2.2,2.6-3.2l5.3-6.5h3.7
		c-3.5,4.2-5.9,7.2-7.4,9L201.3,81.5L201.3,81.5z"/>
	<path class="st1" d="M215.9,81.5h-13.4v-2.5l5.1-5.3c1.5-1.6,2.5-2.7,3-3.4c0.5-0.6,0.8-1.3,1.1-1.9c0.2-0.6,0.3-1.2,0.3-1.9
		c0-0.9-0.3-1.6-0.8-2.2c-0.5-0.5-1.3-0.8-2.2-0.8c-0.8,0-1.5,0.2-2.2,0.4c-0.7,0.3-1.5,0.8-2.4,1.6l-1.7-2.2c1.1-1,2.2-1.6,3.2-2.1
		c1-0.4,2.1-0.6,3.3-0.6c1.8,0,3.3,0.5,4.4,1.5c1.1,1,1.7,2.3,1.7,4c0,0.9-0.2,1.8-0.5,2.6c-0.3,0.8-0.8,1.7-1.5,2.6
		c-0.6,0.9-1.8,2.1-3.3,3.6l-3.4,3.4v0.2h9.4L215.9,81.5L215.9,81.5z"/>
	<path class="st1" d="M231.7,81.5h-13.4v-2.5l5.1-5.3c1.5-1.6,2.5-2.7,3-3.4c0.5-0.6,0.8-1.3,1.1-1.9c0.2-0.6,0.3-1.2,0.3-1.9
		c0-0.9-0.3-1.6-0.8-2.2c-0.5-0.5-1.3-0.8-2.2-0.8c-0.8,0-1.5,0.2-2.2,0.4c-0.7,0.3-1.5,0.8-2.4,1.6l-1.7-2.2c1.1-1,2.2-1.6,3.2-2.1
		c1-0.4,2.1-0.6,3.3-0.6c1.8,0,3.3,0.5,4.4,1.5c1.1,1,1.7,2.3,1.7,4c0,0.9-0.2,1.8-0.5,2.6c-0.3,0.8-0.8,1.7-1.5,2.6
		c-0.6,0.9-1.8,2.1-3.3,3.6l-3.4,3.4v0.2h9.4L231.7,81.5L231.7,81.5z"/>
	<path class="st1" d="M247.6,81.5h-13.4v-2.5l5.1-5.3c1.5-1.6,2.5-2.7,3-3.4c0.5-0.6,0.8-1.3,1.1-1.9c0.2-0.6,0.3-1.2,0.3-1.9
		c0-0.9-0.3-1.6-0.8-2.2c-0.5-0.5-1.3-0.8-2.2-0.8c-0.8,0-1.5,0.2-2.2,0.4c-0.7,0.3-1.5,0.8-2.4,1.6l-1.7-2.2c1.1-1,2.2-1.6,3.2-2.1
		c1-0.4,2.1-0.6,3.3-0.6c1.8,0,3.3,0.5,4.4,1.5s1.7,2.3,1.7,4c0,0.9-0.2,1.8-0.5,2.6c-0.3,0.8-0.8,1.7-1.5,2.6
		c-0.6,0.9-1.8,2.1-3.3,3.6l-3.4,3.4v0.2h9.4L247.6,81.5L247.6,81.5z"/>
	<path class="st1" d="M262.6,65.8c0,1.3-0.4,2.4-1.1,3.2c-0.7,0.9-1.8,1.4-3.1,1.8v0.1c1.6,0.2,2.8,0.7,3.6,1.5
		c0.8,0.8,1.2,1.9,1.2,3.2c0,2-0.7,3.5-2,4.6c-1.3,1.1-3.2,1.6-5.7,1.6c-2.2,0-4-0.4-5.5-1.1v-2.9c0.8,0.4,1.7,0.8,2.7,1
		c1,0.2,1.8,0.3,2.7,0.3c1.5,0,2.7-0.3,3.4-0.9s1.1-1.5,1.1-2.7c0-1.1-0.4-1.9-1.3-2.4c-0.8-0.5-2.1-0.8-4-0.8h-1.7v-2.7h1.8
		c3.2,0,4.7-1.1,4.7-3.4c0-0.9-0.3-1.6-0.8-2c-0.5-0.5-1.4-0.7-2.4-0.7c-0.8,0-1.4,0.1-2.2,0.3c-0.7,0.2-1.5,0.6-2.5,1.3l-1.6-2.3
		c1.8-1.4,3.9-2.1,6.3-2.1c2,0,3.5,0.5,4.7,1.3C262,63.1,262.6,64.3,262.6,65.8L262.6,65.8z"/>
	<path class="st1" d="M279.2,81.5h-13.4v-2.5l5.1-5.3c1.5-1.6,2.5-2.7,3-3.4c0.5-0.6,0.8-1.3,1.1-1.9c0.2-0.6,0.3-1.2,0.3-1.9
		c0-0.9-0.3-1.6-0.8-2.2c-0.5-0.5-1.3-0.8-2.2-0.8c-0.8,0-1.5,0.2-2.2,0.4c-0.7,0.3-1.5,0.8-2.4,1.6l-1.7-2.2c1.1-1,2.2-1.6,3.2-2.1
		c1-0.4,2.1-0.6,3.3-0.6c1.8,0,3.3,0.5,4.4,1.5s1.7,2.3,1.7,4c0,0.9-0.2,1.8-0.5,2.6c-0.3,0.8-0.8,1.7-1.5,2.6
		c-0.6,0.9-1.8,2.1-3.3,3.6l-3.4,3.4v0.2h9.4V81.5L279.2,81.5z"/>
	<path class="st1" d="M284.8,71.3c0,2.8,0.3,4.8,0.8,6c0.6,1.2,1.4,1.8,2.7,1.8c1.2,0,2.1-0.6,2.7-1.8c0.6-1.2,0.8-3.2,0.8-5.9
		c0-2.7-0.3-4.7-0.8-5.9c-0.6-1.2-1.4-1.8-2.7-1.8c-1.2,0-2.1,0.6-2.7,1.8C285,66.6,284.8,68.5,284.8,71.3z M295,71.3
		c0,3.5-0.6,6.2-1.6,7.9c-1.1,1.7-2.8,2.6-5.1,2.6s-3.9-0.9-5-2.7c-1.1-1.8-1.7-4.4-1.7-7.9c0-3.6,0.6-6.3,1.7-8
		c1.1-1.7,2.8-2.6,5-2.6c2.2,0,3.9,0.9,5,2.7C294.4,65.3,295,67.9,295,71.3L295,71.3z"/>
</g>
</svg>
