<?xml version="1.0" encoding="utf-8"?>
<!-- Generator: Adobe Illustrator 28.0.0, SVG Export Plug-In . SVG Version: 6.00 Build 0)  -->
<svg version="1.1" id="Layer_1" xmlns="http://www.w3.org/2000/svg" xmlns:xlink="http://www.w3.org/1999/xlink" x="0px" y="0px"
	 viewBox="0 0 300 200" style="enable-background:new 0 0 300 200;" xml:space="preserve">
<style type="text/css">
	.st0{fill:#3F3B43;}
</style>
<g>
	<rect x="5" y="47" class="st0" width="13.9" height="65.4"/>
	<polygon class="st0" points="75.1,47 75.1,72.6 49.2,72.6 49.2,47 35.3,47 35.3,112.4 49.2,112.4 49.2,84.1 75.1,84.1 75.1,112.4 
		89,112.4 89,47 	"/>
	<polygon class="st0" points="105.5,47 105.5,112.4 143.1,112.4 143.1,100.9 119.3,100.9 119.3,84.1 141.5,84.1 141.5,72.7 
		119.3,72.7 119.3,58.3 143.1,58.3 143.1,47 	"/>
	<path class="st0" d="M24.4,133.3c0,3-0.9,5.3-2.8,6.9c-1.9,1.6-4.6,2.4-8,2.4h-2.6v10H5v-28h8.9c3.4,0,6,0.7,7.7,2.2
		C23.5,128.3,24.3,130.5,24.4,133.3 M10.9,137.8h2c1.8,0,3.2-0.4,4.1-1.1c0.9-0.7,1.4-1.8,1.4-3.1c0-1.3-0.4-2.4-1.1-3.1
		c-0.8-0.7-2-1-3.6-1H11L10.9,137.8L10.9,137.8z"/>
	<path class="st0" d="M41.3,140.9c-1.9-6.1-2.9-9.5-3.2-10.2c-0.2-0.8-0.4-1.4-0.5-1.9c-0.4,1.6-1.6,5.7-3.6,12.1
		C34.1,140.9,41.3,140.9,41.3,140.9z M44.8,152.6l-2-6.7H32.6l-2,6.7h-6.4l9.9-28.1h7.2l9.9,28.1C51.2,152.6,44.8,152.6,44.8,152.6z
		"/>
	<path class="st0" d="M71.3,144.8c0,2.5-0.9,4.5-2.7,6c-1.8,1.5-4.4,2.2-7.6,2.2c-3,0-5.7-0.6-7.9-1.7v-5.5c1.9,0.9,3.5,1.4,4.8,1.8
		s2.5,0.5,3.6,0.5c1.3,0,2.3-0.2,3-0.7c0.7-0.5,1.1-1.2,1.1-2.2c0-0.6-0.2-1.1-0.4-1.5c-0.3-0.4-0.8-0.9-1.3-1.2
		c-0.6-0.4-1.8-1-3.6-1.9c-1.7-0.8-3-1.6-3.9-2.3s-1.5-1.6-2-2.6c-0.5-1-0.8-2.1-0.8-3.5c0-2.5,0.9-4.4,2.5-5.9c1.7-1.4,4-2.1,7-2.1
		c1.5,0,2.8,0.2,4.1,0.5s2.7,0.8,4.1,1.5l-1.9,4.6c-1.5-0.6-2.7-1.1-3.7-1.3c-1-0.2-2-0.4-2.9-0.4c-1.1,0-2,0.2-2.6,0.8
		c-0.6,0.5-0.9,1.2-0.9,2c0,0.5,0.1,1,0.4,1.4c0.2,0.4,0.6,0.8,1.1,1.1s1.8,1,3.8,2c2.6,1.3,4.4,2.5,5.4,3.8
		C70.8,141.5,71.3,143.1,71.3,144.8"/>
	<path class="st0" d="M92.9,144.8c0,2.5-0.9,4.5-2.7,6c-1.8,1.5-4.4,2.2-7.6,2.2c-3,0-5.6-0.6-7.9-1.7v-5.5c1.9,0.9,3.5,1.4,4.8,1.8
		s2.5,0.5,3.6,0.5c1.3,0,2.3-0.2,3-0.7c0.7-0.5,1.1-1.2,1.1-2.2c0-0.6-0.2-1.1-0.4-1.5c-0.3-0.4-0.8-0.9-1.3-1.2
		c-0.6-0.4-1.8-1-3.6-1.9c-1.7-0.8-3-1.6-3.9-2.3c-0.9-0.7-1.5-1.6-2-2.6c-0.5-1-0.8-2.1-0.8-3.5c0-2.5,0.9-4.4,2.5-5.9s4-2.1,7-2.1
		c1.5,0,2.8,0.2,4.1,0.5c1.3,0.4,2.7,0.8,4.1,1.5l-1.9,4.6c-1.5-0.6-2.7-1.1-3.7-1.3c-1-0.2-2-0.4-2.9-0.4c-1.1,0-2,0.2-2.6,0.8
		s-0.9,1.2-0.9,2c0,0.5,0.1,1,0.4,1.4c0.2,0.4,0.6,0.8,1.1,1.1c0.5,0.4,1.8,1,3.8,2c2.6,1.3,4.4,2.5,5.4,3.8
		C92.4,141.5,92.9,143.1,92.9,144.8"/>
	<polygon class="st0" points="114.1,152.6 97.9,152.6 97.9,124.6 114.1,124.6 114.1,129.5 103.9,129.5 103.9,135.6 113.3,135.6 
		113.3,140.5 103.9,140.5 103.9,147.7 114.1,147.7 	"/>
	<path class="st0" d="M137,138.5c0-6-2.6-9-8-9h-3.2v18.2h2.6C134.1,147.7,137,144.6,137,138.5 M143.1,138.3c0,4.6-1.3,8.1-3.9,10.6
		c-2.6,2.4-6.4,3.7-11.3,3.7h-7.9v-28h8.8c4.6,0,8.1,1.2,10.7,3.6S143.1,133.9,143.1,138.3"/>
	<polygon class="st0" points="186.6,93.6 181.3,93.6 174.3,82.2 167.3,93.6 162.3,93.6 171.6,79.1 162.9,65.6 168,65.6 174.5,76.2 
		181,65.6 186,65.6 177.2,79.1 	"/>
	<path class="st0" d="M208.4,79.5c0-6.7-3.1-10.1-9.4-10.1h-4v20.4h3.3C204.9,89.8,208.3,86.3,208.4,79.5 M213.2,79.3
		c0,4.6-1.3,8.2-3.9,10.6c-2.6,2.4-6.3,3.7-11.1,3.7h-7.8V65.5h8.7c4.5,0,7.9,1.2,10.4,3.6C211.9,71.5,213.2,74.9,213.2,79.3"/>
	<path class="st0" d="M235.4,86c0,2.5-0.9,4.4-2.7,5.9c-1.8,1.4-4.3,2.1-7.4,2.1s-5.8-0.5-7.8-1.5v-4.4c1.3,0.6,2.6,1.1,4.1,1.4
		s2.8,0.5,4,0.5c1.8,0,3.2-0.4,4-1c0.9-0.7,1.3-1.6,1.3-2.8c0-1.1-0.4-2-1.2-2.6c-0.8-0.7-2.4-1.6-4.9-2.6c-2.6-1.1-4.4-2.2-5.4-3.5
		c-1.1-1.3-1.6-2.9-1.6-4.8c0-2.4,0.8-4.2,2.5-5.5s3.9-2,6.7-2s5.4,0.6,8,1.7l-1.5,3.7c-2.5-1.1-4.7-1.6-6.7-1.6
		c-1.5,0-2.6,0.3-3.4,1c-0.8,0.7-1.1,1.5-1.1,2.6c0,0.7,0.2,1.3,0.4,1.9c0.3,0.5,0.8,1,1.5,1.5c0.7,0.4,2,1.1,3.8,1.8
		c2.1,0.9,3.6,1.7,4.5,2.4c1,0.7,1.7,1.6,2.1,2.5S235.4,84.8,235.4,86"/>
	<rect x="238.5" y="81.2" class="st0" width="9.9" height="3.8"/>
	<rect x="253.5" y="65.6" class="st0" width="4.6" height="28.1"/>
	<path class="st0" d="M264.3,91.2c0-0.9,0.2-1.7,0.7-2.2c0.5-0.5,1.2-0.7,2.1-0.7c0.9,0,1.6,0.2,2.1,0.8c0.5,0.5,0.7,1.2,0.7,2.1
		s-0.2,1.6-0.7,2.2c-0.5,0.5-1.2,0.8-2.1,0.8c-0.9,0-1.6-0.3-2.1-0.8C264.5,92.9,264.3,92.2,264.3,91.2"/>
	<path class="st0" d="M285.4,75.7c-1.8,0-3.1,0.5-3.9,1.6c-0.8,1.1-1.2,2.8-1.3,5.4V83c0,2.6,0.4,4.5,1.2,5.6c0.8,1.1,2.2,1.7,4,1.7
		c1.6,0,2.8-0.7,3.6-1.9c0.8-1.3,1.2-3.1,1.2-5.5C290.4,78.1,288.7,75.7,285.4,75.7 M286.6,72c2.6,0,4.7,1,6.2,2.9
		c1.5,1.9,2.2,4.6,2.2,8.1s-0.7,6.2-2.2,8.1c-1.5,2-3.6,2.9-6.2,2.9c-2.6,0-4.8-1-6.3-2.9H280l-0.8,2.5h-3.4V63.8h4.5v7.1
		c0,0.5,0,1.3-0.1,2.4c0,1.1-0.1,1.7-0.1,2h0.2C281.7,73.2,283.8,72.1,286.6,72"/>
</g>
</svg>
