<?xml version="1.0" encoding="utf-8"?>
<!-- Generator: Adobe Illustrator 28.0.0, SVG Export Plug-In . SVG Version: 6.00 Build 0)  -->
<svg version="1.1" id="Layer_1" xmlns="http://www.w3.org/2000/svg" xmlns:xlink="http://www.w3.org/1999/xlink" x="0px" y="0px"
	 viewBox="0 0 300 200" style="enable-background:new 0 0 300 200;" xml:space="preserve">
<style type="text/css">
	.st0{fill:#373842;}
</style>
<g id="Capa_1-2">
	<path class="st0" d="M127.2,121l-1.4-0.1c-6.3-0.4-12.3-2.1-17.9-5c-12.3-6.6-20.2-16.6-23.5-30.2c-0.9-3.8-1.3-7.7-1.2-11.5
		c0.2-11.1,4.5-21.8,12.1-30c4.9-5.4,11-9.5,17.9-11.9c3.3-1.2,6.9-2.1,10.4-2.5c1-0.1,2.1-0.1,3.2-0.2h0.4l3.5,0h0.7l2.2,0.2v14
		c-8.2-1.1-15.8,0.6-22.7,5.3c-6.9,4.7-11.1,11.2-13.1,19.4h26.6v13.9H97.8c1.3,6.4,4.7,12.1,9.5,16.5c7.5,6.7,16.3,9.4,26.2,8.2
		v13.9l-1.2,0.1l-1.7,0.1L127.2,121L127.2,121z"/>
	<path class="st0" d="M52.9,29.4l1.7,0.1l1.2,0.1v13.9c-10.3-1.2-19.3,1.5-26.8,8.7c-6.3,5.9-9.8,14.2-9.7,22.9
		c-0.1,9.3,3.9,18.2,11,24.1c7.3,6.3,15.9,8.7,25.5,7.5v13.9l-2.2,0.1h-0.7l-3.3,0h-0.3c-0.7-0.1-1.3-0.1-1.9-0.2
		c-10.5-0.9-20.4-5.4-27.9-12.7c-8.2-7.8-13.1-18.4-13.8-29.6l-0.1-1.5v-3.4c0,0,0-0.3,0-0.4c0.1-2.7,0.5-5.5,1.1-8.2
		C11.2,45.3,28,31,48,29.5c0.5,0,1-0.1,1.5-0.1H52.9L52.9,29.4z"/>
	<path class="st0" d="M166.4,71c0,5.9,0.6,10.2,1.8,12.6c1.2,2.5,3.1,3.8,5.8,3.8c2.7,0,4.6-1.3,5.9-3.8c1.2-2.6,1.8-6.8,1.8-12.6
		c0-5.8-0.6-10.1-1.8-12.6c-1.2-2.6-3.2-3.9-5.9-3.9s-4.6,1.3-5.8,3.8C167.1,60.8,166.5,65.1,166.4,71 M188.8,71
		c0,7.5-1.2,13.1-3.6,16.8c-2.4,3.7-6.1,5.5-11.1,5.5c-5,0-8.5-1.9-11-5.7c-2.5-3.8-3.7-9.4-3.7-16.6c0-7.7,1.2-13.3,3.6-16.9
		c2.4-3.6,6.1-5.4,11.1-5.4c5,0,8.5,1.9,11,5.7C187.6,58.1,188.8,63.7,188.8,71"/>
	<path class="st0" d="M214.6,92.6h-7v-28c0-3.3,0.1-6,0.2-8c-0.4,0.4-1,1-1.7,1.6c-0.6,0.6-2.9,2.4-6.7,5.5l-3.5-4.4l12.8-10h5.8
		L214.6,92.6L214.6,92.6z"/>
	<path class="st0" d="M243,54.5c-2.4,0-4.3,0.8-5.5,2.3c-1.3,1.6-1.9,3.8-1.9,6.6c0,2.5,0.6,4.4,1.8,5.8c1.2,1.4,3,2.1,5.4,2.1
		c2.2,0,4.3-0.7,5.9-2.1c1.5-1.2,2.4-3,2.4-4.9c0-1.7-0.3-3.4-1-4.9c-0.6-1.4-1.6-2.7-2.8-3.6C245.9,55,244.5,54.5,243,54.5
		 M258.1,67.8c0,8.6-1.7,14.9-5.2,19.1c-3.4,4.2-8.6,6.3-15.5,6.4c-1.9,0-3.8-0.1-5.7-0.5v-5.9c1.7,0.5,3.5,0.7,5.3,0.7
		c4.7,0,8.2-1.2,10.5-3.8c2.3-2.5,3.6-6.5,3.8-11.9H251c-1,1.6-2.5,3-4.2,3.8c-1.8,0.8-3.8,1.2-5.8,1.2c-3.8,0-6.9-1.2-9.1-3.6
		c-2.2-2.4-3.3-5.7-3.2-9.9c0-4.5,1.3-8.1,3.8-10.8s6-4,10.4-4c5.9-0.2,11.2,3.3,13.3,8.8C257.6,60.8,258.2,64.3,258.1,67.8"/>
	<polygon class="st0" points="268.4,92.6 285.5,55.5 263,55.5 263,49.3 293,49.3 293,54.2 275.9,92.6 	"/>
	<path class="st0" d="M23.9,152.2c-0.2-0.7-0.4-1.4-0.8-2.1c-0.7-1.3-1.8-2.2-3.2-2.7c-0.8-0.2-1.6-0.4-2.5-0.4
		c-1.2,0-2.5,0.2-3.6,0.8c-1,0.5-1.8,1.3-2.5,2.2c-0.6,1-1.1,2-1.4,3.2c-0.6,2.4-0.6,4.9,0,7.3c0.3,1.1,0.7,2.2,1.4,3.2
		c0.6,0.9,1.5,1.7,2.5,2.2c1.1,0.6,2.3,0.9,3.6,0.8c0.9,0,1.8-0.1,2.7-0.5c0.7-0.3,1.4-0.8,2-1.4c0.6-0.6,1-1.4,1.3-2.2
		c0.3-0.8,0.5-1.7,0.6-2.7h4.4c0,1.5-0.4,2.9-1,4.3c-0.5,1.2-1.3,2.4-2.3,3.4c-1,0.9-2.1,1.7-3.4,2.2c-1.4,0.5-2.9,0.7-4.3,0.7
		c-1.8,0-3.6-0.3-5.2-1.1c-1.5-0.7-2.8-1.7-3.9-2.9c-1.1-1.3-1.9-2.7-2.5-4.3c-1.1-3.4-1.1-7.1,0-10.6c0.5-1.6,1.4-3,2.5-4.3
		c1.1-1.2,2.4-2.2,3.9-2.9c1.6-0.7,3.4-1.1,5.2-1.1c1.4,0,2.8,0.2,4.1,0.6c1.2,0.4,2.4,1,3.4,1.7c1,0.7,1.8,1.7,2.4,2.8
		c0.6,1.1,1,2.4,1.1,3.8L23.9,152.2L23.9,152.2z"/>
	<rect x="32.1" y="143.9" class="st0" width="4.2" height="26.1"/>
	<path class="st0" d="M52.5,160.5c-0.7,0.4-1.5,0.7-2.3,0.7c-0.9,0.1-1.8,0.2-2.8,0.4c-0.4,0-0.8,0.1-1.3,0.3
		c-0.4,0.1-0.7,0.3-1.1,0.5c-0.3,0.2-0.6,0.5-0.7,0.9c-0.2,0.4-0.3,0.9-0.3,1.3c0,0.4,0.1,0.8,0.4,1.1c0.2,0.3,0.6,0.5,1,0.7
		c0.4,0.2,0.8,0.3,1.2,0.4c0.4,0,0.8,0.1,1.2,0.1c0.5,0,1,0,1.5-0.2c0.5-0.1,1-0.3,1.5-0.6c0.4-0.3,0.8-0.6,1.2-1.1
		c0.3-0.5,0.5-1.1,0.5-1.7L52.5,160.5L52.5,160.5z M56.7,165.8c0,0.4,0,0.7,0.2,1.1c0.2,0.2,0.5,0.3,0.8,0.3h0.4c0,0,0.4,0,0.6-0.1
		v2.9c0,0-0.3,0.1-0.5,0.1c-0.2,0-0.5,0.1-0.7,0.1c-0.2,0-0.5,0.1-0.7,0.1c-0.2,0-0.4,0-0.6,0c-0.7,0-1.4-0.1-2.1-0.5
		c-0.6-0.4-1-1-1.1-1.8c-0.8,0.8-1.9,1.4-3.1,1.7c-1.1,0.3-2.3,0.5-3.5,0.5c-0.8,0-1.6-0.1-2.4-0.3c-0.7-0.2-1.4-0.5-2.1-1
		c-0.6-0.4-1.1-1-1.4-1.7c-0.3-0.7-0.5-1.6-0.5-2.4c0-1,0.2-2,0.7-2.8c0.4-0.7,1-1.3,1.7-1.7c0.7-0.4,1.5-0.7,2.3-0.9
		c0.8-0.2,1.7-0.3,2.6-0.4c0.7-0.1,1.5-0.2,2.1-0.3c0.6,0,1.2-0.1,1.8-0.3c0.4-0.1,0.9-0.3,1.2-0.7c0.3-0.4,0.5-0.8,0.4-1.3
		c0-0.5-0.1-0.9-0.4-1.3c-0.2-0.3-0.6-0.6-0.9-0.8c-0.4-0.2-0.8-0.3-1.2-0.3c-0.4,0-0.9-0.1-1.3-0.1c-1,0-2,0.2-2.9,0.7
		c-0.7,0.5-1.2,1.3-1.3,2.3h-4.2c0-1.1,0.3-2.1,0.9-3c0.5-0.8,1.1-1.4,1.9-1.9c0.8-0.5,1.7-0.8,2.7-1c1-0.2,2-0.3,3.1-0.3
		c0.9,0,1.8,0.1,2.7,0.3c0.8,0.2,1.7,0.5,2.4,0.9c0.7,0.4,1.3,1,1.7,1.7c0.4,0.7,0.7,1.6,0.6,2.5L56.7,165.8L56.7,165.8z"/>
	<path class="st0" d="M64.3,163.9c0,1,0.5,2,1.4,2.5c0.9,0.5,1.9,0.8,2.9,0.7c0.4,0,0.9,0,1.3-0.1c0.5,0,0.9-0.1,1.4-0.3
		c0.4-0.1,0.8-0.4,1.1-0.7c0.3-0.3,0.4-0.8,0.4-1.3c0-0.5-0.2-1-0.6-1.3c-0.4-0.3-0.9-0.6-1.4-0.8c-0.6-0.2-1.3-0.4-1.9-0.5
		c-0.7-0.1-1.5-0.3-2.2-0.5c-0.7-0.1-1.5-0.3-2.2-0.6c-0.7-0.2-1.3-0.5-1.9-1c-0.5-0.4-1-0.9-1.3-1.6c-0.3-0.7-0.5-1.5-0.5-2.4
		c0-0.9,0.2-1.8,0.7-2.6c0.5-0.7,1.1-1.3,1.9-1.7c0.8-0.4,1.6-0.7,2.5-0.9c0.9-0.1,1.8-0.2,2.7-0.2c0.9,0,1.9,0.1,2.8,0.3
		c0.8,0.2,1.7,0.5,2.4,1c0.7,0.4,1.3,1.1,1.8,1.8c0.5,0.8,0.8,1.7,0.9,2.7H72c-0.1-0.8-0.6-1.6-1.3-2c-0.8-0.3-1.6-0.5-2.5-0.5
		c-0.3,0-0.7,0-1,0c-0.4,0-0.7,0.1-1.1,0.3c-0.3,0.1-0.6,0.3-0.9,0.6c-0.2,0.2-0.4,0.6-0.4,1c0,0.5,0.2,0.9,0.5,1.2
		c0.4,0.3,0.9,0.6,1.4,0.8c0.6,0.2,1.3,0.4,1.9,0.5c0.7,0.1,1.5,0.3,2.2,0.4c0.8,0.1,1.5,0.4,2.2,0.6c0.7,0.2,1.3,0.5,1.9,1
		c0.5,0.4,1,0.9,1.4,1.6c0.3,0.7,0.5,1.5,0.5,2.3c0,1-0.2,2-0.7,2.8c-0.5,0.8-1.2,1.4-2,1.9c-0.8,0.5-1.7,0.8-2.7,1
		s-1.9,0.3-2.9,0.3c-1.1,0-2.2-0.1-3.3-0.4c-0.9-0.2-1.8-0.6-2.6-1.2c-0.7-0.5-1.3-1.2-1.7-2c-0.4-0.9-0.7-1.9-0.7-2.9L64.3,163.9
		L64.3,163.9z"/>
	<path class="st0" d="M83.3,163.9c0,1,0.5,2,1.4,2.5c0.9,0.5,1.9,0.8,2.9,0.7c0.4,0,0.9,0,1.3-0.1c0.5,0,0.9-0.1,1.4-0.3
		c0.4-0.1,0.8-0.4,1.1-0.7s0.4-0.8,0.4-1.3c0-0.5-0.2-1-0.6-1.3c-0.4-0.3-0.9-0.6-1.4-0.8c-0.6-0.2-1.3-0.4-1.9-0.5
		c-0.7-0.1-1.5-0.3-2.2-0.5c-0.7-0.1-1.5-0.3-2.2-0.6c-0.7-0.2-1.3-0.5-1.9-1c-0.5-0.4-1-1-1.3-1.6c-0.3-0.7-0.5-1.5-0.5-2.4
		c0-0.9,0.2-1.8,0.7-2.6c0.5-0.7,1.1-1.2,1.9-1.6c0.8-0.4,1.6-0.7,2.5-0.9c0.9-0.1,1.8-0.2,2.7-0.2c0.9,0,1.9,0.1,2.8,0.3
		c0.8,0.2,1.7,0.5,2.4,1c0.7,0.4,1.3,1.1,1.8,1.8c0.5,0.8,0.8,1.7,0.9,2.7h-4.4c-0.1-0.8-0.6-1.6-1.3-2c-0.8-0.3-1.6-0.5-2.5-0.5
		c-0.3,0-0.7,0-1,0.1c-0.4,0-0.7,0.1-1.1,0.2c-0.3,0.1-0.6,0.3-0.9,0.6c-0.2,0.2-0.4,0.6-0.3,1c0,0.5,0.2,0.9,0.5,1.2
		c0.4,0.3,0.9,0.6,1.4,0.8c0.6,0.2,1.3,0.4,1.9,0.5c0.7,0.1,1.5,0.3,2.3,0.4c0.8,0.1,1.5,0.4,2.2,0.6c0.7,0.2,1.3,0.5,1.9,1
		c1.2,0.9,2,2.4,1.9,3.9c0,1-0.2,2-0.7,2.8c-0.5,0.8-1.2,1.4-2,1.9c-0.8,0.5-1.7,0.8-2.7,1c-1,0.2-1.9,0.3-3,0.3
		c-1.1,0-2.2-0.1-3.3-0.4c-0.9-0.2-1.8-0.6-2.6-1.2c-0.7-0.5-1.3-1.2-1.7-2c-0.4-0.9-0.7-1.9-0.7-2.9H83.3L83.3,163.9z"/>
	<rect x="109.8" y="143.9" class="st0" width="4.6" height="26.1"/>
	<rect x="120" y="143.9" class="st0" width="4.5" height="26.1"/>
	<path class="st0" d="M144.2,160.5c0-0.8-0.1-1.7-0.3-2.5c-0.2-0.7-0.5-1.5-1-2.1c-0.4-0.6-1-1.1-1.6-1.5c-0.7-0.4-1.5-0.6-2.3-0.5
		c-1.5-0.1-3,0.6-4,1.8c-0.9,1.4-1.4,3.1-1.3,4.9c0,0.9,0.1,1.8,0.3,2.6c0.2,0.7,0.5,1.5,1,2.1c0.4,0.5,1,1,1.6,1.4
		c0.7,0.3,1.4,0.5,2.2,0.5c0.8,0,1.7-0.2,2.4-0.6c0.6-0.4,1.2-0.9,1.6-1.5c0.4-0.6,0.7-1.3,0.9-2.1
		C144,162.2,144.1,161.4,144.2,160.5 M129.6,143.9h4.2v9.7h0c0.3-0.4,0.6-0.9,1-1.2c0.4-0.3,0.8-0.7,1.3-0.9c0.5-0.2,1-0.4,1.6-0.6
		c0.5-0.1,1.1-0.2,1.6-0.2c1.3,0,2.7,0.2,3.9,0.8c1.1,0.5,2,1.2,2.7,2.1c0.7,0.9,1.3,2,1.6,3.2c0.7,2.5,0.7,5.1,0,7.6
		c-0.3,1.1-0.8,2.2-1.5,3.2c-1.4,1.9-3.7,3.1-6.2,3c-0.6,0-1.3,0-1.9-0.1c-0.6-0.1-1.2-0.2-1.8-0.5c-0.6-0.2-1.1-0.5-1.6-0.9
		c-0.5-0.4-0.9-0.9-1.2-1.5h-0.1v2.6h-3.9L129.6,143.9L129.6,143.9z"/>
	<path class="st0" d="M174.7,157.4c-0.1-1-0.6-2-1.4-2.6c-0.8-0.6-1.9-0.9-2.9-0.9c-0.6,0-1.1,0.1-1.7,0.3c-0.6,0.2-1.2,0.5-1.7,1
		c-0.5,0.6-1,1.3-1.3,2.1c-0.4,1.1-0.5,2.3-0.5,3.5c0,0.8,0.1,1.6,0.2,2.3c0.1,0.7,0.4,1.4,0.9,2.1c0.4,0.6,0.9,1.1,1.5,1.5
		c0.7,0.4,1.5,0.6,2.3,0.5c1.1,0,2.2-0.3,3-1.1c0.8-0.8,1.3-2,1.5-3.2h4.2c-0.2,2.1-1.2,4.1-2.8,5.6c-1.6,1.3-3.7,2-5.9,1.9
		c-1.3,0-2.7-0.2-3.9-0.7c-1.1-0.4-2.1-1.1-2.9-2c-0.8-0.9-1.4-1.9-1.8-3.1c-0.4-1.2-0.6-2.5-0.6-3.9s0.2-2.7,0.6-4
		c0.3-1.2,0.9-2.3,1.7-3.2c0.8-0.9,1.8-1.6,2.9-2.1c1.3-0.5,2.7-0.8,4.1-0.8c1,0,2.1,0.1,3.1,0.4c0.9,0.2,1.8,0.7,2.6,1.2
		c0.7,0.5,1.4,1.3,1.9,2.1c0.5,0.9,0.8,2,0.9,3H174.7L174.7,157.4z"/>
	<path class="st0" d="M195.3,158.9c0-0.6-0.2-1.3-0.4-1.9c-0.2-0.6-0.5-1.1-0.9-1.6c-0.4-0.4-0.9-0.8-1.4-1.1
		c-0.6-0.3-1.2-0.4-1.9-0.4c-0.7,0-1.4,0.1-2,0.4c-0.6,0.2-1.1,0.6-1.5,1c-0.4,0.4-0.8,1-1,1.6c-0.2,0.6-0.4,1.3-0.4,2H195.3
		L195.3,158.9z M185.5,161.6c0,0.7,0.1,1.4,0.3,2.1c0.2,0.6,0.5,1.2,0.9,1.8c0.4,0.5,0.9,0.9,1.6,1.2c0.7,0.3,1.5,0.5,2.2,0.4
		c1,0,2.1-0.2,2.9-0.8c0.8-0.6,1.4-1.4,1.6-2.3h3.9c-0.2,1-0.6,1.9-1.1,2.7c-0.5,0.8-1.2,1.4-1.9,2c-0.7,0.5-1.6,1-2.5,1.2
		c-0.9,0.3-1.9,0.4-2.9,0.4c-1.3,0-2.7-0.2-3.9-0.7c-1.1-0.4-2.1-1.1-2.9-2c-0.8-0.9-1.4-2-1.8-3.1c-0.4-1.3-0.6-2.7-0.6-4
		c0-1.3,0.2-2.6,0.6-3.8c0.4-1.1,1-2.2,1.8-3.2c0.8-0.9,1.8-1.6,2.9-2.2c1.2-0.5,2.5-0.8,3.8-0.8c1.4,0,2.7,0.3,4,0.9
		c1.1,0.6,2.1,1.4,2.9,2.5c0.8,1,1.3,2.2,1.7,3.5c0.3,1.3,0.4,2.7,0.3,4.1L185.5,161.6L185.5,161.6z"/>
	<path class="st0" d="M202.6,151.1h3.9v3.7h0c0.1-0.5,0.4-1,0.7-1.5c0.3-0.5,0.8-0.9,1.3-1.3c0.5-0.4,1-0.7,1.6-0.9
		c0.6-0.2,1.2-0.3,1.8-0.3c0.3,0,0.7,0,1,0l0.5,0.1v4l-0.9-0.1c-0.3,0-0.6,0-0.9,0c-0.7,0-1.4,0.1-2,0.4c-0.6,0.3-1.2,0.7-1.6,1.2
		c-0.5,0.6-0.8,1.3-1.1,2c-0.3,0.9-0.4,1.8-0.4,2.8v9h-4.2L202.6,151.1L202.6,151.1z"/>
	<path class="st0" d="M213.6,151.1h3.1v-5.7h4.2v5.7h3.8v3.1h-3.8v10.1c0,0.4,0,0.7,0,1.1c0,0.3,0.1,0.5,0.2,0.8s0.3,0.4,0.6,0.5
		c0.3,0.1,0.7,0.2,1.1,0.1h0.9c0.3,0,0.6,0,0.9-0.1v3.2l-1.3,0.1c-0.4,0-0.9,0-1.3,0.1c-0.9,0-1.8-0.1-2.6-0.3
		c-0.6-0.1-1.1-0.4-1.6-0.9c-0.4-0.4-0.6-0.9-0.7-1.5c-0.1-0.7-0.2-1.4-0.2-2.1v-11.1h-3.2V151.1L213.6,151.1z"/>
	<path class="st0" d="M227.8,151.1h4.2v18.9h-4.2C227.8,169.9,227.8,151.1,227.8,151.1z M227.8,143.9h4.2v3.9h-4.2V143.9z"/>
	<path class="st0" d="M234.6,151.1h3.1v-1.6c0-1,0.1-2,0.4-2.9c0.2-0.6,0.6-1.2,1.2-1.7c0.5-0.4,1-0.7,1.6-0.8
		c0.6-0.1,1.3-0.2,1.9-0.2c1,0,2,0,2.9,0.2v3.2c-0.3-0.1-0.5-0.1-0.8-0.1c-0.3,0-0.7,0-1.1,0c-0.5,0-1,0.1-1.4,0.4
		c-0.4,0.4-0.7,1-0.6,1.6v1.9h3.5v3.1h-3.5v15.8h-4.2v-15.8h-3.1C234.6,154.2,234.6,151.1,234.6,151.1z"/>
	<path class="st0" d="M248.1,151.1h4.2v18.9h-4.2C248.1,169.9,248.1,151.1,248.1,151.1z M248.1,143.9h4.2v3.9h-4.2V143.9z"/>
	<path class="st0" d="M269.7,158.9c0-0.6-0.2-1.3-0.4-1.9c-0.2-0.6-0.5-1.1-0.9-1.6c-0.4-0.4-0.9-0.8-1.4-1.1
		c-0.6-0.3-1.2-0.4-1.9-0.4c-0.7,0-1.4,0.1-2,0.4c-0.6,0.2-1.1,0.6-1.5,1c-0.4,0.4-0.8,1-1,1.6c-0.2,0.6-0.4,1.3-0.4,2
		C260,158.9,269.7,158.9,269.7,158.9z M260,161.6c0,0.7,0.1,1.4,0.3,2.1c0.2,0.6,0.5,1.2,0.9,1.8c0.4,0.5,0.9,0.9,1.6,1.2
		c0.7,0.3,1.5,0.5,2.2,0.4c1,0,2.1-0.2,2.9-0.8c0.8-0.6,1.3-1.4,1.6-2.3h3.9c-0.4,1.9-1.5,3.6-3.1,4.8c-0.7,0.5-1.6,0.9-2.5,1.2
		c-0.9,0.3-1.9,0.4-2.9,0.4c-1.3,0-2.7-0.2-3.9-0.7c-1.1-0.4-2.1-1.1-2.9-2c-0.8-0.9-1.4-2-1.8-3.1c-0.4-1.3-0.6-2.7-0.6-4
		c0-1.3,0.2-2.6,0.6-3.8c0.4-1.1,1-2.2,1.8-3.2c1.7-1.9,4.1-3,6.7-3c1.4,0,2.8,0.3,4,0.9c1.1,0.6,2.1,1.4,2.9,2.5
		c0.8,1,1.3,2.2,1.7,3.5c0.3,1.3,0.4,2.7,0.2,4.1H260L260,161.6z"/>
	<path class="st0" d="M280.3,160.7c0,0.8,0.1,1.6,0.3,2.4c0.2,0.7,0.5,1.4,0.9,2.1c0.4,0.6,1,1.1,1.6,1.4c0.7,0.4,1.5,0.5,2.3,0.5
		c0.8,0,1.6-0.2,2.4-0.6c0.6-0.4,1.2-0.9,1.6-1.5c0.4-0.6,0.7-1.4,0.9-2.1c0.2-0.8,0.3-1.6,0.3-2.4c0-2.1-0.5-3.7-1.4-4.9
		c-0.9-1.1-2.3-1.8-3.8-1.7c-0.8,0-1.7,0.2-2.4,0.6c-0.6,0.4-1.2,0.9-1.6,1.6c-0.4,0.6-0.7,1.4-0.9,2.2
		C280.4,159.1,280.3,159.9,280.3,160.7 M294.9,170h-3.9v-2.5h0c-0.5,1-1.4,1.9-2.4,2.3c-1,0.5-2.2,0.7-3.4,0.7
		c-1.3,0-2.7-0.2-3.9-0.8c-1-0.5-2-1.2-2.7-2.1c-0.7-0.9-1.3-2-1.6-3.2c-0.4-1.3-0.5-2.6-0.5-4c0-1.5,0.2-3,0.7-4.4
		c0.4-1.1,1-2.2,1.8-3.1c0.7-0.8,1.6-1.4,2.6-1.7c0.9-0.4,2-0.5,3-0.5c0.6,0,1.2,0,1.8,0.1c0.6,0.1,1.2,0.3,1.7,0.5s1.1,0.5,1.5,0.9
		c0.5,0.4,0.9,0.8,1.2,1.3h0.1v-9.7h4.2v26.1L294.9,170z"/>
</g>
</svg>
