<?xml version="1.0" encoding="utf-8"?>
<!-- Generator: Adobe Illustrator 28.0.0, SVG Export Plug-In . SVG Version: 6.00 Build 0)  -->
<svg version="1.1" id="Layer_1" xmlns="http://www.w3.org/2000/svg" xmlns:xlink="http://www.w3.org/1999/xlink" x="0px" y="0px"
	 viewBox="0 0 300 200" style="enable-background:new 0 0 300 200;" xml:space="preserve">
<style type="text/css">
	.st0{fill:#363842;}
</style>
<g id="Capa_1-2">
	<g>
		<path class="st0" d="M27.5,109.5l-15-43.4h-0.3c0.4,6.5,0.6,12.5,0.6,18.1v25.3H5v-52h12l14.5,41.3h0.2l14.8-41.3h12v52h-8.2V83.8
			c0-2.6,0.1-5.9,0.2-10.1c0.1-4.2,0.2-6.7,0.3-7.5h-0.3L35,109.6L27.5,109.5L27.5,109.5z"/>
		<polygon class="st0" points="104.7,57.5 104.7,78.8 80.7,78.8 80.7,57.5 72.2,57.5 72.2,109.5 80.7,109.5 80.7,86.1 104.7,86.1 
			104.7,109.5 113.2,109.5 113.2,57.5 		"/>
		<path class="st0" d="M135.3,81.7h5.9c4,0,6.8-0.7,8.6-2.2c1.8-1.5,2.7-3.6,2.7-6.5s-1-5.1-2.9-6.3c-1.9-1.3-4.8-1.9-8.7-1.9h-5.6
			L135.3,81.7L135.3,81.7z M135.3,88.7v20.7h-8.5V57.5h14.7c6.7,0,11.7,1.3,14.9,3.8c3.2,2.5,4.8,6.3,4.8,11.4
			c0,6.5-3.4,11.1-10.1,13.8l14.7,23h-9.7l-12.4-20.7C143.7,88.7,135.3,88.7,135.3,88.7z"/>
		<path class="st0" d="M198.2,87.7l-4.9-14.1c-0.4-1-0.8-2.5-1.5-4.5c-0.6-2.1-1.1-3.5-1.3-4.5c-0.8,3.2-1.7,6.5-2.8,9.6l-4.7,13.5
			L198.2,87.7L198.2,87.7z M205.7,109.5l-5.2-14.4h-19.9l-5.1,14.4h-8.9L186,57.3h9.2l19.4,52.2H205.7L205.7,109.5z"/>
		<path class="st0" d="M259.7,66.2V88c0,2.5-0.6,4.7-1.7,6.5c-1.1,1.9-2.8,3.4-4.8,4.3c-2.1,1-4.6,1.5-7.5,1.5
			c-4.3,0-7.7-1.1-10.1-3.3c-2.4-2.2-3.6-5.3-3.6-9.1V66.2h7.1v20.6c0,2.6,0.5,4.5,1.6,5.7c1,1.2,2.8,1.8,5.2,1.8s4-0.6,5.1-1.8
			c1-1.2,1.6-3.1,1.6-5.7V66.2C252.6,66.2,259.7,66.2,259.7,66.2z"/>
		<polygon class="st0" points="287,66.2 277.9,77.6 275,81.6 275,66.2 267.9,66.2 267.9,99.9 275,99.9 275,87.9 278.1,85.7 
			286.9,99.9 295,99.9 283.2,81.1 294.9,66.2 		"/>
		<path class="st0" d="M9.4,128.2h3c2,0,3.4-0.4,4.4-1.1c0.9-0.8,1.3-1.9,1.3-3.3s-0.5-2.6-1.5-3.2c-1-0.6-2.5-1-4.4-1H9.4
			C9.4,119.6,9.4,128.2,9.4,128.2z M9.4,131.8v10.5H5.1v-26.4h7.4c3.4,0,5.9,0.6,7.6,1.9c1.6,1.3,2.5,3.2,2.5,5.8
			c0,3.3-1.7,5.6-5.1,7l7.4,11.7H20l-6.3-10.5H9.4z"/>
		<polygon class="st0" points="43.6,142.3 28.7,142.3 28.7,115.9 43.6,115.9 43.6,119.6 33,119.6 33,126.7 42.9,126.7 42.9,130.4 
			33,130.4 33,138.6 43.6,138.6 		"/>
		<path class="st0" d="M60.1,128h9.7v13.2c-1.5,0.5-3,0.9-4.6,1.1c-1.6,0.2-3.1,0.3-4.7,0.3c-4,0-7-1.2-9.2-3.5
			c-2.2-2.4-3.2-5.7-3.2-10c0-4.3,1.2-7.6,3.6-10c2.5-2.4,5.8-3.6,10.1-3.6c2.7,0,5.3,0.5,7.8,1.6l-1.5,3.6c-2-1-4.2-1.5-6.4-1.5
			c-2.8,0-5,0.9-6.7,2.7c-1.6,1.8-2.5,4.2-2.5,7.2c0,3.2,0.8,5.7,2.2,7.4c1.5,1.7,3.6,2.5,6.3,2.5c1.5,0,3-0.2,4.5-0.5v-6.8h-5.5
			L60.1,128L60.1,128z"/>
		<rect x="76.1" y="115.9" class="st0" width="4.3" height="26.4"/>
		<path class="st0" d="M102.6,135.1c0,2.3-0.8,4.2-2.5,5.5c-1.7,1.3-4,2-7,2s-5.4-0.5-7.3-1.4v-4.1c1.2,0.6,2.5,1,3.8,1.3
			c1.2,0.3,2.5,0.5,3.8,0.5c1.7,0,3-0.3,3.8-1c0.8-0.6,1.3-1.6,1.2-2.6c0-1-0.4-1.9-1.1-2.5c-0.8-0.7-2.3-1.5-4.6-2.4
			c-2.4-1-4.1-2.1-5.1-3.3c-1-1.3-1.5-2.9-1.5-4.5c0-2.2,0.8-3.9,2.3-5.2c1.5-1.3,3.6-1.9,6.3-1.9c2.6,0,5.2,0.6,7.5,1.7l-1.4,3.5
			c-2.3-1-4.4-1.5-6.3-1.5c-1.4,0-2.5,0.3-3.2,0.9c-0.7,0.6-1.1,1.5-1.1,2.4c0,0.6,0.1,1.2,0.4,1.7c0.4,0.6,0.9,1,1.4,1.4
			c0.7,0.4,1.9,1,3.6,1.7c1.9,0.8,3.4,1.5,4.2,2.3c0.8,0.6,1.5,1.4,2,2.4c0.4,1,0.7,2.1,0.6,3.1"/>
		<polygon class="st0" points="116.8,142.3 112.5,142.3 112.5,119.6 104.7,119.6 104.7,115.9 124.5,115.9 124.5,119.6 116.8,119.6 
					"/>
		<polygon class="st0" points="143.5,142.3 128.5,142.3 128.5,115.9 143.5,115.9 143.5,119.6 132.9,119.6 132.9,126.7 142.8,126.7 
			142.8,130.4 132.9,130.4 132.9,138.6 143.5,138.6 		"/>
		<path class="st0" d="M153.4,128.2h3c2,0,3.4-0.4,4.4-1.1c0.9-0.8,1.3-1.9,1.3-3.3s-0.5-2.6-1.5-3.2s-2.4-1-4.4-1h-2.9L153.4,128.2
			L153.4,128.2z M153.4,131.8v10.5h-4.3v-26.4h7.4c3.4,0,5.9,0.6,7.6,1.9s2.5,3.2,2.5,5.8c0,3.3-1.7,5.6-5.1,7l7.4,11.7H164
			l-6.3-10.5H153.4L153.4,131.8z"/>
		<polygon class="st0" points="187.7,142.3 172.8,142.3 172.8,115.9 187.7,115.9 187.7,119.6 177,119.6 177,126.7 187,126.7 
			187,130.4 177,130.4 177,138.6 187.7,138.6 		"/>
		<path class="st0" d="M210.2,129c0-6.3-2.9-9.5-8.9-9.5h-3.7v19.1h3C207,138.7,210.2,135.5,210.2,129L210.2,129z M214.8,128.9
			c0,4.4-1.2,7.7-3.6,10c-2.4,2.3-5.9,3.4-10.5,3.4h-7.4v-26.4h8.2c4.2,0,7.4,1.1,9.8,3.4C213.6,121.6,214.7,124.8,214.8,128.9"/>
	</g>
</g>
</svg>
